<svg width="152" height="36" viewBox="0 0 152 36" fill="none" xmlns="http://www.w3.org/2000/svg">
<path d="M36.8356 18.6966C36.8356 16.8121 37.2422 15.1359 38.0555 13.6681C38.8688 12.1822 39.9984 11.0315 41.4443 10.2161C42.9082 9.38256 44.5619 8.96579 46.4053 8.96579C48.6645 8.96579 50.5983 9.56377 52.2068 10.7597C53.8153 11.9557 54.8907 13.5866 55.4329 15.6523H50.3363C49.9567 14.855 49.4145 14.248 48.7097 13.8312C48.0229 13.4144 47.2367 13.206 46.3511 13.206C44.9233 13.206 43.7667 13.7044 42.8811 14.701C41.9955 15.6976 41.5527 17.0295 41.5527 18.6966C41.5527 20.3637 41.9955 21.6956 42.8811 22.6922C43.7667 23.6889 44.9233 24.1872 46.3511 24.1872C47.2367 24.1872 48.0229 23.9788 48.7097 23.562C49.4145 23.1453 49.9567 22.5382 50.3363 21.7409H55.4329C54.8907 23.8067 53.8153 25.4375 52.2068 26.6335C50.5983 27.8114 48.6645 28.4003 46.4053 28.4003C44.5619 28.4003 42.9082 27.9926 41.4443 27.1771C39.9984 26.3436 38.8688 25.1929 38.0555 23.7251C37.2422 22.2573 36.8356 20.5812 36.8356 18.6966Z" fill="white"/>
<path d="M64.6169 28.4818C63.1349 28.4818 61.7975 28.1647 60.6047 27.5305C59.4299 26.8963 58.4992 25.9902 57.8124 24.8124C57.1437 23.6345 56.8093 22.2573 56.8093 20.6808C56.8093 19.1225 57.1527 17.7543 57.8395 16.5765C58.5263 15.3805 59.4661 14.4654 60.6589 13.8312C61.8518 13.197 63.1892 12.8799 64.6712 12.8799C66.1532 12.8799 67.4906 13.197 68.6834 13.8312C69.8762 14.4654 70.816 15.3805 71.5028 16.5765C72.1896 17.7543 72.533 19.1225 72.533 20.6808C72.533 22.2392 72.1806 23.6164 71.4757 24.8124C70.7889 25.9902 69.8401 26.8963 68.6292 27.5305C67.4364 28.1647 66.0989 28.4818 64.6169 28.4818ZM64.6169 24.459C65.5025 24.459 66.2526 24.1328 66.8671 23.4805C67.4996 22.8282 67.8159 21.8949 67.8159 20.6808C67.8159 19.4668 67.5087 18.5335 66.8942 17.8812C66.2978 17.2288 65.5568 16.9027 64.6712 16.9027C63.7675 16.9027 63.0175 17.2288 62.4211 17.8812C61.8246 18.5154 61.5264 19.4486 61.5264 20.6808C61.5264 21.8949 61.8156 22.8282 62.3939 23.4805C62.9904 24.1328 63.7314 24.459 64.6169 24.459Z" fill="white"/>
<path d="M84.0322 12.9342C85.8033 12.9342 87.213 13.5141 88.2613 14.6738C89.3276 15.8154 89.8608 17.3919 89.8608 19.4033V28.2644H85.2521V20.0285C85.2521 19.0137 84.99 18.2255 84.4659 17.6637C83.9418 17.102 83.2369 16.8211 82.3514 16.8211C81.4658 16.8211 80.7609 17.102 80.2368 17.6637C79.7127 18.2255 79.4506 19.0137 79.4506 20.0285V28.2644H74.8148V13.0973H79.4506V15.1087C79.9205 14.4382 80.5531 13.9127 81.3483 13.5322C82.1435 13.1336 83.0381 12.9342 84.0322 12.9342Z" fill="white"/>
<path d="M101.743 24.3231V28.2644H99.3842C97.7034 28.2644 96.3931 27.8567 95.4533 27.0412C94.5135 26.2077 94.0436 24.8577 94.0436 22.9912V16.957H92.2002V13.0973H94.0436V9.40068H98.6794V13.0973H101.716V16.957H98.6794V23.0456C98.6794 23.4986 98.7878 23.8248 99.0047 24.0241C99.2216 24.2234 99.583 24.3231 100.089 24.3231H101.743Z" fill="white"/>
<path d="M119.318 20.4362C119.318 20.8711 119.291 21.3241 119.237 21.7953H108.745C108.817 22.7375 109.116 23.4624 109.64 23.9698C110.182 24.459 110.842 24.7036 111.619 24.7036C112.775 24.7036 113.58 24.2144 114.031 23.2359H118.965C118.712 24.2325 118.252 25.1295 117.583 25.9268C116.932 26.7241 116.11 27.3493 115.116 27.8023C114.122 28.2553 113.01 28.4818 111.781 28.4818C110.299 28.4818 108.98 28.1647 107.823 27.5305C106.667 26.8963 105.763 25.9902 105.112 24.8124C104.462 23.6345 104.136 22.2573 104.136 20.6808C104.136 19.1043 104.453 17.7272 105.085 16.5493C105.736 15.3715 106.64 14.4654 107.796 13.8312C108.953 13.197 110.281 12.8799 111.781 12.8799C113.245 12.8799 114.547 13.1879 115.685 13.804C116.824 14.4201 117.709 15.299 118.342 16.4406C118.993 17.5822 119.318 18.9141 119.318 20.4362ZM114.574 19.2131C114.574 18.4158 114.303 17.7815 113.76 17.3104C113.218 16.8392 112.54 16.6037 111.727 16.6037C110.95 16.6037 110.29 16.8302 109.748 17.2832C109.224 17.7362 108.899 18.3795 108.772 19.2131H114.574Z" fill="white"/>
<path d="M129.533 16.957H127.039V28.2644H122.403V16.957H120.722V13.0973H122.403V12.6624C122.403 10.796 122.936 9.38256 124.002 8.42216C125.069 7.44364 126.632 6.95438 128.692 6.95438C129.036 6.95438 129.289 6.96344 129.452 6.98156V10.9228C128.566 10.8685 127.942 10.9953 127.581 11.3034C127.219 11.6114 127.039 12.1641 127.039 12.9614V13.0973H129.533V16.957Z" fill="white"/>
<path d="M149.606 13.0973L140.118 35.4674H135.13L138.6 27.7479L132.446 13.0973H137.624L141.121 22.5835L144.591 13.0973H149.606Z" fill="white"/>
<path d="M30.4504 30.5306C27.9558 33.0317 24.7775 34.735 21.3173 35.4251C17.8572 36.1152 14.2707 35.761 11.0113 34.4074C7.75198 33.0538 4.96615 30.7615 3.00615 27.8204C1.04615 24.8793 2.1728e-07 21.4216 0 17.8844C-2.1728e-07 14.3472 1.04615 10.8894 3.00615 7.94836C4.96615 5.00729 7.75198 2.715 11.0113 1.36138C14.2707 0.00774942 17.8572 -0.346421 21.3173 0.343651C24.7775 1.03372 27.9558 2.73704 30.4504 5.23822L26.0972 9.60293C24.4635 7.96501 22.3822 6.84958 20.1163 6.39768C17.8504 5.94578 15.5017 6.17771 13.3673 7.06414C11.2329 7.95058 9.40856 9.4517 8.12503 11.3777C6.84151 13.3037 6.15643 15.568 6.15643 17.8844C6.15643 20.2008 6.84151 22.4651 8.12503 24.3911C9.40856 26.3171 11.2329 27.8182 13.3673 28.7046C15.5017 29.5911 17.8504 29.823 20.1163 29.3711C22.3822 28.9192 24.4635 27.8038 26.0972 26.1658L30.4504 30.5306Z" fill="url(#paint0_linear_367_6369)"/>
<path d="M22.0855 17.881C22.0855 20.2333 20.1836 22.1403 17.8374 22.1403C15.4913 22.1403 13.5893 20.2333 13.5893 17.881C13.5893 15.5286 15.4913 13.6217 17.8374 13.6217C20.1836 13.6217 22.0855 15.5286 22.0855 17.881Z" fill="url(#paint1_linear_367_6369)"/>
<defs>
<linearGradient id="paint0_linear_367_6369" x1="2.81995e-07" y1="16.7462" x2="30.4504" y2="16.7462" gradientUnits="userSpaceOnUse">
<stop stop-color="#00FD92"/>
<stop offset="1" stop-color="#00A3FD"/>
</linearGradient>
<linearGradient id="paint1_linear_367_6369" x1="2.81995e-07" y1="16.7462" x2="30.4504" y2="16.7462" gradientUnits="userSpaceOnUse">
<stop stop-color="#00FD92"/>
<stop offset="1" stop-color="#00A3FD"/>
</linearGradient>
</defs>
</svg>
