<svg width="64" height="64" viewBox="0 0 64 64" fill="none" xmlns="http://www.w3.org/2000/svg">
<path d="M53.125 17.375H48.5134C47.8311 17.3756 47.1659 17.1611 46.6125 16.7619C46.0591 16.3628 45.6456 15.7993 45.4308 15.1517L44.4025 12.07C43.9724 10.775 43.1451 9.64854 42.0382 8.85057C40.9313 8.05261 39.6011 7.62377 38.2366 7.625H25.7634C24.3989 7.62377 23.0687 8.05261 21.9618 8.85057C20.8549 9.64854 20.0276 10.775 19.5975 12.07L18.5692 15.1517C18.3544 15.7993 17.9409 16.3628 17.3875 16.7619C16.8341 17.1611 16.1689 17.3756 15.4866 17.375H10.875C9.58251 17.3764 8.34335 17.8905 7.42942 18.8044C6.51549 19.7184 6.00142 20.9575 6 22.25V51.5C6.00142 52.7925 6.51549 54.0316 7.42942 54.9456C8.34335 55.8595 9.58251 56.3736 10.875 56.375H53.125C54.4175 56.3736 55.6566 55.8595 56.5706 54.9456C57.4845 54.0316 57.9986 52.7925 58 51.5V22.25C57.9986 20.9575 57.4845 19.7184 56.5706 18.8044C55.6566 17.8905 54.4175 17.3764 53.125 17.375Z" fill="#85D4FC"/>
<path d="M53.125 15.75H49.875C49.444 15.75 49.0307 15.5788 48.726 15.274C48.4212 14.9693 48.25 14.556 48.25 14.125C48.25 13.694 48.4212 13.2807 48.726 12.976C49.0307 12.6712 49.444 12.5 49.875 12.5H53.125C53.556 12.5 53.9693 12.6712 54.274 12.976C54.5788 13.2807 54.75 13.694 54.75 14.125C54.75 14.556 54.5788 14.9693 54.274 15.274C53.9693 15.5788 53.556 15.75 53.125 15.75Z" fill="#00A6F9"/>
<path d="M32 49.875C40.0772 49.875 46.625 43.3272 46.625 35.25C46.625 27.1728 40.0772 20.625 32 20.625C23.9228 20.625 17.375 27.1728 17.375 35.25C17.375 43.3272 23.9228 49.875 32 49.875Z" fill="#00A6F9"/>
<path d="M14.125 25.5H12.5C12.069 25.5 11.6557 25.3288 11.351 25.024C11.0462 24.7193 10.875 24.306 10.875 23.875C10.875 23.444 11.0462 23.0307 11.351 22.726C11.6557 22.4212 12.069 22.25 12.5 22.25H14.125C14.556 22.25 14.9693 22.4212 15.274 22.726C15.5788 23.0307 15.75 23.444 15.75 23.875C15.75 24.306 15.5788 24.7193 15.274 25.024C14.9693 25.3288 14.556 25.5 14.125 25.5Z" fill="#00A6F9"/>
</svg>
