<svg width="24" height="24" viewBox="0 0 24 24" fill="none" xmlns="http://www.w3.org/2000/svg">
<path fill-rule="evenodd" clip-rule="evenodd" d="M2.14709 2.26457C1.74092 2.18334 1.3458 2.44675 1.26456 2.85292C1.18333 3.25909 1.44674 3.65421 1.85291 3.73544L2.90227 3.94531C3.44102 4.05306 3.84626 4.49997 3.90092 5.04666L4.05446 6.58201L5.04394 14.8277C5.20979 16.2098 6.3823 17.25 7.77435 17.25H16.7673C18.7175 17.25 20.4174 15.9227 20.8904 14.0308L22.0131 9.53974C22.4944 7.61474 21.0385 5.75001 19.0542 5.75001H5.47874L5.39348 4.89741C5.27321 3.69468 4.3817 2.71149 3.19645 2.47444L2.14709 2.26457Z" fill="#BBB9D1"/>
<path d="M12.9999 13.4999H8.99986" stroke="#BBB9D1" stroke-width="1.5" stroke-linecap="round" stroke-linejoin="round"/>
<circle cx="8.5" cy="20" r="1.5" fill="white"/>
<circle cx="17.5" cy="20" r="1.5" fill="white"/>
</svg>
