<svg width="24" height="24" viewBox="0 0 24 24" fill="none" xmlns="http://www.w3.org/2000/svg">
<path d="M22.998 3.00078C23.5484 3.00078 23.9983 2.55083 23.9983 2.00039C23.9983 1.44995 23.5484 1 22.998 1H18.9979C18.4489 1 17.999 1.44995 17.999 2.00039C17.999 2.55083 18.4489 3.00078 18.9994 3.00078H19.9998V4.99106C19.4493 5.27153 19.0699 5.84147 19.0699 6.5014V6.75187H17.8895C17.1096 6.75187 16.4002 6.30192 16.0702 5.5925C15.3593 4.05966 13.7995 3.00078 11.9997 3.00078C10.1999 3.00078 8.64003 4.06116 7.9306 5.591C7.60064 6.30042 6.89122 6.75037 6.11131 6.75037H5.07042V6.4999C5.07042 5.79047 4.62047 5.19054 4.00104 4.92057V3.00078H5.00143C5.55037 3.00078 6.00032 2.55083 6.00032 2.00039C6.00032 1.44995 5.55037 1 4.99993 1H1.00137C0.450927 1 0.000976562 1.44995 0.000976562 2.00039C0.000976562 2.55083 0.450927 3.00078 1.00137 3.00078H2.00176V4.99106C1.45132 5.27153 1.07186 5.84147 1.07186 6.5014V8.50068C1.07186 9.46057 1.85177 10.251 2.82217 10.251H3.32161C4.28151 10.251 5.07192 9.46057 5.07192 8.50068V8.2502H6.11131C6.89122 8.2502 7.60064 8.70015 7.9306 9.40058C8.51104 10.6409 9.64042 11.5708 11.0008 11.8708V13.9811H13V11.8693C14.3604 11.5693 15.4898 10.6394 16.0702 9.39908C16.4002 8.69865 17.1096 8.2487 17.8895 8.2487H19.0699V8.49918C19.0699 9.45907 19.8498 10.2495 20.8202 10.2495H21.3196C22.2795 10.2495 23.0699 9.45907 23.0699 8.49918V6.4999C23.0699 5.79047 22.62 5.19054 22.0006 4.92057V3.00078H22.998Z" fill="white"/>
<path d="M16.2484 15.7494H15.4985C15.419 15.7494 15.3485 15.7089 15.2585 15.5994L14.3586 14.59C14.0286 14.2106 13.5487 14.0006 13.0492 14.0006H12.9997V13.9811H11.0005V13.9991H10.9495C10.45 13.9991 9.97006 14.2091 9.6401 14.5885L8.6997 15.6489C8.65021 15.7089 8.57972 15.7494 8.50023 15.7494H7.75031C6.79041 15.7494 6 16.5398 6 17.4997V22.2482C6 23.2081 6.79041 23.9985 7.75031 23.9985H16.2499C17.2083 23.9985 17.9987 23.2081 17.9987 22.2482V17.4982C17.9987 16.5383 17.2083 15.7494 16.2484 15.7494ZM11.9993 21.9977C10.6195 21.9977 9.49912 20.8773 9.49912 19.4975C9.49912 18.1176 10.6195 16.9972 11.9993 16.9972C13.3792 16.9972 14.4996 18.1176 14.4996 19.4975C14.4996 20.8788 13.3792 21.9977 11.9993 21.9977Z" fill="#9F9ACA"/>
</svg>
