<svg width="24" height="24" viewBox="0 0 24 24" fill="none" xmlns="http://www.w3.org/2000/svg">
<path d="M16.5167 16.8289C16.2514 16.8289 15.9862 16.7276 15.7843 16.5249C15.3804 16.1205 15.3812 15.4652 15.7856 15.0616C16.6051 14.2437 17.0563 13.1563 17.0563 11.9998C17.0563 10.8434 16.6051 9.75601 15.7856 8.93806C15.3812 8.53418 15.3804 7.87918 15.7843 7.47452C16.1879 7.07012 16.8431 7.06933 17.2475 7.47321C18.4589 8.68223 19.1259 10.2896 19.1259 11.9998C19.1259 13.7098 18.4589 15.3175 17.2475 16.5265C17.0456 16.7281 16.7811 16.8289 16.5167 16.8289Z" fill="#9F9ACA"/>
<path d="M18.8573 19.8755C18.592 19.8755 18.3268 19.7742 18.1249 19.5718C17.721 19.1671 17.7218 18.5121 18.1262 18.1082C19.761 16.4765 20.6617 14.3072 20.6617 11.9998C20.6617 9.69246 19.761 7.52318 18.1262 5.89145C17.7218 5.48757 17.721 4.83258 18.1249 4.42791C18.5287 4.02351 19.1837 4.02273 19.5881 4.42661C21.6149 6.4494 22.7313 9.13896 22.731 11.9998C22.731 14.8607 21.6149 17.5506 19.5881 19.5734C19.3862 19.7748 19.1217 19.8755 18.8573 19.8755Z" fill="#9F9ACA"/>
<path d="M7.48411 16.8289C7.21965 16.8289 6.9552 16.7281 6.753 16.5265C5.54162 15.3175 4.8746 13.7098 4.8746 11.9998C4.8746 10.2896 5.54162 8.68223 6.753 7.47321C7.1574 7.06933 7.81265 7.06986 8.21627 7.47452C8.62015 7.87892 8.61937 8.53418 8.21496 8.93806C7.39544 9.75601 6.94421 10.8434 6.94421 11.9998C6.94421 13.1563 7.39544 14.2437 8.21496 15.0616C8.61937 15.4652 8.62015 16.1205 8.21627 16.5249C8.01433 16.7274 7.74909 16.8289 7.48411 16.8289Z" fill="#9F9ACA"/>
<path d="M5.14352 19.8755C4.8788 19.8755 4.61435 19.7748 4.41241 19.5731C2.38569 17.5503 1.26953 14.8607 1.26953 11.9998C1.26953 9.13869 2.38569 6.44914 4.41241 4.42634C4.81681 4.02273 5.47206 4.02325 5.87568 4.42791C6.27956 4.83232 6.27877 5.48731 5.87437 5.89119C4.2395 7.52292 3.33888 9.6922 3.33888 11.9996C3.33888 14.307 4.2395 16.4765 5.87437 18.1082C6.27877 18.5121 6.27956 19.1671 5.87568 19.5718C5.67374 19.7742 5.4085 19.8755 5.14352 19.8755Z" fill="#9F9ACA"/>
<path d="M13.5425 13.5364C12.6921 14.3849 11.3139 14.3849 10.4635 13.5364C9.61336 12.6878 9.61336 11.3119 10.4635 10.4633C11.3139 9.61476 12.6921 9.61476 13.5425 10.4633C14.3927 11.3119 14.3927 12.6878 13.5425 13.5364Z" fill="white"/>
</svg>
