<svg width="24" height="24" viewBox="0 0 24 24" fill="none" xmlns="http://www.w3.org/2000/svg">
<path d="M11.9608 8.41438C12.5325 7.37667 13.284 6.45031 14.1724 5.67738C13.8334 4.2494 13.0491 2.94657 11.9592 1.91998C10.8701 2.94582 10.0859 4.24776 9.74683 5.67408C10.6369 6.44709 11.3892 7.37427 11.9608 8.41438Z" fill="white"/>
<path d="M13.7726 10.3442C13.3535 11.3395 13.1676 12.4356 13.1965 13.5254C13.1941 13.5279 13.1916 13.5304 13.1891 13.5337C17.489 13.7317 21.2234 10.1069 21.033 5.69718C19.5264 5.64991 18.0489 6.04009 16.8376 6.78522C15.4729 7.6092 14.3851 8.86915 13.7726 10.3442Z" fill="white"/>
<path d="M9.00112 13.3984C9.55446 13.5101 10.1511 13.5433 10.7293 13.5337C10.7268 13.5304 10.7243 13.5279 10.7219 13.5254C10.8867 9.1553 7.28163 5.52948 2.88535 5.69718C2.74413 9.46052 5.41604 12.724 9.00112 13.3984Z" fill="white"/>
<path d="M6.08842 16.0084L7.44454 22.4426H16.4738L17.83 16.0084H6.08842Z" fill="#9F9ACA"/>
</svg>
