<svg width="24" height="24" viewBox="0 0 24 24" fill="none" xmlns="http://www.w3.org/2000/svg">
<path fill-rule="evenodd" clip-rule="evenodd" d="M19.3414 9.88208L21.5083 10.2434C21.7921 10.2906 22 10.5359 22 10.8236V13.1765C22 13.4643 21.7921 13.7096 21.5083 13.7567L19.3414 14.1181C19.1834 14.6649 18.9646 15.1918 18.6871 15.6915L19.9653 17.4815C20.1325 17.7153 20.1061 18.0359 19.9027 18.2392L18.2391 19.9028C18.0346 20.1056 17.7141 20.1315 17.4814 19.9654L15.6914 18.6873C15.1916 18.9648 14.6649 19.1836 14.118 19.3416L13.7567 21.5084C13.7096 21.7922 13.4643 22.0001 13.1765 22.0001H10.8235C10.5357 22.0001 10.2904 21.7922 10.2433 21.5084L9.88201 19.3416C9.33512 19.1836 8.80837 18.9647 8.30856 18.6873L6.51856 19.9654C6.28478 20.1315 5.96366 20.1056 5.76087 19.9028L4.09729 18.2392C3.89398 18.0359 3.86756 17.7153 4.03471 17.4815L5.31286 15.6915C5.03537 15.1917 4.8165 14.6649 4.65855 14.1181L2.49172 13.7567C2.20795 13.7096 2 13.4643 2 13.1765V10.8236C2 10.5358 2.20795 10.2905 2.49172 10.2434L4.65855 9.88208C4.81657 9.33519 5.03537 8.80837 5.31286 8.30863L4.03471 6.51862C3.86749 6.28485 3.89391 5.96432 4.09729 5.76094L5.76087 4.09736C5.96366 3.89338 6.28478 3.86636 6.51856 4.03471L8.30856 5.31286C8.80837 5.03537 9.33512 4.8165 9.88201 4.65855L10.2433 2.49172C10.2904 2.20795 10.5357 2 10.8235 2H13.1765C13.4643 2 13.7096 2.20795 13.7567 2.49172L14.118 4.65855C14.6649 4.81657 15.1916 5.03537 15.6914 5.31286L17.4814 4.03471C17.7141 3.86643 18.0346 3.89345 18.2391 4.09736L19.9027 5.76094C20.106 5.96425 20.1324 6.28485 19.9653 6.51862L18.6871 8.30863C18.9646 8.80843 19.1835 9.33519 19.3414 9.88208ZM6.70584 12.0001C6.70584 14.9194 9.08062 17.2942 12 17.2942C14.9193 17.2942 17.2941 14.9194 17.2941 12.0001C17.2941 9.08075 14.9193 6.70598 12 6.70598C9.08062 6.70598 6.70584 9.08075 6.70584 12.0001Z" fill="#BBB9D1"/>
<path fill-rule="evenodd" clip-rule="evenodd" d="M12 17.2942C9.08062 17.2942 6.70584 14.9194 6.70584 12.0001C6.70584 9.08075 9.08062 6.70598 12 6.70598C14.9193 6.70598 17.2941 9.08075 17.2941 12.0001C17.2941 14.9194 14.9193 17.2942 12 17.2942ZM12.5882 11.4119H15.3529C15.6781 11.4119 15.9411 11.675 15.9411 12.0001C15.9411 12.3252 15.6781 12.5883 15.3529 12.5883H12C11.6749 12.5883 11.4118 12.3253 11.4118 12.0001V8.64718C11.4118 8.32201 11.6749 8.0589 12 8.0589C12.3251 8.0589 12.5882 8.32201 12.5882 8.64718V11.4119Z" fill="#BBB9D1"/>
<path d="M12 8V12H16" stroke="#1E1566" stroke-width="1.5" stroke-linecap="round" stroke-linejoin="round"/>
</svg>
