<svg width="24" height="24" viewBox="0 0 24 24" fill="none" xmlns="http://www.w3.org/2000/svg">
<path d="M20.8795 8.06836L19.1125 9.83543L15.5783 6.30129L17.3454 4.53422C17.8166 4.063 18.5234 3.82739 19.1125 3.82739C19.7015 3.82739 20.4083 4.063 20.8795 4.53422C21.822 5.47666 21.822 7.12592 20.8795 8.06836Z" fill="white"/>
<path d="M18.2878 10.5421L5.56494 23.265C4.62251 24.2075 2.97324 24.2075 2.03081 23.265C1.08837 22.3226 1.08837 20.6733 2.03081 19.7309L14.7537 7.008L18.2878 10.5421Z" fill="white"/>
<path d="M9.68803 3.23829L10.1592 1.58902C10.1592 1.47122 10.1592 1.23561 10.0414 1.1178C9.92364 1 9.68803 1 9.57022 1L7.92096 1.58902L6.27169 1C6.15389 1 5.91828 1 5.80048 1.1178C5.68267 1.23561 5.68267 1.47122 5.80048 1.58902L6.27169 3.23829L5.68267 4.88755C5.68267 5.00536 5.68267 5.24096 5.80048 5.35877C5.91828 5.47657 6.15389 5.47657 6.27169 5.47657L7.92096 5.00536L9.57022 5.47657H9.68803C9.80583 5.47657 9.92364 5.47657 10.0414 5.35877C10.1592 5.24096 10.1592 5.12316 10.1592 4.88755L9.68803 3.23829Z" fill="#9F9ACA"/>
<path d="M4.9759 10.3066L5.44712 8.65732C5.44712 8.53952 5.44712 8.30391 5.32932 8.1861C5.21151 8.0683 4.9759 8.0683 4.8581 8.1861L3.20884 8.65732L1.55957 8.0683C1.44177 8.0683 1.20616 8.0683 1.08835 8.1861C0.970549 8.30391 0.970549 8.53952 1.08835 8.65732L1.55957 10.3066L1.08835 11.9558C1.08835 12.0737 1.08835 12.3093 1.20616 12.4271C1.32396 12.5449 1.44177 12.5449 1.67738 12.5449L3.32664 12.0737L4.9759 12.5449H5.09371C5.21151 12.5449 5.32932 12.5449 5.44712 12.4271C5.56493 12.3093 5.56493 12.1915 5.56493 11.9558L4.9759 10.3066Z" fill="#9F9ACA"/>
<path d="M22.5288 16.1968L23 14.5475C23 14.4297 23 14.1941 22.8822 14.0763C22.7644 13.9585 22.6466 13.9585 22.411 13.9585L20.7617 14.4297L19.1124 13.9585C18.9946 13.9585 18.759 13.9585 18.6412 14.0763C18.5234 14.1941 18.5234 14.3119 18.5234 14.5475L18.9946 16.1968L18.5234 17.846C18.5234 17.9639 18.5234 18.1995 18.6412 18.3173C18.759 18.4351 18.8768 18.4351 19.1124 18.4351L20.7617 17.9639L22.411 18.4351H22.5288C22.6466 18.4351 22.7644 18.4351 22.8822 18.3173C23 18.1995 23 18.0817 23 17.846L22.5288 16.1968Z" fill="#9F9ACA"/>
</svg>
