<svg width="24" height="24" viewBox="0 0 24 24" fill="none" xmlns="http://www.w3.org/2000/svg">
<g clip-path="url(#clip0_367_6517)">
<path d="M18.0796 3.56307H16.0351L15.1327 1.79584C14.8645 1.27305 14.3297 0.952148 13.7315 0.952148H10.3749C9.77675 0.952148 9.2404 1.27456 8.97373 1.79584L8.07129 3.56307H6.02684C4.9195 3.56307 4.01855 4.44292 4.01855 5.52164V12.0497C4.01855 13.1284 4.921 14.0083 6.02684 14.0083H18.0796C19.1869 14.0083 20.0879 13.1284 20.0879 12.0497V5.52164C20.0879 4.44292 19.1869 3.56307 18.0796 3.56307ZM15.1779 8.35102C15.1779 10.0309 13.7767 11.3973 12.0532 11.3973C10.3297 11.3973 8.92854 10.0309 8.92854 8.35102C8.92854 6.67117 10.3297 5.30469 12.0532 5.30469C13.7767 5.30469 15.1779 6.67117 15.1779 8.35102Z" fill="#9F9ACA"/>
<path d="M10.296 20.7021C10.2659 20.7021 10.2373 20.7006 10.2072 20.6975C4.19736 20.1717 0 17.5247 0 14.2599C0 13.252 0.164218 12.4911 1.00188 11.5812C1.37702 11.1729 2.01281 11.1473 2.42109 11.5224C2.82938 11.8975 2.85499 12.5333 2.47985 12.9416C2.06704 13.3906 2.00829 13.6256 2.00829 14.2599C2.00829 16.3375 5.68587 18.2855 10.3819 18.6968C10.9348 18.745 11.3431 19.2316 11.2949 19.7845C11.2497 20.3073 10.8113 20.7021 10.296 20.7021Z" fill="white"/>
<path d="M14.2964 20.6539C13.7917 20.6539 13.3563 20.2727 13.299 19.759C13.2387 19.2076 13.6365 18.7119 14.1879 18.6501C18.9186 18.1303 22.096 16.0889 22.096 14.51C22.096 13.7206 21.9589 13.4735 21.5235 12.8106C21.2192 12.3465 21.3487 11.7243 21.8112 11.42C22.2768 11.1157 22.899 11.2452 23.2018 11.7077C23.7653 12.5635 24.1058 13.1797 24.1058 14.5115C24.1058 17.4494 20.0274 20.0302 14.4079 20.6479C14.3702 20.6524 14.334 20.6539 14.2964 20.6539Z" fill="white"/>
<path d="M11.8323 19.2512L9.32081 16.7397C9.10537 16.5242 8.78145 16.4595 8.49972 16.577C8.21798 16.693 8.03418 16.9687 8.03418 17.273V22.2945C8.03418 22.5988 8.21798 22.873 8.49972 22.9905C8.59313 23.0297 8.69105 23.0478 8.78748 23.0478C8.98333 23.0478 9.17618 22.9709 9.32081 22.8278L11.8323 20.3163C12.1261 20.0225 12.1261 19.5449 11.8323 19.2512Z" fill="white"/>
</g>
<defs>
<clipPath id="clip0_367_6517">
<rect width="24" height="24" fill="white"/>
</clipPath>
</defs>
</svg>
