<svg width="24" height="24" viewBox="0 0 24 24" fill="none" xmlns="http://www.w3.org/2000/svg">
<path fill-rule="evenodd" clip-rule="evenodd" d="M1 12C1 5.92487 5.92487 1 12 1C18.0751 1 23 5.92487 23 12C23 18.0751 18.0751 23 12 23C5.92487 23 1 18.0751 1 12Z" fill="#BBB9D1"/>
<path d="M7.6757 14.872H9.0997V13.624H7.6757V12.056H9.0997V6.34399H13.2117C13.841 6.34399 14.4117 6.40799 14.9237 6.53599C15.4357 6.65333 15.873 6.85599 16.2357 7.14399C16.5984 7.42133 16.8757 7.78933 17.0677 8.24799C17.2704 8.70666 17.3717 9.27199 17.3717 9.94399C17.3717 9.97599 17.3717 10.0027 17.3717 10.024C17.3717 10.5787 17.265 11.0907 17.0517 11.56C16.8384 12.0293 16.545 12.4187 16.1717 12.728C15.7984 13.0267 15.3504 13.2507 14.8277 13.4C14.305 13.5493 13.7397 13.624 13.1317 13.624H10.9557V14.872H14.1717V16.344H10.9557V17.656H9.0997V16.344H7.6757V14.872ZM13.0517 12.056C13.393 12.056 13.7077 12.0187 13.9957 11.944C14.2944 11.8693 14.5557 11.752 14.7797 11.592C15.0037 11.432 15.1797 11.224 15.3077 10.968C15.4464 10.712 15.521 10.3973 15.5317 10.024C15.5317 9.62933 15.4784 9.30399 15.3717 9.04799C15.265 8.78133 15.105 8.57333 14.8917 8.42399C14.689 8.26399 14.4384 8.15733 14.1397 8.10399C13.841 8.03999 13.4944 8.00799 13.0997 8.00799H10.9557V12.056H13.0517Z" fill="#1E1566"/>
</svg>
