<svg width="40" height="40" viewBox="0 0 40 40" fill="none" xmlns="http://www.w3.org/2000/svg">
<circle cx="3" cy="3" r="3" transform="matrix(-1 0 0 1 22.999 17)" stroke="#00FB90" stroke-width="1.5"/>
<path d="M24.4995 12.9375L24.8745 12.288V12.288L24.4995 12.9375ZM24.4995 27.0621L24.1245 26.4126H24.1245L24.4995 27.0621ZM15.4995 27.0621L15.1245 27.7117H15.1245L15.4995 27.0621ZM15.4995 12.9375L15.8745 13.587L15.4995 12.9375ZM16.9225 11.015L16.1918 10.8459L16.9225 11.015ZM17.5388 10.3049L17.3548 9.5778L17.5388 10.3049ZM13.3111 26.7403L13.4833 27.4702L13.3111 26.7403ZM12.4021 26.5031L12.9716 26.0151L12.4021 26.5031ZM17.5388 29.6951L17.3549 30.4222L17.5388 29.6951ZM16.9226 28.9849L16.1918 29.1539L16.9226 28.9849ZM23.0766 28.9847L23.8073 29.1538L23.0766 28.9847ZM22.4604 29.6948L22.6444 30.4219L22.4604 29.6948ZM27.5961 26.5029L27.0266 26.0149L27.5961 26.5029ZM26.6873 26.7401L26.5152 27.4701L26.6873 26.7401ZM29.4427 16.7029L28.7346 16.9501L29.4427 16.7029ZM29.0926 17.6835L28.6156 17.1047L29.0926 17.6835ZM10.9054 22.3165L11.3823 22.8953L10.9054 22.3165ZM26.6871 13.2596L26.5151 12.5296L26.6871 13.2596ZM27.5958 13.4968L28.1654 13.0088L27.5958 13.4968ZM13.3112 13.2594L13.139 13.9894L13.3112 13.2594ZM29.0926 22.3165L29.5695 21.7376L29.0926 22.3165ZM23.0766 11.0152L23.8073 10.8461L23.0766 11.0152ZM22.4605 10.3052L22.2764 11.0323L22.4605 10.3052ZM22.3459 11.1843C22.5718 12.1601 23.1874 13.0459 24.1245 13.587L24.8745 12.288C24.3122 11.9633 23.9433 11.4338 23.8073 10.8461L22.3459 11.1843ZM24.1245 13.587C24.9854 14.084 25.963 14.2008 26.8592 13.9896L26.5151 12.5296C25.976 12.6566 25.3915 12.5865 24.8745 12.288L24.1245 13.587ZM30.1508 16.4557C29.7052 15.1794 29.0262 14.0135 28.1654 13.0088L27.0263 13.9848C27.7677 14.8501 28.3517 15.8533 28.7346 16.9501L30.1508 16.4557ZM28.749 20C28.749 19.3006 29.0672 18.6762 29.5695 18.2624L28.6156 17.1047C27.7823 17.7913 27.249 18.8337 27.249 20H28.749ZM29.5695 21.7376C29.0672 21.3238 28.749 20.6994 28.749 20H27.249C27.249 21.1663 27.7823 22.2087 28.6156 22.8953L29.5695 21.7376ZM28.1656 26.9908C29.0263 25.9863 29.7053 24.8204 30.1508 23.5443L28.7346 23.0499C28.3518 24.1465 27.7679 25.1497 27.0266 26.0149L28.1656 26.9908ZM24.8745 27.7117C25.3916 27.4132 25.9761 27.343 26.5152 27.4701L26.8594 26.0101C25.9632 25.7989 24.9854 25.9156 24.1245 26.4126L24.8745 27.7117ZM23.8073 29.1538C23.9432 28.5659 24.3121 28.0364 24.8745 27.7117L24.1245 26.4126C23.1872 26.9538 22.5716 27.8397 22.3459 28.8157L23.8073 29.1538ZM19.999 30.75C20.9109 30.75 21.7973 30.6363 22.6444 30.4219L22.2764 28.9677C21.5486 29.1519 20.7858 29.25 19.999 29.25V30.75ZM17.3549 30.4222C18.2016 30.6364 19.0875 30.75 19.999 30.75V29.25C19.2126 29.25 18.4502 29.152 17.7228 28.968L17.3549 30.4222ZM15.1245 27.7117C15.687 28.0364 16.0559 28.566 16.1918 29.1539L17.6533 28.816C17.4276 27.8399 16.8119 26.9538 15.8745 26.4126L15.1245 27.7117ZM13.4833 27.4702C14.0226 27.343 14.6073 27.4131 15.1245 27.7117L15.8745 26.4126C15.0134 25.9154 14.0353 25.7988 13.1388 26.0103L13.4833 27.4702ZM9.84718 23.5443C10.2927 24.8206 10.9718 25.9865 11.8325 26.9911L12.9716 26.0151C12.2302 25.1498 11.6462 24.1466 11.2634 23.0499L9.84718 23.5443ZM11.249 20C11.249 20.6994 10.9308 21.3238 10.4285 21.7376L11.3823 22.8953C12.2156 22.2087 12.749 21.1663 12.749 20H11.249ZM10.4285 18.2624C10.9308 18.6762 11.249 19.3006 11.249 20H12.749C12.749 18.8337 12.2156 17.7913 11.3823 17.1047L10.4285 18.2624ZM11.8328 13.0085C10.9719 14.0132 10.2928 15.1793 9.84718 16.4557L11.2634 16.9501C11.6463 15.8532 12.2303 14.8499 12.9719 13.9846L11.8328 13.0085ZM15.1245 12.288C14.6074 12.5866 14.0227 12.6567 13.4834 12.5294L13.139 13.9894C14.0354 14.2008 15.0134 14.0842 15.8745 13.587L15.1245 12.288ZM16.1918 10.8459C16.0558 11.4338 15.6869 11.9633 15.1245 12.288L15.8745 13.587C16.8118 13.0459 17.4274 12.16 17.6532 11.184L16.1918 10.8459ZM19.999 9.25C19.0875 9.25 18.2015 9.3636 17.3548 9.5778L17.7227 11.032C18.4501 10.848 19.2126 10.75 19.999 10.75V9.25ZM22.6445 9.57815C21.7974 9.36373 20.9109 9.25 19.999 9.25V10.75C20.7858 10.75 21.5487 10.8481 22.2764 11.0323L22.6445 9.57815ZM17.6532 11.184C17.6688 11.1166 17.6953 11.069 17.7158 11.044C17.7334 11.0226 17.7366 11.0285 17.7227 11.032L17.3548 9.5778C16.6635 9.75268 16.3066 10.3497 16.1918 10.8459L17.6532 11.184ZM11.3823 17.1047C11.3214 17.0545 11.286 17.0003 11.2719 16.964C11.2599 16.9334 11.2687 16.9348 11.2634 16.9501L9.84718 16.4557C9.58117 17.2177 9.99332 17.9038 10.4285 18.2624L11.3823 17.1047ZM13.1388 26.0103C13.0716 26.0262 13.0173 26.0236 12.9858 26.0163C12.9588 26.01 12.9625 26.0045 12.9716 26.0151L11.8325 26.9911C12.2957 27.5316 12.9877 27.5872 13.4833 27.4702L13.1388 26.0103ZM17.7228 28.968C17.7366 28.9715 17.7335 28.9775 17.7159 28.956C17.6953 28.9311 17.6689 28.8834 17.6533 28.816L16.1918 29.1539C16.3066 29.6502 16.6636 30.2473 17.3549 30.4222L17.7228 28.968ZM22.3459 28.8157C22.3303 28.8832 22.3038 28.9308 22.2833 28.9557C22.2657 28.9772 22.2625 28.9712 22.2764 28.9677L22.6444 30.4219C23.3356 30.2469 23.6925 29.65 23.8073 29.1538L22.3459 28.8157ZM27.0266 26.0149C27.0357 26.0042 27.0394 26.0097 27.0124 26.016C26.9809 26.0234 26.9266 26.026 26.8594 26.0101L26.5152 27.4701C27.0108 27.5869 27.7027 27.5312 28.1656 26.9908L27.0266 26.0149ZM28.7346 16.9501C28.7293 16.9348 28.738 16.9334 28.7261 16.964C28.7119 17.0003 28.6765 17.0545 28.6156 17.1047L29.5695 18.2624C30.0046 17.9038 30.4168 17.2177 30.1508 16.4557L28.7346 16.9501ZM11.2634 23.0499C11.2687 23.0652 11.2599 23.0666 11.2719 23.036C11.286 22.9997 11.3214 22.9455 11.3823 22.8953L10.4285 21.7376C9.99332 22.0962 9.58117 22.7823 9.84718 23.5443L11.2634 23.0499ZM26.8592 13.9896C26.9264 13.9737 26.9807 13.9763 27.0121 13.9837C27.0392 13.99 27.0354 13.9955 27.0263 13.9848L28.1654 13.0088C27.7024 12.4685 27.0106 12.4128 26.5151 12.5296L26.8592 13.9896ZM12.9719 13.9846C12.9627 13.9952 12.959 13.9897 12.9861 13.9834C13.0175 13.9761 13.0718 13.9735 13.139 13.9894L13.4834 12.5294C12.9879 12.4125 12.2959 12.4681 11.8328 13.0085L12.9719 13.9846ZM28.6156 22.8953C28.6765 22.9455 28.7119 22.9997 28.7261 23.036C28.738 23.0666 28.7293 23.0652 28.7346 23.0499L30.1508 23.5443C30.4168 22.7823 30.0046 22.0962 29.5695 21.7376L28.6156 22.8953ZM23.8073 10.8461C23.6925 10.3499 23.3356 9.75308 22.6445 9.57815L22.2764 11.0323C22.2626 11.0288 22.2657 11.0229 22.2834 11.0443C22.3039 11.0692 22.3303 11.1168 22.3459 11.1843L23.8073 10.8461Z" fill="#00FB90"/>
</svg>
