<svg width="24" height="24" viewBox="0 0 24 24" fill="none" xmlns="http://www.w3.org/2000/svg">
<path d="M19.375 3H3.625C2.18125 3 1 4.18125 1 5.625V17.8746C1 19.3183 2.18125 20.4996 3.625 20.4996H19.375C20.8188 20.4996 22 19.3183 22 17.8746V5.625C22 4.18125 20.8188 3 19.375 3ZM4.50044 8.46919C4.01875 8.46919 3.625 8.07544 3.625 7.59375V6.28125C3.625 5.79956 4.01875 5.40581 4.50044 5.40581C4.98212 5.40581 5.37587 5.79956 5.37587 6.28125V7.59375C5.37456 8.07544 4.98081 8.46919 4.50044 8.46919ZM5.37456 11.0942V12.4067C5.37456 12.8884 4.98081 13.2821 4.49913 13.2821C4.01875 13.2821 3.625 12.8884 3.625 12.4067V11.0942C3.625 10.6125 4.01875 10.2188 4.50044 10.2188C4.98081 10.2188 5.37456 10.6125 5.37456 11.0942ZM3.625 15.9071C3.625 15.4254 4.01875 15.0317 4.50044 15.0317C4.98212 15.0317 5.37587 15.4254 5.37587 15.9071V17.2196C5.37587 17.7013 4.98212 18.0951 4.50044 18.0951C4.01875 18.0951 3.625 17.7013 3.625 17.2196V15.9071ZM18.4996 8.46919C18.0179 8.46919 17.6241 8.07544 17.6241 7.59375V6.28125C17.6241 5.79956 18.0179 5.40581 18.4996 5.40581C18.9813 5.40581 19.375 5.79956 19.375 6.28125V7.59375C19.375 8.07544 18.9813 8.46919 18.4996 8.46919ZM19.375 11.0942V12.4067C19.375 12.8884 18.9813 13.2821 18.4996 13.2821C18.0179 13.2821 17.6241 12.8884 17.6241 12.4067V11.0942C17.6241 10.6125 18.0179 10.2188 18.4996 10.2188C18.9813 10.2188 19.375 10.6125 19.375 11.0942ZM17.6254 15.9071C17.6254 15.4254 18.0192 15.0317 18.5009 15.0317C18.9812 15.0317 19.375 15.4254 19.375 15.9071V17.2196C19.375 17.7013 18.9813 18.0951 18.4996 18.0951C18.0179 18.0951 17.6241 17.7013 17.6241 17.2196V15.9071H17.6254Z" fill="white"/>
<path d="M7.5625 4.75085H15.4375V9.56379H7.5625V4.75085Z" fill="#9F9ACA"/>
<path d="M7.5625 13.9384H15.4375V18.7513H7.5625V13.9384Z" fill="#9F9ACA"/>
</svg>
