<svg width="24" height="24" viewBox="0 0 24 24" fill="none" xmlns="http://www.w3.org/2000/svg">
<g clip-path="url(#clip0_367_6560)">
<path d="M21.4795 19.052C20.971 18.8311 20.7325 18.2256 20.947 17.7019C21.1615 17.1767 21.7495 16.9341 22.2565 17.1535L23.638 17.7544C23.785 17.8193 23.902 17.9197 23.9995 18.0371V7.58191L13 12.774V13.1293L13.771 13.4645C14.2795 13.6854 14.518 14.291 14.3035 14.8147C14.143 15.2086 13.7725 15.4449 13.3825 15.4449C13.255 15.4449 13.126 15.4187 13 15.3646V24L22.9525 19.6731C22.6735 19.5819 21.7675 19.1787 21.4795 19.052ZM19.96 17.274C19.7455 17.7977 19.159 18.0433 18.6505 17.8224L15.8215 16.5927C15.313 16.3718 15.0745 15.7678 15.289 15.2426C15.5035 14.7189 16.09 14.4717 16.5985 14.6942L19.4275 15.9238C19.936 16.1463 20.1745 16.7503 19.96 17.274Z" fill="white"/>
<path d="M9.6975 14.8146C9.483 14.2909 9.7215 13.6869 10.23 13.4644L11.001 13.1292V12.7739L0 7.58185V18.0386C0.0975 17.9212 0.2145 17.8192 0.3615 17.7559L1.743 17.155C2.25 16.9341 2.838 17.1781 3.0525 17.7034C3.267 18.2271 3.0285 18.8311 2.52 19.0535C2.2305 19.1787 1.326 19.5834 1.047 19.673L10.9995 24V15.3645C10.4955 15.5793 9.9105 15.3367 9.6975 14.8146ZM8.178 16.5927L5.349 17.8223C4.8435 18.0432 4.2555 17.8022 4.0395 17.2739C3.825 16.7487 4.0635 16.1462 4.572 15.9238L7.401 14.6941C7.9095 14.4717 8.496 14.7173 8.7105 15.2425C8.925 15.7677 8.6865 16.3718 8.178 16.5927Z" fill="white"/>
<path d="M10.9995 10.208V9.17765C10.9995 8.60917 11.4465 8.14727 12 8.14727C12.552 8.14727 13.0005 8.60917 13.0005 9.17765V10.208C13.0005 10.3254 12.9705 10.4336 12.936 10.5386L24 5.31565L12.738 0C12.897 0.182286 13.0005 0.417096 13.0005 0.681256V1.71164C13.0005 2.28012 12.5535 2.74202 12 2.74202C11.448 2.74202 10.9995 2.28012 10.9995 1.71164V0.681256C10.9995 0.417096 11.103 0.182286 11.262 0L0 5.31565L11.0655 10.5386C11.0295 10.4336 10.9995 10.3254 10.9995 10.208ZM10.9995 4.37796C10.9995 3.80947 11.4465 3.34758 12 3.34758C12.552 3.34758 13.0005 3.80947 13.0005 4.37796V6.51133C13.0005 7.07982 12.5535 7.54171 12 7.54171C11.448 7.54171 10.9995 7.07982 10.9995 6.51133V4.37796Z" fill="#9F9ACA"/>
</g>
<defs>
<clipPath id="clip0_367_6560">
<rect width="24" height="24" fill="white"/>
</clipPath>
</defs>
</svg>
