<svg width="24" height="24" viewBox="0 0 24 24" fill="none" xmlns="http://www.w3.org/2000/svg">
<path d="M14.4737 5.3706C14.4737 3.65827 12.462 2.73775 11.1662 3.85712L9.35265 5.4238C8.98936 5.73762 8.52531 5.91031 8.04524 5.91031L7.49998 5.91032C6.11928 5.91033 5 7.02961 5 8.41032V10.4574C5 11.562 5.89543 12.4574 7 12.4574H8.7895L11.1662 14.5106C12.462 15.6299 14.4737 14.7094 14.4737 12.9971V9.18384V5.3706Z" fill="#9F9ACA"/>
<path d="M8.7895 12.4574H7V17.6053C7 18.0994 7.40059 18.5 7.89475 18.5C8.3889 18.5 8.7895 18.0994 8.7895 17.6053V12.4574Z" fill="#9F9ACA"/>
<path d="M8.7895 12.4574L11.1662 14.5106C12.462 15.6299 14.4737 14.7094 14.4737 12.9971V9.18384V5.3706C14.4737 3.65827 12.462 2.73775 11.1662 3.85712L9.35265 5.4238C8.98936 5.73762 8.52531 5.91031 8.04524 5.91031L7.49998 5.91032C6.11928 5.91033 5 7.02961 5 8.41032V10.4574C5 11.562 5.89543 12.4574 7 12.4574V12.4574M8.7895 12.4574H7M8.7895 12.4574V17.6053C8.7895 18.0994 8.3889 18.5 7.89475 18.5V18.5C7.40059 18.5 7 18.0994 7 17.6053V12.4574" stroke="#9F9ACA" stroke-width="1.5"/>
<path d="M16.8418 11.5526C17.3375 10.8929 17.6313 10.0729 17.6313 9.18422C17.6313 8.29558 17.3375 7.47553 16.8418 6.8158" stroke="white" stroke-width="1.5" stroke-linecap="round"/>
<path d="M18.4211 13.9211C19.4125 12.6016 20 10.9615 20 9.18423C20 7.40696 19.4125 5.76685 18.4211 4.44739" stroke="white" stroke-width="1.5" stroke-linecap="round"/>
</svg>
