<?xml version="1.0" standalone="no"?>
<!DOCTYPE svg PUBLIC "-//W3C//DTD SVG 1.1//EN" "http://www.w3.org/Graphics/SVG/1.1/DTD/svg11.dtd" >
<svg xmlns="http://www.w3.org/2000/svg">
<metadata>Generated by IcoMoon</metadata>
<defs>
<font id="icomoon" horiz-adv-x="1024">
<font-face units-per-em="1024" ascent="960" descent="-64" />
<missing-glyph horiz-adv-x="1024" />
<glyph unicode="&#x20;" horiz-adv-x="512" d="" />
<glyph unicode="&#xe900;" d="M85.343 227.55c0-17.225 10.356-32.759 26.256-39.386l368.405-153.502v463.258l-215.071 91.249-179.59 74.829v-436.449z" />
<glyph unicode="&#xe901;" d="M938.675 671.635l-394.671-173.42v-463.556l368.414 153.506c15.902 6.626 26.257 22.161 26.257 39.386v444.085z" />
<glyph unicode="&#xe902;" d="M129.093 715.107l147.988-61.661 374.78 162.947-107.021 44.592c-21.005 8.752-44.638 8.752-65.643 0l-350.105-145.877z" />
<glyph unicode="&#xe903;" d="M733.824 782.241l-375.393-163.214 153.36-65.067 374.729 164.658-152.695 63.623z" />
<glyph unicode="&#xe904;" glyph-name="Camera" d="M85.333 513.856c0 93.233 75.578 168.811 168.809 168.811 27.011 0 51.424 16.097 62.064 40.925l13.213 30.831c20.17 47.063 66.447 77.578 117.651 77.578h129.86c51.204 0 97.481-30.515 117.649-77.578l13.214-30.831c10.641-24.827 35.055-40.925 62.063-40.925 93.231 0 168.811-75.578 168.811-168.811v-215.189c0-117.82-95.514-213.333-213.333-213.333h-426.667c-117.821 0-213.333 95.514-213.333 213.333v215.189z" />
<glyph unicode="&#xe905;" d="M91.609 863.378c-17.33 3.466-34.188-7.773-37.655-25.103s7.773-34.188 25.103-37.654l44.773-8.954c22.987-4.597 40.277-23.665 42.609-46.991l6.551-65.508 42.218-351.816c7.076-58.97 57.103-103.351 116.497-103.351h383.699c83.209 0 155.738 56.631 175.919 137.353l47.902 191.619c20.535 82.133-41.583 161.695-126.246 161.695h-579.22l-3.638 36.378c-5.132 51.316-43.169 93.266-93.74 103.38l-44.773 8.954z" />
<glyph unicode="&#xe906;" d="M554.662 384.004h-170.668" />
<glyph unicode="&#xe907;" d="M426.667 106.667c0-35.346-28.654-64-64-64s-64 28.654-64 64c0 35.346 28.654 64 64 64s64-28.654 64-64z" />
<glyph unicode="&#xe908;" d="M810.667 106.667c0-35.346-28.654-64-64-64s-64 28.654-64 64c0 35.346 28.654 64 64 64s64-28.654 64-64z" />
<glyph unicode="&#xe909;" d="M981.248 831.967c23.484 0 42.679 19.198 42.679 42.683s-19.196 42.683-42.679 42.683h-170.671c-23.424 0-42.62-19.198-42.62-42.683s19.196-42.683 42.684-42.683h42.684v-84.919c-23.488-11.967-39.676-36.284-39.676-64.441v-10.687h-50.364c-33.276 0-63.543 19.198-77.623 49.466-30.332 65.401-96.883 110.58-173.675 110.58s-143.346-45.243-173.615-110.516c-14.078-30.269-44.347-49.466-77.623-49.466h-44.411v10.687c0 30.269-19.198 55.866-45.627 67.385v81.911h42.683c23.421 0 42.619 19.198 42.619 42.683s-19.198 42.683-42.683 42.683h-170.605c-23.486 0-42.683-19.198-42.683-42.683s19.198-42.683 42.683-42.683h42.683v-84.919c-23.485-11.967-39.676-36.284-39.676-64.441v-85.303c0-40.955 33.276-74.68 74.68-74.68h21.309c40.956 0 74.68 33.725 74.68 74.68v10.687h44.347c33.276 0 63.545-19.198 77.623-49.083 24.765-52.92 72.952-92.596 130.995-105.396v-90.039h85.299v90.103c58.044 12.8 106.231 52.476 130.995 105.396 14.080 29.885 44.348 49.083 77.623 49.083h50.364v-10.687c0-40.955 33.276-74.68 74.679-74.68h21.308c40.956 0 74.679 33.725 74.679 74.68v85.303c0 30.269-19.196 55.866-45.623 67.385v81.911h42.556z" />
<glyph unicode="&#xe90a;" d="M693.265 288.026h-31.996c-3.392 0-6.4 1.728-10.24 6.4l-38.396 43.068c-14.080 16.188-34.556 25.148-55.868 25.148h-2.112v0.832h-85.299v-0.768h-2.176c-21.312 0-41.789-8.96-55.868-25.148l-40.124-45.244c-2.112-2.56-5.119-4.288-8.511-4.288h-31.997c-40.956 0-74.68-33.724-74.68-74.679v-202.603c0-40.956 33.724-74.679 74.68-74.679h362.649c40.892 0 74.615 33.724 74.615 74.679v202.667c0 40.956-33.724 74.615-74.679 74.615zM511.97 21.431c-58.871 0-106.674 47.804-106.674 106.675 0 58.876 47.803 106.679 106.674 106.679 58.876 0 106.679-47.804 106.679-106.679 0-58.935-47.804-106.675-106.679-106.675z" />
<glyph unicode="&#xe90b;" d="M704.713 241.967c-11.319 0-22.635 4.322-31.249 12.971-17.233 17.254-17.199 45.214 0.055 62.434 34.965 34.897 54.217 81.293 54.217 130.637 0 49.34-19.251 95.735-54.217 130.634-17.254 17.232-17.289 45.179-0.055 62.444 17.22 17.254 45.175 17.288 62.43 0.056 51.686-51.585 80.145-120.166 80.145-193.135 0-72.96-28.459-141.555-80.145-193.139-8.614-8.602-19.9-12.902-31.181-12.902z" />
<glyph unicode="&#xe90c;" d="M804.578 111.979c-11.319 0-22.635 4.322-31.249 12.958-17.233 17.267-17.199 45.214 0.055 62.447 69.751 69.619 108.181 162.176 108.181 260.625 0 98.447-38.43 191.002-108.181 260.623-17.254 17.232-17.289 45.178-0.055 62.444 17.229 17.254 45.175 17.288 62.43 0.055 86.477-86.306 134.11-201.060 134.097-323.123 0-122.065-47.62-236.834-134.097-323.14-8.614-8.593-19.9-12.89-31.181-12.89z" />
<glyph unicode="&#xe90d;" d="M319.322 241.967c-11.284 0-22.567 4.301-31.194 12.902-51.686 51.584-80.145 120.179-80.145 193.139 0 72.969 28.46 141.55 80.145 193.135 17.254 17.232 45.212 17.21 62.433-0.056 17.232-17.254 17.199-45.212-0.056-62.444-34.966-34.899-54.219-81.295-54.219-130.634 0-49.344 19.252-95.74 54.219-130.637 17.255-17.22 17.288-45.18 0.056-62.434-8.616-8.64-19.933-12.971-31.239-12.971z" />
<glyph unicode="&#xe90e;" d="M219.457 111.979c-11.295 0-22.578 4.297-31.194 12.902-86.473 86.306-134.096 201.062-134.096 323.127 0 122.074 47.623 236.828 134.096 323.134 17.254 17.221 45.212 17.199 62.433-0.067 17.232-17.255 17.199-45.201-0.056-62.433-69.754-69.62-108.181-162.176-108.181-260.625s38.426-191.014 108.181-260.634c17.254-17.233 17.288-45.18 0.056-62.447-8.616-8.636-19.933-12.958-31.239-12.958z" />
<glyph unicode="&#xe90f;" d="M577.813 382.447c-36.284-36.203-95.087-36.203-131.371 0-36.273 36.207-36.273 94.912 0 131.119 36.284 36.204 95.087 36.204 131.371 0 36.275-36.207 36.275-94.912 0-131.119z" />
<glyph unicode="&#xe910;" glyph-name="flame" d="M586.769 824.65c-0.094 3.252-3.639 5.37-6.434 3.701-147.853-88.331-145.118-309.912-143.351-350.062 0.132-3.029-2.731-5.167-5.474-3.874-17.081 8.043-66.022 38.34-68.726 122.264-0.105 3.257-3.619 5.35-6.421 3.689-85.609-50.738-143.028-144.449-143.028-248.368 0-159.061 133.717-288 298.667-288s298.667 128.939 298.667 288c0 231.076-218.441 280.771-223.898 472.65z" />
<glyph unicode="&#xe911;" d="M510.327 600.986c24.393 44.276 56.457 83.8 94.362 116.779-14.464 60.927-47.927 116.515-94.43 160.316-46.468-43.769-79.927-99.319-94.394-160.175 37.976-32.982 70.074-72.541 94.463-116.919z" />
<glyph unicode="&#xe912;" d="M587.631 518.647c-17.882-42.466-25.813-89.233-24.58-135.731-0.102-0.107-0.209-0.213-0.316-0.354 183.462-8.448 342.797 146.21 334.673 334.358-64.282 2.017-127.322-14.631-179.004-46.423-58.227-35.156-104.64-88.914-130.773-151.85z" />
<glyph unicode="&#xe913;" d="M384.048 388.335c23.609-4.766 49.066-6.182 73.736-5.773-0.107 0.141-0.213 0.247-0.316 0.354 7.031 186.458-146.785 341.159-334.359 334.004-6.025-160.569 107.976-299.811 260.94-328.585z" />
<glyph unicode="&#xe914;" d="M259.773 276.975l57.861-274.526h385.248l57.865 274.526h-500.974z" />
<glyph unicode="&#xe915;" glyph-name="Frame" d="M825.233 538.365l92.454-15.416c12.109-2.014 20.979-12.48 20.979-24.755v-100.39c0-12.279-8.87-22.746-20.979-24.755l-92.454-15.42c-6.741-23.33-16.077-45.811-27.917-67.132l54.537-76.373c7.134-9.975 6.007-23.654-2.671-32.329l-70.98-70.98c-8.725-8.653-22.4-9.758-32.329-2.671l-76.373 54.532c-21.325-11.84-43.797-21.175-67.132-27.917l-15.415-92.45c-2.010-12.109-12.476-20.979-24.755-20.979h-100.395c-12.279 0-22.746 8.87-24.755 20.979l-15.415 92.45c-23.334 6.741-45.809 16.081-67.134 27.917l-76.373-54.532c-9.975-7.087-23.676-5.982-32.328 2.671l-70.979 70.98c-8.675 8.674-9.802 22.353-2.67 32.329l54.534 76.373c-11.84 21.325-21.178 43.802-27.917 67.132l-92.451 15.42c-12.108 2.010-20.98 12.476-20.98 24.755v100.39c0 12.279 8.873 22.746 20.98 24.755l92.451 15.416c6.742 23.334 16.078 45.812 27.917 67.134l-54.534 76.374c-7.135 9.974-6.007 23.65 2.67 32.328l70.979 70.979c8.652 8.703 22.353 9.856 32.328 2.673l76.373-54.534c21.325 11.84 43.8 21.178 67.134 27.917l15.415 92.451c2.010 12.108 12.476 20.98 24.755 20.98h100.395c12.279 0 22.746-8.873 24.755-20.98l15.415-92.451c23.334-6.742 45.807-16.078 67.132-27.917l76.373 54.534c9.929 7.18 23.603 6.027 32.329-2.673l70.98-70.979c8.674-8.675 9.801-22.353 2.671-32.328l-54.537-76.374c11.84-21.325 21.18-43.8 27.917-67.134zM286.116 447.996c0-124.557 101.324-225.882 225.884-225.882 124.557 0 225.882 101.325 225.882 225.882 0 124.559-101.325 225.882-225.882 225.882-124.56 0-225.884-101.324-225.884-225.882zM512 222.114c124.557 0 225.882 101.325 225.882 225.882 0 124.559-101.325 225.882-225.882 225.882-124.56 0-225.884-101.324-225.884-225.882s101.324-225.882 225.884-225.882zM537.097 473.092h117.961c13.875 0 25.097-11.226 25.097-25.097s-11.221-25.097-25.097-25.097h-143.057c-13.871 0-25.097 11.221-25.097 25.097v143.058c0 13.874 11.226 25.1 25.097 25.1s25.097-11.226 25.097-25.1v-117.961z" />
<glyph unicode="&#xe916;" d="M512 885.333c-205.87 0-373.333-165.24-373.333-369.779 0-127.211 74.185-252.766 152.808-344.158 39.787-46.251 82.017-85.295 119.266-113.062 18.597-13.862 36.465-25.301 52.598-33.425 15.125-7.616 32.397-14.242 48.661-14.242s33.536 6.626 48.661 14.242c16.132 8.124 34.001 19.563 52.599 33.425 37.248 27.767 79.475 66.812 119.266 113.062 78.622 91.392 152.806 216.947 152.806 344.158 0 204.539-167.462 369.779-373.333 369.779z" />
<glyph unicode="&#xe917;" d="M384 533.333c0-70.692 57.308-128 128-128s128 57.308 128 128c0 70.692-57.308 128-128 128s-128-57.308-128-128z" />
<glyph unicode="&#xe918;" d="M907.331 645.304l-78.67-78.673-157.349 157.346 78.674 78.673c20.979 20.98 52.447 31.469 78.674 31.469 26.223 0 57.691-10.49 78.67-31.469 41.962-41.959 41.962-115.387 0-157.346z" />
<glyph unicode="&#xe919;" d="M791.944 535.168l-566.444-566.444c-41.959-41.962-115.387-41.962-157.346 0-41.959 41.957-41.959 115.387 0 157.344l566.445 566.446 157.344-157.346z" />
<glyph unicode="&#xe91a;" d="M409.067 860.347l20.979 73.428c0 5.245 0 15.735-5.245 20.979s-15.734 5.245-20.98 5.245l-73.428-26.224-73.428 26.224c-5.245 0-15.734 0-20.979-5.245s-5.245-15.735 0-20.979l20.979-73.428-26.224-73.428c0-5.245 0-15.734 5.245-20.98s15.734-5.245 20.979-5.245l73.428 20.979 73.428-20.979h5.245c5.245 0 10.49 0 15.734 5.245s5.245 10.49 5.245 20.98l-20.979 73.428z" />
<glyph unicode="&#xe91b;" d="M199.275 545.654l20.98 73.428c0 5.245 0 15.734-5.245 20.98s-15.735 5.245-20.98 0l-73.428-20.98-73.428 26.224c-5.245 0-15.735 0-20.979-5.245s-5.245-15.735 0-20.98l20.979-73.428-20.979-73.426c0-5.249 0-15.738 5.245-20.983s10.49-5.245 20.979-5.245l73.428 20.979 73.428-20.979h5.245c5.245 0 10.49 0 15.734 5.245s5.245 10.489 5.245 20.983l-26.225 73.426z" />
<glyph unicode="&#xe91c;" d="M980.76 283.412l20.979 73.43c0 5.245 0 15.734-5.245 20.979s-10.489 5.245-20.979 5.245l-73.43-20.979-73.43 20.979c-5.245 0-15.734 0-20.979-5.245s-5.245-10.489-5.245-20.979l20.979-73.43-20.979-73.425c0-5.249 0-15.738 5.245-20.983s10.489-5.245 20.979-5.245l73.43 20.979 73.43-20.979h5.245c5.245 0 10.489 0 15.734 5.245s5.245 10.489 5.245 20.983l-20.979 73.425z" />
<glyph unicode="&#xe91d;" d="M256 789.333h128c47.128 0 85.333-38.205 85.333-85.333s-38.205-85.333-85.333-85.333h-128c-47.128 0-85.333 38.205-85.333 85.333s38.205 85.333 85.333 85.333z" />
<glyph unicode="&#xe91e;" d="M277.333 490.667h85.333c58.91 0 106.667-47.756 106.667-106.667v-213.333c0-58.91-47.756-106.667-106.667-106.667h-85.333c-58.91 0-106.667 47.756-106.667 106.667v213.333c0 58.91 47.756 106.667 106.667 106.667z" />
<glyph unicode="&#xe91f;" d="M704 789.333h85.333c58.91 0 106.667-47.756 106.667-106.667v-213.333c0-58.91-47.756-106.667-106.667-106.667h-85.333c-58.91 0-106.667 47.756-106.667 106.667v213.333c0 58.91 47.756 106.667 106.667 106.667z" />
<glyph unicode="&#xe920;" d="M682.667 234.667h128c47.128 0 85.333-38.205 85.333-85.333s-38.205-85.333-85.333-85.333h-128c-47.128 0-85.333 38.205-85.333 85.333s38.205 85.333 85.333 85.333z" />
<glyph unicode="&#xe921;" d="M42.667 448c0 259.206 210.128 469.333 469.333 469.333 259.204 0 469.333-210.128 469.333-469.333 0-259.204-210.129-469.333-469.333-469.333-259.206 0-469.333 210.129-469.333 469.333z" />
<glyph unicode="&#xe922;" d="M327.497 325.461h60.757v53.248h-60.757v66.901h60.757v243.712h175.445c26.85 0 51.2-2.731 73.045-8.192 21.845-5.007 40.503-13.653 55.979-25.941 15.475-11.833 27.307-27.535 35.499-47.104 8.649-19.57 12.971-43.691 12.971-72.363 0-1.365 0-2.505 0-3.414 0-23.667-4.553-45.513-13.653-65.536s-21.619-36.638-37.547-49.835c-15.927-12.745-35.042-22.302-57.344-28.672s-46.421-9.557-72.363-9.557h-92.843v-53.248h137.216v-62.805h-137.216v-55.979h-79.189v55.979h-60.757v62.805zM556.873 445.611c14.562 0 27.989 1.591 40.277 4.779 12.745 3.187 23.893 8.192 33.451 15.019s17.067 15.701 22.528 26.624c5.918 10.923 9.101 24.35 9.557 40.277 0 16.839-2.274 30.72-6.827 41.643-4.553 11.377-11.379 20.252-20.48 26.624-8.649 6.827-19.341 11.377-32.085 13.653-12.745 2.731-27.533 4.096-44.373 4.096h-91.477v-172.715h89.429z" />
<glyph unicode="&#xe923;" glyph-name="Star" d="M468.13 844.439c19.9 33.066 67.84 33.066 87.74 0l99.43-165.222c7.151-11.879 18.812-20.351 32.316-23.479l187.866-43.509c37.594-8.707 52.407-54.3 27.11-83.443l-126.409-145.621c-9.088-10.47-13.542-24.179-12.343-37.99l16.67-192.115c3.337-38.447-35.443-66.624-70.98-51.571l-177.557 75.226c-12.766 5.406-27.179 5.406-39.945 0l-177.558-75.226c-35.535-15.053-74.317 13.124-70.981 51.571l16.673 192.115c1.199 13.811-3.255 27.52-12.344 37.99l-126.409 145.621c-25.298 29.143-10.484 74.735 27.112 83.443l187.862 43.509c13.507 3.128 25.167 11.6 32.317 23.479l99.431 165.223z" />
<glyph unicode="&#xe924;" d="M771.396 807.976h-87.232l-38.502 75.402c-11.443 22.306-34.261 35.998-59.785 35.998h-143.215c-25.521 0-48.405-13.756-59.783-35.998l-38.504-75.402h-87.23c-47.247 0-85.687-37.54-85.687-83.566v-278.531c0-46.025 38.505-83.567 85.687-83.567h514.251c47.245 0 85.687 37.542 85.687 83.567v278.531c0 46.025-38.443 83.566-85.687 83.566zM647.59 603.69c0-71.675-59.785-129.975-133.321-129.975s-133.319 58.3-133.319 129.975c0 71.674 59.783 129.977 133.319 129.977s133.321-58.303 133.321-129.977z" />
<glyph unicode="&#xe925;" d="M439.296 76.71c-1.284 0-2.505 0.064-3.789 0.196-256.42 22.434-435.507 135.373-435.507 274.671 0 43.004 7.007 75.469 42.747 114.291 16.006 17.421 43.133 18.513 60.553 2.509s18.513-43.132 2.507-60.553c-17.613-19.157-20.12-29.184-20.12-56.247 0-88.644 156.91-171.759 357.274-189.308 23.59-2.057 41.011-22.818 38.955-46.409-1.929-22.306-20.634-39.151-42.62-39.151z" />
<glyph unicode="&#xe926;" d="M609.98 78.767c-21.534 0-40.111 16.265-42.556 38.182-2.573 23.526 14.4 44.676 37.926 47.313 201.843 22.178 337.412 109.278 337.412 176.644 0 33.681-5.85 44.224-24.427 72.508-12.983 19.802-7.458 46.349 12.275 59.332 19.866 12.983 46.413 7.458 59.332-12.275 24.043-36.514 38.571-62.805 38.571-119.629 0-125.35-174.012-235.465-413.777-261.82-1.609-0.192-3.153-0.256-4.757-0.256z" />
<glyph unicode="&#xe927;" d="M504.845 138.615l-107.157 107.157c-9.192 9.195-23.013 11.955-35.033 6.942-12.021-4.949-19.863-16.713-19.863-29.696v-214.251c0-12.983 7.842-24.683 19.863-29.696 3.985-1.673 8.163-2.445 12.278-2.445 8.356 0 16.585 3.281 22.755 9.387l107.157 107.157c12.535 12.535 12.535 32.913 0 45.444z" />
<glyph unicode="&#xe928;" d="M682.667 483.814l175.625 121.783c33.954 23.545 80.375-0.755 80.375-42.074v-274.479c0-41.165-46.123-65.502-80.102-42.261l-175.898 120.303v116.727z" />
<glyph unicode="&#xe929;" d="M234.667 704h298.667c82.475 0 149.333-66.859 149.333-149.333v-256c0-82.475-66.859-149.333-149.333-149.333h-298.667c-82.475 0-149.333 66.859-149.333 149.333v256c0 82.475 66.859 149.333 149.333 149.333z" />
<glyph unicode="&#xe92a;" d="M916.459 147.115c-21.696 9.425-31.872 35.26-22.72 57.604 9.152 22.409 34.24 32.759 55.872 23.398l58.944-25.638c6.272-2.769 11.264-7.053 15.424-12.062v446.088l-469.312-221.529v-15.159l32.896-14.302c21.696-9.425 31.872-35.264 22.72-57.609-6.848-16.806-22.656-26.889-39.296-26.889-5.44 0-10.944 1.118-16.32 3.426v-368.444l424.64 184.614c-11.904 3.891-50.56 21.094-62.848 26.5zM851.627 222.976c-9.152-22.345-34.176-32.823-55.872-23.398l-120.704 52.467c-21.696 9.425-31.872 35.196-22.72 57.604 9.152 22.345 34.176 32.892 55.872 23.398l120.704-52.463c21.696-9.493 31.872-35.264 22.72-57.609z" />
<glyph unicode="&#xe92b;" d="M413.76 327.91c-9.152 22.345 1.024 48.115 22.72 57.609l32.896 14.302v15.159l-469.376 221.527v-446.155c4.16 5.009 9.152 9.361 15.424 12.062l58.944 25.638c21.632 9.425 46.72-0.986 55.872-23.398 9.152-22.345-1.024-48.115-22.72-57.604-12.352-5.342-50.944-22.609-62.848-26.432l424.64-184.619v368.448c-21.504-9.165-46.464 1.186-55.552 23.462zM348.928 252.045l-120.704-52.463c-21.568-9.425-46.656 0.858-55.872 23.398-9.152 22.409 1.024 48.115 22.72 57.604l120.704 52.467c21.696 9.489 46.72-0.99 55.872-23.398s-1.024-48.183-22.72-57.609z" />
<glyph unicode="&#xe92c;" d="M469.312 524.459v43.962c0 24.255 19.072 43.963 42.688 43.963 23.552 0 42.688-19.708 42.688-43.963v-43.962c0-5.009-1.28-9.626-2.752-14.106l472.064 222.846-480.512 226.801c6.784-7.778 11.2-17.796 11.2-29.067v-43.963c0-24.255-19.072-43.963-42.688-43.963-23.552 0-42.688 19.708-42.688 43.963v43.963c0 11.271 4.416 21.289 11.2 29.067l-480.512-226.801 472.128-222.846c-1.536 4.48-2.816 9.097-2.816 14.106zM469.312 773.207c0 24.256 19.072 43.963 42.688 43.963 23.552 0 42.688-19.707 42.688-43.963v-91.024c0-24.256-19.072-43.963-42.688-43.963-23.552 0-42.688 19.707-42.688 43.963v91.024z" />
<glyph unicode="&#xe92d;" glyph-name="VolumeUp" d="M617.545 730.854c0 73.059-85.833 112.335-141.12 64.575l-77.378-66.845c-15.5-13.39-35.3-20.758-55.783-20.758h-23.264c-58.91 0-106.666-47.756-106.666-106.667v-87.342c0-47.13 38.205-85.333 85.333-85.333h76.352l101.406-87.603c55.287-47.757 141.12-8.482 141.12 64.576v325.397zM375.019 428.484h-76.352v-219.644c0-21.082 17.092-38.174 38.176-38.174s38.176 17.092 38.176 38.174v219.644z" />
</font>
</defs>
</svg>
