<?xml version="1.0" standalone="no"?>
  <!DOCTYPE svg PUBLIC "-//W3C//DTD SVG 1.1//EN" "http://www.w3.org/Graphics/SVG/1.1/DTD/svg11.dtd" >
  <svg>
  <metadata>
  Created by font-carrier
  </metadata>
  <defs>
  <font id="NunitoSans-ExtraBold" horiz-adv-x="1358" vert-adv-y="1358" >
    <font-face
      
      font-family="Nunito Sans ExtraBold"
      
      font-weight="400"
      
      font-stretch="normal"
      
      units-per-em="1000"
      
      ascent="1011"
      
      descent="-353"
      
    />
      <missing-glyph />

      

      
      <glyph glyph-name="uni41" unicode="&#x41;" d="M608 0L541 156L213 156L146 0L-11 0L313 705L438 705L762 0L608 0M264 274L490 274L377 538L264 274Z"  horiz-adv-x="751" vert-adv-y="1000"  />

      
      <glyph glyph-name="unic1" unicode="&#xc1;" d="M608 0L541 156L213 156L146 0L-11 0L313 705L438 705L762 0L608 0M264 274L490 274L377 538L264 274M422 765L328 765L431 921L571 921L422 765Z"  horiz-adv-x="751" vert-adv-y="1000"  />

      
      <glyph glyph-name="uni0102" unicode="&#x0102;" d="M608 0L541 156L213 156L146 0L-11 0L313 705L438 705L762 0L608 0M264 274L490 274L377 538L264 274M375 774Q310 774 263 802Q216 830 197 883L267 912Q297 863 375 863Q453 863 483 912L553 883Q534 830 487 802Q440 774 375 774Z"  horiz-adv-x="751" vert-adv-y="1000"  />

      
      <glyph glyph-name="uni1EAE" unicode="&#x1EAE;" d="M608 0L541 156L213 156L146 0L-11 0L313 705L438 705L762 0L608 0M264 274L490 274L377 538L264 274M419 872L331 872L431 1013L561 1013L419 872M375 760Q310 760 263 787.50Q216 815 197 869L252 892Q268 865 302.50 850.50Q337 836 375 836Q413 836 447.50 850.50Q482 865 498 892L553 869Q534 815 487 787.50Q440 760 375 760Z"  horiz-adv-x="751" vert-adv-y="1000"  />

      
      <glyph glyph-name="uni1EB6" unicode="&#x1EB6;" d="M608 0L541 156L213 156L146 0L-11 0L313 705L438 705L762 0L608 0M264 274L490 274L377 538L264 274M307-67L445-67L445-199L307-199L307-67M375 774Q310 774 263 802Q216 830 197 883L267 912Q297 863 375 863Q453 863 483 912L553 883Q534 830 487 802Q440 774 375 774Z"  horiz-adv-x="751" vert-adv-y="1000"  />

      
      <glyph glyph-name="uni1EB0" unicode="&#x1EB0;" d="M608 0L541 156L213 156L146 0L-11 0L313 705L438 705L762 0L608 0M264 274L490 274L377 538L264 274M331 872L189 1013L319 1013L419 872L331 872M375 760Q310 760 263 787.50Q216 815 197 869L252 892Q268 865 302.50 850.50Q337 836 375 836Q413 836 447.50 850.50Q482 865 498 892L553 869Q534 815 487 787.50Q440 760 375 760Z"  horiz-adv-x="751" vert-adv-y="1000"  />

      
      <glyph glyph-name="uni1EB2" unicode="&#x1EB2;" d="M608 0L541 156L213 156L146 0L-11 0L313 705L438 705L762 0L608 0M264 274L490 274L377 538L264 274M412 873L338 873L338 892Q338 911 351 920.50Q364 930 385 938Q403 943 403 948Q403 953 395 957Q387 961 370 961Q345 961 313 950L293 1001Q338 1019 388 1019Q437 1019 466 1002.50Q495 986 495 959Q495 940 482.50 930Q470 920 447 911Q429 903 420.50 897Q412 891 412 881L412 873M375 760Q310 760 263 787.50Q216 815 197 869L252 892Q268 865 302.50 850.50Q337 836 375 836Q413 836 447.50 850.50Q482 865 498 892L553 869Q534 815 487 787.50Q440 760 375 760Z"  horiz-adv-x="751" vert-adv-y="1000"  />

      
      <glyph glyph-name="uni1EB4" unicode="&#x1EB4;" d="M608 0L541 156L213 156L146 0L-11 0L313 705L438 705L762 0L608 0M264 274L490 274L377 538L264 274M201 913Q201 958 233 988Q265 1018 310 1018Q326 1018 340.50 1014.50Q355 1011 368 1006.50Q381 1002 386 1000Q401 994 415.50 989.50Q430 985 442 985Q481 985 484 1015L549 1015Q549 970 517 940Q485 910 440 910Q424 910 409.50 913.50Q395 917 382 921.50Q369 926 364 928Q349 934 334.50 938.50Q320 943 308 943Q269 943 266 913L201 913M375 760Q310 760 263 787.50Q216 815 197 869L252 892Q268 865 302.50 850.50Q337 836 375 836Q413 836 447.50 850.50Q482 865 498 892L553 869Q534 815 487 787.50Q440 760 375 760Z"  horiz-adv-x="751" vert-adv-y="1000"  />

      
      <glyph glyph-name="unic2" unicode="&#xc2;" d="M608 0L541 156L213 156L146 0L-11 0L313 705L438 705L762 0L608 0M264 274L490 274L377 538L264 274M313 765L200 765L332 921L418 921L550 765L437 765L375 850L313 765Z"  horiz-adv-x="751" vert-adv-y="1000"  />

      
      <glyph glyph-name="uni1EA4" unicode="&#x1EA4;" d="M608 0L541 156L213 156L146 0L-11 0L313 705L438 705L762 0L608 0M264 274L490 274L377 538L264 274M543 872L469 872L541 1013L666 1013L543 872M311 765L200 765L332 904L418 904L550 765L439 765L375 836L311 765Z"  horiz-adv-x="751" vert-adv-y="1000"  />

      
      <glyph glyph-name="uni1EAC" unicode="&#x1EAC;" d="M608 0L541 156L213 156L146 0L-11 0L313 705L438 705L762 0L608 0M264 274L490 274L377 538L264 274M307-67L445-67L445-199L307-199L307-67M313 765L200 765L332 921L418 921L550 765L437 765L375 850L313 765Z"  horiz-adv-x="751" vert-adv-y="1000"  />

      
      <glyph glyph-name="uni1EA6" unicode="&#x1EA6;" d="M608 0L541 156L213 156L146 0L-11 0L313 705L438 705L762 0L608 0M264 274L490 274L377 538L264 274M511 872L389 1013L514 1013L585 872L511 872M311 765L200 765L332 904L418 904L550 765L439 765L375 836L311 765Z"  horiz-adv-x="751" vert-adv-y="1000"  />

      
      <glyph glyph-name="uni1EA8" unicode="&#x1EA8;" d="M608 0L541 156L213 156L146 0L-11 0L313 705L438 705L762 0L608 0M264 274L490 274L377 538L264 274M543 873L468 873L468 892Q468 911 481 920.50Q494 930 515 938Q533 943 533 948Q533 953 525 957Q517 961 501 961Q476 961 444 950L424 1001Q469 1019 519 1019Q568 1019 596.50 1002.50Q625 986 625 959Q625 940 613 930Q601 920 578 911Q560 903 551.50 897Q543 891 543 881L543 873M311 765L200 765L332 904L418 904L550 765L439 765L375 836L311 765Z"  horiz-adv-x="751" vert-adv-y="1000"  />

      
      <glyph glyph-name="uni1EAA" unicode="&#x1EAA;" d="M608 0L541 156L213 156L146 0L-11 0L313 705L438 705L762 0L608 0M264 274L490 274L377 538L264 274M201 921Q201 966 233 996Q265 1026 310 1026Q326 1026 340.50 1022.50Q355 1019 368 1014.50Q381 1010 386 1008Q401 1002 415.50 997.50Q430 993 442 993Q481 993 484 1023L549 1023Q549 978 517.50 948.50Q486 919 440 919Q422 919 404.50 923.50Q387 928 364 937Q349 942 334.50 946.50Q320 951 308 951Q269 951 266 921L201 921M311 765L200 765L332 904L418 904L550 765L439 765L375 836L311 765Z"  horiz-adv-x="751" vert-adv-y="1000"  />

      
      <glyph glyph-name="uni0200" unicode="&#x0200;" d="M608 0L541 156L213 156L146 0L-11 0L313 705L438 705L762 0L608 0M264 274L490 274L377 538L264 274M269 765L169 921L270 921L343 765L269 765M407 765L308 921L408 921L481 765L407 765Z"  horiz-adv-x="751" vert-adv-y="1000"  />

      
      <glyph glyph-name="unic4" unicode="&#xc4;" d="M608 0L541 156L213 156L146 0L-11 0L313 705L438 705L762 0L608 0M264 274L490 274L377 538L264 274M210 909L349 909L349 778L210 778L210 909M401 909L540 909L540 778L401 778L401 909Z"  horiz-adv-x="751" vert-adv-y="1000"  />

      
      <glyph glyph-name="uni1EA0" unicode="&#x1EA0;" d="M608 0L541 156L213 156L146 0L-11 0L313 705L438 705L762 0L608 0M264 274L490 274L377 538L264 274M307-67L445-67L445-199L307-199L307-67Z"  horiz-adv-x="751" vert-adv-y="1000"  />

      
      <glyph glyph-name="unic0" unicode="&#xc0;" d="M608 0L541 156L213 156L146 0L-11 0L313 705L438 705L762 0L608 0M264 274L490 274L377 538L264 274M328 765L179 921L319 921L422 765L328 765Z"  horiz-adv-x="751" vert-adv-y="1000"  />

      
      <glyph glyph-name="uni1EA2" unicode="&#x1EA2;" d="M608 0L541 156L213 156L146 0L-11 0L313 705L438 705L762 0L608 0M264 274L490 274L377 538L264 274M412 765L338 765L338 787Q338 805 349.50 814Q361 823 381 832Q383 833 390 836.50Q397 840 400 843Q403 846 403 849Q403 866 370 866Q344 866 313 854L293 907Q338 925 388 925Q436 925 465.50 906.50Q495 888 495 861Q495 842 482.50 831Q470 820 447 810Q429 801 420.50 794.50Q412 788 412 778L412 765Z"  horiz-adv-x="751" vert-adv-y="1000"  />

      
      <glyph glyph-name="uni0202" unicode="&#x0202;" d="M608 0L541 156L213 156L146 0L-11 0L313 705L438 705L762 0L608 0M264 274L490 274L377 538L264 274M375 913Q440 913 487 885Q534 857 553 804L483 774Q453 824 375 824Q297 824 267 774L197 804Q216 857 263 885Q310 913 375 913Z"  horiz-adv-x="751" vert-adv-y="1000"  />

      
      <glyph glyph-name="uni0100" unicode="&#x0100;" d="M608 0L541 156L213 156L146 0L-11 0L313 705L438 705L762 0L608 0M264 274L490 274L377 538L264 274M218 796L218 890L532 890L532 796L218 796Z"  horiz-adv-x="751" vert-adv-y="1000"  />

      
      <glyph glyph-name="uni0104" unicode="&#x0104;" d="M767-177Q722-197 667-197Q612-197 576-166.50Q540-136 540-87Q540-55 555.50-27.50Q571 0 600 19L541 156L213 156L146 0L-11 0L313 705L438 705L762 0L711 0Q678 0 657.50-18.50Q637-37 637-65Q637-91 652-105Q667-119 696-119Q719-119 750-106L767-177M264 274L490 274L377 538L264 274Z"  horiz-adv-x="751" vert-adv-y="1000"  />

      
      <glyph glyph-name="unic5" unicode="&#xc5;" d="M541 156L213 156L146 0L-11 0L308 693Q289 708 278 730Q267 752 267 778Q267 823 298.50 854Q330 885 376 885Q422 885 454 854Q486 823 486 778Q486 752 475 729.50Q464 707 444 692L762 0L608 0L541 156M376 823Q357 823 345 810Q333 797 333 778Q333 758 345 745Q357 732 376 732Q395 732 407 745Q419 758 419 778Q419 797 407 810Q395 823 376 823M264 274L490 274L377 538L264 274Z"  horiz-adv-x="751" vert-adv-y="1000"  />

      
      <glyph glyph-name="uni01FA" unicode="&#x01FA;" d="M541 156L213 156L146 0L-11 0L308 693Q289 708 278 730Q267 752 267 778Q267 823 298.50 854Q330 885 376 885Q398 885 423 875L487 946L626 946L477 821Q486 802 486 778Q486 752 475 729.50Q464 707 444 692L762 0L608 0L541 156M376 823Q357 823 345 810Q333 797 333 778Q333 758 345 745Q357 732 376 732Q395 732 407 745Q419 758 419 778Q419 797 407 810Q395 823 376 823M264 274L490 274L377 538L264 274Z"  horiz-adv-x="751" vert-adv-y="1000"  />

      
      <glyph glyph-name="unic3" unicode="&#xc3;" d="M608 0L541 156L213 156L146 0L-11 0L313 705L438 705L762 0L608 0M264 274L490 274L377 538L264 274M201 772Q201 844 231.50 881Q262 918 310 918Q328 918 344.50 911Q361 904 386 889Q405 877 417.50 871Q430 865 442 865Q461 865 471.50 878.50Q482 892 484 915L549 915Q549 843 518.50 806Q488 769 440 769Q422 769 405.50 776Q389 783 364 798Q344 810 332 815.50Q320 821 308 821Q289 821 278.50 808Q268 795 266 772L201 772Z"  horiz-adv-x="751" vert-adv-y="1000"  />

      
      <glyph glyph-name="unic6" unicode="&#xc6;" d="M963 584L576 584L613 419L943 419L943 298L640 298L679 121L963 121L963 0L564 0L530 156L230 156L138 0L-31 0L413 705L963 705L963 584M300 274L504 274L448 524L300 274Z"  horiz-adv-x="1000" vert-adv-y="1000"  />

      
      <glyph glyph-name="uni01FC" unicode="&#x01FC;" d="M963 584L576 584L613 419L943 419L943 298L640 298L679 121L963 121L963 0L564 0L530 156L230 156L138 0L-31 0L413 705L963 705L963 584M300 274L504 274L448 524L300 274M552 765L458 765L561 921L701 921L552 765Z"  horiz-adv-x="1000" vert-adv-y="1000"  />

      
      <glyph glyph-name="uni42" unicode="&#x42;" d="M523 365Q584 347 617.50 302.50Q651 258 651 193Q651 104 585.50 52Q520 0 405 0L70 0L70 705L395 705Q505 705 569.50 656Q634 607 634 522Q634 467 604.50 425.50Q575 384 523 365M222 418L369 418Q429 418 457.50 438.50Q486 459 486 501Q486 545 457.50 565.50Q429 586 369 586L222 586L222 418M387 119Q449 119 477 140Q505 161 505 208Q505 255 477 277Q449 299 387 299L222 299L222 119L387 119Z"  horiz-adv-x="689" vert-adv-y="1000"  />

      
      <glyph glyph-name="uni43" unicode="&#x43;" d="M401-9Q294-9 214.50 36Q135 81 92.50 163Q50 245 50 353Q50 461 92.50 543Q135 625 214.50 669.50Q294 714 401 714Q471 714 535 692.50Q599 671 640 633L590 522Q544 557 498.50 573Q453 589 404 589Q310 589 259.50 529Q209 469 209 353Q209 237 259.50 176.50Q310 116 404 116Q453 116 498.50 132Q544 148 590 183L640 72Q599 34 535 12.50Q471-9 401-9Z"  horiz-adv-x="678" vert-adv-y="1000"  />

      
      <glyph glyph-name="uni0106" unicode="&#x0106;" d="M401-9Q294-9 214.50 36Q135 81 92.50 163Q50 245 50 353Q50 461 92.50 543Q135 625 214.50 669.50Q294 714 401 714Q471 714 535 692.50Q599 671 640 633L590 522Q544 557 498.50 573Q453 589 404 589Q310 589 259.50 529Q209 469 209 353Q209 237 259.50 176.50Q310 116 404 116Q453 116 498.50 132Q544 148 590 183L640 72Q599 34 535 12.50Q471-9 401-9M441 765L347 765L450 921L590 921L441 765Z"  horiz-adv-x="678" vert-adv-y="1000"  />

      
      <glyph glyph-name="uni010C" unicode="&#x010C;" d="M401-9Q294-9 214.50 36Q135 81 92.50 163Q50 245 50 353Q50 461 92.50 543Q135 625 214.50 669.50Q294 714 401 714Q471 714 535 692.50Q599 671 640 633L590 522Q544 557 498.50 573Q453 589 404 589Q310 589 259.50 529Q209 469 209 353Q209 237 259.50 176.50Q310 116 404 116Q453 116 498.50 132Q544 148 590 183L640 72Q599 34 535 12.50Q471-9 401-9M456 921L569 921L437 765L351 765L219 921L332 921L394 835L456 921Z"  horiz-adv-x="678" vert-adv-y="1000"  />

      
      <glyph glyph-name="unic7" unicode="&#xc7;" d="M640 72Q602 37 544.50 16Q487-5 423-8L419-41Q423-40 431-40Q469-40 492-58.50Q515-77 515-109Q515-148 480-172.50Q445-197 380-197Q358-197 332-192.50Q306-188 286-179L298-121Q343-135 376-135Q422-135 422-109Q422-90 390-90Q372-90 354-96L334-75L343-5Q252 6 186 53.50Q120 101 85 178Q50 255 50 353Q50 461 92.50 543Q135 625 214.50 669.50Q294 714 401 714Q471 714 535 692.50Q599 671 640 633L590 522Q544 557 498.50 573Q453 589 404 589Q310 589 259.50 529Q209 469 209 353Q209 237 259.50 176.50Q310 116 404 116Q453 116 498.50 132Q544 148 590 183L640 72Z"  horiz-adv-x="678" vert-adv-y="1000"  />

      
      <glyph glyph-name="uni1E08" unicode="&#x1E08;" d="M590 921L441 765L347 765L450 921L590 921M640 72Q602 37 544.50 16Q487-5 423-8L419-41Q423-40 431-40Q469-40 492-58.50Q515-77 515-109Q515-148 480-172.50Q445-197 380-197Q358-197 332-192.50Q306-188 286-179L298-121Q343-135 376-135Q422-135 422-109Q422-90 390-90Q372-90 354-96L334-75L343-5Q252 6 186 53.50Q120 101 85 178Q50 255 50 353Q50 461 92.50 543Q135 625 214.50 669.50Q294 714 401 714Q471 714 535 692.50Q599 671 640 633L590 522Q544 557 498.50 573Q453 589 404 589Q310 589 259.50 529Q209 469 209 353Q209 237 259.50 176.50Q310 116 404 116Q453 116 498.50 132Q544 148 590 183L640 72Z"  horiz-adv-x="678" vert-adv-y="1000"  />

      
      <glyph glyph-name="uni0108" unicode="&#x0108;" d="M401-9Q294-9 214.50 36Q135 81 92.50 163Q50 245 50 353Q50 461 92.50 543Q135 625 214.50 669.50Q294 714 401 714Q471 714 535 692.50Q599 671 640 633L590 522Q544 557 498.50 573Q453 589 404 589Q310 589 259.50 529Q209 469 209 353Q209 237 259.50 176.50Q310 116 404 116Q453 116 498.50 132Q544 148 590 183L640 72Q599 34 535 12.50Q471-9 401-9M332 765L219 765L351 921L437 921L569 765L456 765L394 850L332 765Z"  horiz-adv-x="678" vert-adv-y="1000"  />

      
      <glyph glyph-name="uni010A" unicode="&#x010A;" d="M401-9Q294-9 214.50 36Q135 81 92.50 163Q50 245 50 353Q50 461 92.50 543Q135 625 214.50 669.50Q294 714 401 714Q471 714 535 692.50Q599 671 640 633L590 522Q544 557 498.50 573Q453 589 404 589Q310 589 259.50 529Q209 469 209 353Q209 237 259.50 176.50Q310 116 404 116Q453 116 498.50 132Q544 148 590 183L640 72Q599 34 535 12.50Q471-9 401-9M313 914L475 914L475 773L313 773L313 914Z"  horiz-adv-x="678" vert-adv-y="1000"  />

      
      <glyph glyph-name="uni44" unicode="&#x44;" d="M70 705L344 705Q459 705 542 663Q625 621 669 542Q713 463 713 353Q713 243 669.50 163.50Q626 84 543 42Q460 0 344 0L70 0L70 705M333 126Q558 126 558 353Q558 579 333 579L226 579L226 126L333 126Z"  horiz-adv-x="763" vert-adv-y="1000"  />

      
      <glyph glyph-name="uni01C4" unicode="&#x01C4;" d="M70 705L344 705Q459 705 542 663Q625 621 669 542Q713 463 713 353Q713 243 669.50 163.50Q626 84 543 42Q460 0 344 0L70 0L70 705M333 126Q558 126 558 353Q558 579 333 579L226 579L226 126L333 126M971 123L1322 123L1322 0L798 0L798 114L1136 582L798 582L798 705L1312 705L1312 593L971 123M1116 921L1229 921L1097 765L1011 765L879 921L992 921L1054 835L1116 921Z"  horiz-adv-x="1358" vert-adv-y="1000"  />

      
      <glyph glyph-name="unid0" unicode="&#xd0;" d="M373 705Q489 705 572 663Q655 621 699 542Q743 463 743 353Q743 243 699.50 163.50Q656 84 572.50 42Q489 0 373 0L100 0L100 297L15 297L15 415L100 415L100 705L373 705M363 126Q587 126 587 353Q587 467 531.50 523Q476 579 363 579L256 579L256 415L441 415L441 297L256 297L256 126L363 126Z"  horiz-adv-x="793" vert-adv-y="1000"  />

      
      <glyph glyph-name="uni010E" unicode="&#x010E;" d="M70 705L344 705Q459 705 542 663Q625 621 669 542Q713 463 713 353Q713 243 669.50 163.50Q626 84 543 42Q460 0 344 0L70 0L70 705M333 126Q558 126 558 353Q558 579 333 579L226 579L226 126L333 126M443 921L556 921L424 765L338 765L206 921L319 921L381 835L443 921Z"  horiz-adv-x="763" vert-adv-y="1000"  />

      
      <glyph glyph-name="uni0110" unicode="&#x0110;" d="M373 705Q489 705 572 663Q655 621 699 542Q743 463 743 353Q743 243 699.50 163.50Q656 84 572.50 42Q489 0 373 0L100 0L100 297L15 297L15 415L100 415L100 705L373 705M363 126Q587 126 587 353Q587 467 531.50 523Q476 579 363 579L256 579L256 415L441 415L441 297L256 297L256 126L363 126Z"  horiz-adv-x="793" vert-adv-y="1000"  />

      
      <glyph glyph-name="uni1E0C" unicode="&#x1E0C;" d="M70 705L344 705Q459 705 542 663Q625 621 669 542Q713 463 713 353Q713 243 669.50 163.50Q626 84 543 42Q460 0 344 0L70 0L70 705M333 126Q558 126 558 353Q558 579 333 579L226 579L226 126L333 126M312-67L450-67L450-199L312-199L312-67Z"  horiz-adv-x="763" vert-adv-y="1000"  />

      
      <glyph glyph-name="uni1E0E" unicode="&#x1E0E;" d="M70 705L344 705Q459 705 542 663Q625 621 669 542Q713 463 713 353Q713 243 669.50 163.50Q626 84 543 42Q460 0 344 0L70 0L70 705M333 126Q558 126 558 353Q558 579 333 579L226 579L226 126L333 126M224-177L224-89L538-89L538-177L224-177Z"  horiz-adv-x="763" vert-adv-y="1000"  />

      
      <glyph glyph-name="uni01C5" unicode="&#x01C5;" d="M70 705L344 705Q459 705 542 663Q625 621 669 542Q713 463 713 353Q713 243 669.50 163.50Q626 84 543 42Q460 0 344 0L70 0L70 705M333 126Q558 126 558 353Q558 579 333 579L226 579L226 126L333 126M986 113L1244 113L1244 0L809 0L809 105L1053 378L812 378L812 491L1234 491L1234 390L986 113M1086 760L1203 760L1073 555L983 555L853 760L970 760L1028 644L1086 760Z"  horiz-adv-x="1277" vert-adv-y="1000"  />

      
      <glyph glyph-name="uni45" unicode="&#x45;" d="M70 0L70 705L556 705L556 584L222 584L222 419L536 419L536 298L222 298L222 121L556 121L556 0L70 0Z"  horiz-adv-x="593" vert-adv-y="1000"  />

      
      <glyph glyph-name="unic9" unicode="&#xc9;" d="M70 0L70 705L556 705L556 584L222 584L222 419L536 419L536 298L222 298L222 121L556 121L556 0L70 0M378 765L284 765L387 921L527 921L378 765Z"  horiz-adv-x="593" vert-adv-y="1000"  />

      
      <glyph glyph-name="uni0114" unicode="&#x0114;" d="M70 0L70 705L556 705L556 584L222 584L222 419L536 419L536 298L222 298L222 121L556 121L556 0L70 0M331 774Q266 774 219 802Q172 830 153 883L223 912Q253 863 331 863Q409 863 439 912L509 883Q490 830 443 802Q396 774 331 774Z"  horiz-adv-x="593" vert-adv-y="1000"  />

      
      <glyph glyph-name="uni011A" unicode="&#x011A;" d="M70 0L70 705L556 705L556 584L222 584L222 419L536 419L536 298L222 298L222 121L556 121L556 0L70 0M393 921L506 921L374 765L288 765L156 921L269 921L331 835L393 921Z"  horiz-adv-x="593" vert-adv-y="1000"  />

      
      <glyph glyph-name="uni0228" unicode="&#x0228;" d="M222 584L222 419L536 419L536 298L222 298L222 121L556 121L556 0L361 0L356-41Q360-40 368-40Q406-40 429-58.50Q452-77 452-109Q452-148 417-172.50Q382-197 317-197Q295-197 269-192.50Q243-188 223-179L235-121Q280-135 313-135Q359-135 359-109Q359-90 327-90Q309-90 291-96L271-75L280 0L70 0L70 705L556 705L556 584L222 584Z"  horiz-adv-x="593" vert-adv-y="1000"  />

      
      <glyph glyph-name="uni1E1C" unicode="&#x1E1C;" d="M331 774Q266 774 219 802Q172 830 153 883L223 912Q253 863 331 863Q409 863 439 912L509 883Q490 830 443 802Q396 774 331 774M222 584L222 419L536 419L536 298L222 298L222 121L556 121L556 0L361 0L356-41Q360-40 368-40Q406-40 429-58.50Q452-77 452-109Q452-148 417-172.50Q382-197 317-197Q295-197 269-192.50Q243-188 223-179L235-121Q280-135 313-135Q359-135 359-109Q359-90 327-90Q309-90 291-96L271-75L280 0L70 0L70 705L556 705L556 584L222 584Z"  horiz-adv-x="593" vert-adv-y="1000"  />

      
      <glyph glyph-name="unica" unicode="&#xca;" d="M70 0L70 705L556 705L556 584L222 584L222 419L536 419L536 298L222 298L222 121L556 121L556 0L70 0M269 765L156 765L288 921L374 921L506 765L393 765L331 850L269 765Z"  horiz-adv-x="593" vert-adv-y="1000"  />

      
      <glyph glyph-name="uni1EBE" unicode="&#x1EBE;" d="M70 0L70 705L556 705L556 584L222 584L222 419L536 419L536 298L222 298L222 121L556 121L556 0L70 0M499 872L425 872L497 1013L622 1013L499 872M267 765L156 765L288 904L374 904L506 765L395 765L331 836L267 765Z"  horiz-adv-x="593" vert-adv-y="1000"  />

      
      <glyph glyph-name="uni1EC6" unicode="&#x1EC6;" d="M70 0L70 705L556 705L556 584L222 584L222 419L536 419L536 298L222 298L222 121L556 121L556 0L70 0M262-67L400-67L400-199L262-199L262-67M269 765L156 765L288 921L374 921L506 765L393 765L331 850L269 765Z"  horiz-adv-x="593" vert-adv-y="1000"  />

      
      <glyph glyph-name="uni1EC0" unicode="&#x1EC0;" d="M70 0L70 705L556 705L556 584L222 584L222 419L536 419L536 298L222 298L222 121L556 121L556 0L70 0M467 872L345 1013L470 1013L541 872L467 872M267 765L156 765L288 904L374 904L506 765L395 765L331 836L267 765Z"  horiz-adv-x="593" vert-adv-y="1000"  />

      
      <glyph glyph-name="uni1EC2" unicode="&#x1EC2;" d="M70 0L70 705L556 705L556 584L222 584L222 419L536 419L536 298L222 298L222 121L556 121L556 0L70 0M499 873L424 873L424 892Q424 911 437 920.50Q450 930 471 938Q489 943 489 948Q489 953 481 957Q473 961 457 961Q432 961 400 950L380 1001Q425 1019 475 1019Q524 1019 552.50 1002.50Q581 986 581 959Q581 940 569 930Q557 920 534 911Q516 903 507.50 897Q499 891 499 881L499 873M267 765L156 765L288 904L374 904L506 765L395 765L331 836L267 765Z"  horiz-adv-x="593" vert-adv-y="1000"  />

      
      <glyph glyph-name="uni1EC4" unicode="&#x1EC4;" d="M70 0L70 705L556 705L556 584L222 584L222 419L536 419L536 298L222 298L222 121L556 121L556 0L70 0M157 921Q157 966 189 996Q221 1026 266 1026Q282 1026 296.50 1022.50Q311 1019 324 1014.50Q337 1010 342 1008Q357 1002 371.50 997.50Q386 993 398 993Q437 993 440 1023L505 1023Q505 978 473.50 948.50Q442 919 396 919Q378 919 360.50 923.50Q343 928 320 937Q305 942 290.50 946.50Q276 951 264 951Q225 951 222 921L157 921M267 765L156 765L288 904L374 904L506 765L395 765L331 836L267 765Z"  horiz-adv-x="593" vert-adv-y="1000"  />

      
      <glyph glyph-name="uni0204" unicode="&#x0204;" d="M70 0L70 705L556 705L556 584L222 584L222 419L536 419L536 298L222 298L222 121L556 121L556 0L70 0M225 765L125 921L226 921L299 765L225 765M363 765L264 921L364 921L437 765L363 765Z"  horiz-adv-x="593" vert-adv-y="1000"  />

      
      <glyph glyph-name="unicb" unicode="&#xcb;" d="M70 0L70 705L556 705L556 584L222 584L222 419L536 419L536 298L222 298L222 121L556 121L556 0L70 0M166 909L305 909L305 778L166 778L166 909M357 909L496 909L496 778L357 778L357 909Z"  horiz-adv-x="593" vert-adv-y="1000"  />

      
      <glyph glyph-name="uni0116" unicode="&#x0116;" d="M70 0L70 705L556 705L556 584L222 584L222 419L536 419L536 298L222 298L222 121L556 121L556 0L70 0M250 914L412 914L412 773L250 773L250 914Z"  horiz-adv-x="593" vert-adv-y="1000"  />

      
      <glyph glyph-name="uni1EB8" unicode="&#x1EB8;" d="M70 0L70 705L556 705L556 584L222 584L222 419L536 419L536 298L222 298L222 121L556 121L556 0L70 0M262-67L400-67L400-199L262-199L262-67Z"  horiz-adv-x="593" vert-adv-y="1000"  />

      
      <glyph glyph-name="unic8" unicode="&#xc8;" d="M70 0L70 705L556 705L556 584L222 584L222 419L536 419L536 298L222 298L222 121L556 121L556 0L70 0M284 765L135 921L275 921L378 765L284 765Z"  horiz-adv-x="593" vert-adv-y="1000"  />

      
      <glyph glyph-name="uni1EBA" unicode="&#x1EBA;" d="M70 0L70 705L556 705L556 584L222 584L222 419L536 419L536 298L222 298L222 121L556 121L556 0L70 0M368 765L294 765L294 787Q294 805 305.50 814Q317 823 337 832Q339 833 346 836.50Q353 840 356 843Q359 846 359 849Q359 866 326 866Q300 866 269 854L249 907Q294 925 344 925Q392 925 421.50 906.50Q451 888 451 861Q451 842 438.50 831Q426 820 403 810Q385 801 376.50 794.50Q368 788 368 778L368 765Z"  horiz-adv-x="593" vert-adv-y="1000"  />

      
      <glyph glyph-name="uni0206" unicode="&#x0206;" d="M70 0L70 705L556 705L556 584L222 584L222 419L536 419L536 298L222 298L222 121L556 121L556 0L70 0M331 913Q396 913 443 885Q490 857 509 804L439 774Q409 824 331 824Q253 824 223 774L153 804Q172 857 219 885Q266 913 331 913Z"  horiz-adv-x="593" vert-adv-y="1000"  />

      
      <glyph glyph-name="uni0112" unicode="&#x0112;" d="M70 0L70 705L556 705L556 584L222 584L222 419L536 419L536 298L222 298L222 121L556 121L556 0L70 0M174 796L174 890L488 890L488 796L174 796Z"  horiz-adv-x="593" vert-adv-y="1000"  />

      
      <glyph glyph-name="uni1E16" unicode="&#x1E16;" d="M70 0L70 705L556 705L556 584L222 584L222 419L536 419L536 298L222 298L222 121L556 121L556 0L70 0M174 796L174 890L488 890L488 796L174 796M378 925L284 925L387 1081L527 1081L378 925Z"  horiz-adv-x="593" vert-adv-y="1000"  />

      
      <glyph glyph-name="uni1E14" unicode="&#x1E14;" d="M70 0L70 705L556 705L556 584L222 584L222 419L536 419L536 298L222 298L222 121L556 121L556 0L70 0M174 796L174 890L488 890L488 796L174 796M284 925L135 1081L275 1081L378 925L284 925Z"  horiz-adv-x="593" vert-adv-y="1000"  />

      
      <glyph glyph-name="uni0118" unicode="&#x0118;" d="M595-177Q550-197 495-197Q439-197 403.50-166Q368-135 368-87Q368-35 406 0L70 0L70 705L556 705L556 584L222 584L222 419L536 419L536 298L222 298L222 121L556 121L556 0L535 0Q503 0 483.50-18Q464-36 464-65Q464-91 479.50-105Q495-119 524-119Q547-119 578-106L595-177Z"  horiz-adv-x="593" vert-adv-y="1000"  />

      
      <glyph glyph-name="uni1EBC" unicode="&#x1EBC;" d="M70 0L70 705L556 705L556 584L222 584L222 419L536 419L536 298L222 298L222 121L556 121L556 0L70 0M157 772Q157 844 187.50 881Q218 918 266 918Q284 918 300.50 911Q317 904 342 889Q361 877 373.50 871Q386 865 398 865Q417 865 427.50 878.50Q438 892 440 915L505 915Q505 843 474.50 806Q444 769 396 769Q378 769 361.50 776Q345 783 320 798Q300 810 288 815.50Q276 821 264 821Q245 821 234.50 808Q224 795 222 772L157 772Z"  horiz-adv-x="593" vert-adv-y="1000"  />

      
      <glyph glyph-name="uni46" unicode="&#x46;" d="M70 0L70 705L546 705L546 582L224 582L224 420L526 420L526 297L224 297L224 0L70 0Z"  horiz-adv-x="572" vert-adv-y="1000"  />

      
      <glyph glyph-name="uni47" unicode="&#x47;" d="M676 389L676 44Q625 19 556 5Q487-9 414-9Q302-9 220 34.50Q138 78 94 159.50Q50 241 50 353Q50 463 93.50 544.50Q137 626 218 670Q299 714 407 714Q483 714 548.50 693Q614 672 657 635L608 524Q559 559 512.50 574.50Q466 590 412 590Q208 590 208 353Q208 231 261 171Q314 111 421 111Q479 111 536 126L536 281L398 281L398 389L676 389Z"  horiz-adv-x="738" vert-adv-y="1000"  />

      
      <glyph glyph-name="uni011E" unicode="&#x011E;" d="M676 389L676 44Q625 19 556 5Q487-9 414-9Q302-9 220 34.50Q138 78 94 159.50Q50 241 50 353Q50 463 93.50 544.50Q137 626 218 670Q299 714 407 714Q483 714 548.50 693Q614 672 657 635L608 524Q559 559 512.50 574.50Q466 590 412 590Q208 590 208 353Q208 231 261 171Q314 111 421 111Q479 111 536 126L536 281L398 281L398 389L676 389M407 774Q342 774 295 802Q248 830 229 883L299 912Q329 863 407 863Q485 863 515 912L585 883Q566 830 519 802Q472 774 407 774Z"  horiz-adv-x="738" vert-adv-y="1000"  />

      
      <glyph glyph-name="uni01E6" unicode="&#x01E6;" d="M676 389L676 44Q625 19 556 5Q487-9 414-9Q302-9 220 34.50Q138 78 94 159.50Q50 241 50 353Q50 463 93.50 544.50Q137 626 218 670Q299 714 407 714Q483 714 548.50 693Q614 672 657 635L608 524Q559 559 512.50 574.50Q466 590 412 590Q208 590 208 353Q208 231 261 171Q314 111 421 111Q479 111 536 126L536 281L398 281L398 389L676 389M469 921L582 921L450 765L364 765L232 921L345 921L407 835L469 921Z"  horiz-adv-x="738" vert-adv-y="1000"  />

      
      <glyph glyph-name="uni011C" unicode="&#x011C;" d="M676 389L676 44Q625 19 556 5Q487-9 414-9Q302-9 220 34.50Q138 78 94 159.50Q50 241 50 353Q50 463 93.50 544.50Q137 626 218 670Q299 714 407 714Q483 714 548.50 693Q614 672 657 635L608 524Q559 559 512.50 574.50Q466 590 412 590Q208 590 208 353Q208 231 261 171Q314 111 421 111Q479 111 536 126L536 281L398 281L398 389L676 389M345 765L232 765L364 921L450 921L582 765L469 765L407 850L345 765Z"  horiz-adv-x="738" vert-adv-y="1000"  />

      
      <glyph glyph-name="uni0122" unicode="&#x0122;" d="M676 389L676 44Q625 19 556 5Q487-9 414-9Q302-9 220 34.50Q138 78 94 159.50Q50 241 50 353Q50 463 93.50 544.50Q137 626 218 670Q299 714 407 714Q483 714 548.50 693Q614 672 657 635L608 524Q559 559 512.50 574.50Q466 590 412 590Q208 590 208 353Q208 231 261 171Q314 111 421 111Q479 111 536 126L536 281L398 281L398 389L676 389M488-65L488-130Q488-176 474.50-211Q461-246 428-275L374-238Q403-211 409-179L339-179L339-65L488-65Z"  horiz-adv-x="738" vert-adv-y="1000"  />

      
      <glyph glyph-name="uni0120" unicode="&#x0120;" d="M676 389L676 44Q625 19 556 5Q487-9 414-9Q302-9 220 34.50Q138 78 94 159.50Q50 241 50 353Q50 463 93.50 544.50Q137 626 218 670Q299 714 407 714Q483 714 548.50 693Q614 672 657 635L608 524Q559 559 512.50 574.50Q466 590 412 590Q208 590 208 353Q208 231 261 171Q314 111 421 111Q479 111 536 126L536 281L398 281L398 389L676 389M326 914L488 914L488 773L326 773L326 914Z"  horiz-adv-x="738" vert-adv-y="1000"  />

      
      <glyph glyph-name="uni1E20" unicode="&#x1E20;" d="M676 389L676 44Q625 19 556 5Q487-9 414-9Q302-9 220 34.50Q138 78 94 159.50Q50 241 50 353Q50 463 93.50 544.50Q137 626 218 670Q299 714 407 714Q483 714 548.50 693Q614 672 657 635L608 524Q559 559 512.50 574.50Q466 590 412 590Q208 590 208 353Q208 231 261 171Q314 111 421 111Q479 111 536 126L536 281L398 281L398 389L676 389M250 796L250 890L564 890L564 796L250 796Z"  horiz-adv-x="738" vert-adv-y="1000"  />

      
      <glyph glyph-name="uni48" unicode="&#x48;" d="M548 705L701 705L701 0L548 0L548 296L223 296L223 0L70 0L70 705L223 705L223 420L548 420L548 705Z"  horiz-adv-x="771" vert-adv-y="1000"  />

      
      <glyph glyph-name="uni0126" unicode="&#x0126;" d="M816 622L816 508L731 508L731 0L578 0L578 296L253 296L253 0L100 0L100 508L15 508L15 622L100 622L100 705L253 705L253 622L578 622L578 705L731 705L731 622L816 622M578 420L578 508L253 508L253 420L578 420Z"  horiz-adv-x="831" vert-adv-y="1000"  />

      
      <glyph glyph-name="uni1E2A" unicode="&#x1E2A;" d="M548 705L701 705L701 0L548 0L548 296L223 296L223 0L70 0L70 705L223 705L223 420L548 420L548 705M386-227Q321-227 269.50-190Q218-153 200-82L270-53Q313-132 386-132Q459-132 502-53L572-82Q554-153 502.50-190Q451-227 386-227Z"  horiz-adv-x="771" vert-adv-y="1000"  />

      
      <glyph glyph-name="uni0124" unicode="&#x0124;" d="M548 705L701 705L701 0L548 0L548 296L223 296L223 0L70 0L70 705L223 705L223 420L548 420L548 705M324 765L211 765L343 921L429 921L561 765L448 765L386 850L324 765Z"  horiz-adv-x="771" vert-adv-y="1000"  />

      
      <glyph glyph-name="uni1E24" unicode="&#x1E24;" d="M548 705L701 705L701 0L548 0L548 296L223 296L223 0L70 0L70 705L223 705L223 420L548 420L548 705M317-67L455-67L455-199L317-199L317-67Z"  horiz-adv-x="771" vert-adv-y="1000"  />

      
      <glyph glyph-name="uni49" unicode="&#x49;" d="M70 0L70 705L226 705L226 0L70 0Z"  horiz-adv-x="296" vert-adv-y="1000"  />

      
      <glyph glyph-name="unicd" unicode="&#xcd;" d="M70 0L70 705L226 705L226 0L70 0M195 765L101 765L204 921L344 921L195 765Z"  horiz-adv-x="296" vert-adv-y="1000"  />

      
      <glyph glyph-name="uni012C" unicode="&#x012C;" d="M70 0L70 705L226 705L226 0L70 0M148 774Q83 774 36 802Q-11 830-30 883L40 912Q70 863 148 863Q226 863 256 912L326 883Q307 830 260 802Q213 774 148 774Z"  horiz-adv-x="296" vert-adv-y="1000"  />

      
      <glyph glyph-name="unice" unicode="&#xce;" d="M70 0L70 705L226 705L226 0L70 0M86 765L-27 765L105 921L191 921L323 765L210 765L148 850L86 765Z"  horiz-adv-x="296" vert-adv-y="1000"  />

      
      <glyph glyph-name="uni0208" unicode="&#x0208;" d="M70 0L70 705L226 705L226 0L70 0M42 765L-58 921L43 921L116 765L42 765M180 765L81 921L181 921L254 765L180 765Z"  horiz-adv-x="296" vert-adv-y="1000"  />

      
      <glyph glyph-name="unicf" unicode="&#xcf;" d="M70 0L70 705L226 705L226 0L70 0M-17 909L122 909L122 778L-17 778L-17 909M174 909L313 909L313 778L174 778L174 909Z"  horiz-adv-x="296" vert-adv-y="1000"  />

      
      <glyph glyph-name="uni1E2E" unicode="&#x1E2E;" d="M70 0L70 705L226 705L226 0L70 0M-17 909L122 909L122 778L-17 778L-17 909M174 909L313 909L313 778L174 778L174 909M195 925L101 925L204 1081L344 1081L195 925Z"  horiz-adv-x="296" vert-adv-y="1000"  />

      
      <glyph glyph-name="uni0130" unicode="&#x0130;" d="M70 0L70 705L226 705L226 0L70 0M67 914L229 914L229 773L67 773L67 914Z"  horiz-adv-x="296" vert-adv-y="1000"  />

      
      <glyph glyph-name="uni1ECA" unicode="&#x1ECA;" d="M70 0L70 705L226 705L226 0L70 0M79-67L217-67L217-199L79-199L79-67Z"  horiz-adv-x="296" vert-adv-y="1000"  />

      
      <glyph glyph-name="unicc" unicode="&#xcc;" d="M70 0L70 705L226 705L226 0L70 0M101 765L-48 921L92 921L195 765L101 765Z"  horiz-adv-x="296" vert-adv-y="1000"  />

      
      <glyph glyph-name="uni1EC8" unicode="&#x1EC8;" d="M70 0L70 705L226 705L226 0L70 0M185 765L111 765L111 787Q111 805 122.50 814Q134 823 154 832Q156 833 163 836.50Q170 840 173 843Q176 846 176 849Q176 866 143 866Q117 866 86 854L66 907Q111 925 161 925Q209 925 238.50 906.50Q268 888 268 861Q268 842 255.50 831Q243 820 220 810Q202 801 193.50 794.50Q185 788 185 778L185 765Z"  horiz-adv-x="296" vert-adv-y="1000"  />

      
      <glyph glyph-name="uni020A" unicode="&#x020A;" d="M70 0L70 705L226 705L226 0L70 0M148 913Q213 913 260 885Q307 857 326 804L256 774Q226 824 148 824Q70 824 40 774L-30 804Q-11 857 36 885Q83 913 148 913Z"  horiz-adv-x="296" vert-adv-y="1000"  />

      
      <glyph glyph-name="uni012A" unicode="&#x012A;" d="M70 0L70 705L226 705L226 0L70 0M-9 796L-9 890L305 890L305 796L-9 796Z"  horiz-adv-x="296" vert-adv-y="1000"  />

      
      <glyph glyph-name="uni012E" unicode="&#x012E;" d="M259-177Q213-197 159-197Q104-197 67.50-166.50Q31-136 31-85Q31-34 70 2L70 705L226 705L226 0L211 0Q173 0 150.50-18.50Q128-37 128-65Q128-91 143-105Q158-119 187-119Q211-119 242-106L259-177Z"  horiz-adv-x="296" vert-adv-y="1000"  />

      
      <glyph glyph-name="uni0128" unicode="&#x0128;" d="M70 0L70 705L226 705L226 0L70 0M-26 772Q-26 844 4.50 881Q35 918 83 918Q101 918 117.50 911Q134 904 159 889Q178 877 190.50 871Q203 865 215 865Q234 865 244.50 878.50Q255 892 257 915L322 915Q322 843 291.50 806Q261 769 213 769Q195 769 178.50 776Q162 783 137 798Q117 810 105 815.50Q93 821 81 821Q62 821 51.50 808Q41 795 39 772L-26 772Z"  horiz-adv-x="296" vert-adv-y="1000"  />

      
      <glyph glyph-name="uni4a" unicode="&#x4a;" d="M-4 115L72 120Q112 122 131 142.50Q150 163 150 204L150 705L307 705L307 206Q307 7 98-5L5-10L-4 115Z"  horiz-adv-x="377" vert-adv-y="1000"  />

      
      <glyph glyph-name="uni0134" unicode="&#x0134;" d="M-4 115L72 120Q112 122 131 142.50Q150 163 150 204L150 705L307 705L307 206Q307 7 98-5L5-10L-4 115M167 765L54 765L186 921L272 921L404 765L291 765L229 850L167 765Z"  horiz-adv-x="377" vert-adv-y="1000"  />

      
      <glyph glyph-name="uni4b" unicode="&#x4b;" d="M719 0L532 0L226 325L226 0L70 0L70 705L226 705L226 395L522 705L706 705L378 368L719 0Z"  horiz-adv-x="678" vert-adv-y="1000"  />

      
      <glyph glyph-name="uni0136" unicode="&#x0136;" d="M719 0L532 0L226 325L226 0L70 0L70 705L226 705L226 395L522 705L706 705L378 368L719 0M415-65L415-130Q415-176 401.50-211Q388-246 355-275L301-238Q330-211 336-179L266-179L266-65L415-65Z"  horiz-adv-x="678" vert-adv-y="1000"  />

      
      <glyph glyph-name="uni4c" unicode="&#x4c;" d="M70 0L70 705L226 705L226 127L541 127L541 0L70 0Z"  horiz-adv-x="563" vert-adv-y="1000"  />

      
      <glyph glyph-name="uni01C7" unicode="&#x01C7;" d="M70 0L70 705L226 705L226 127L511 127L511 0L70 0M562 115L638 120Q679 122 698 142.50Q717 163 717 203L717 705L873 705L873 205Q873 7 664-5L572-10L562 115Z"  horiz-adv-x="943" vert-adv-y="1000"  />

      
      <glyph glyph-name="uni0139" unicode="&#x0139;" d="M70 0L70 705L226 705L226 127L541 127L541 0L70 0M195 765L101 765L204 921L344 921L195 765Z"  horiz-adv-x="563" vert-adv-y="1000"  />

      
      <glyph glyph-name="uni013D" unicode="&#x013D;" d="M70 0L70 705L226 705L226 127L541 127L541 0L70 0M384 511L313 511L313 705L410 705L384 511Z"  horiz-adv-x="563" vert-adv-y="1000"  />

      
      <glyph glyph-name="uni013B" unicode="&#x013B;" d="M70 0L70 705L226 705L226 127L541 127L541 0L70 0M387-65L387-130Q387-176 373.50-211Q360-246 327-275L273-238Q302-211 308-179L238-179L238-65L387-65Z"  horiz-adv-x="563" vert-adv-y="1000"  />

      
      <glyph glyph-name="uni013F" unicode="&#x013F;" d="M70 0L70 705L226 705L226 127L541 127L541 0L70 0M310 423L472 423L472 283L310 283L310 423Z"  horiz-adv-x="563" vert-adv-y="1000"  />

      
      <glyph glyph-name="uni1E36" unicode="&#x1E36;" d="M70 0L70 705L226 705L226 127L541 127L541 0L70 0M244-67L382-67L382-199L244-199L244-67Z"  horiz-adv-x="563" vert-adv-y="1000"  />

      
      <glyph glyph-name="uni01C8" unicode="&#x01C8;" d="M70 0L70 705L226 705L226 127L541 127L541 0L70 0M772 32Q772-43 750-88Q728-133 679.50-155.50Q631-178 548-183L501-186L490-78L541-74Q584-71 602.50-53Q621-35 621 4L621 491L772 491L772 32M615 727L777 727L777 586L615 586L615 727Z"  horiz-adv-x="830" vert-adv-y="1000"  />

      
      <glyph glyph-name="uni1E3A" unicode="&#x1E3A;" d="M70 0L70 705L226 705L226 127L541 127L541 0L70 0M156-177L156-89L470-89L470-177L156-177Z"  horiz-adv-x="563" vert-adv-y="1000"  />

      
      <glyph glyph-name="uni0141" unicode="&#x0141;" d="M256 127L571 127L571 0L100 0L100 244L41 210L-15 311L100 377L100 705L256 705L256 467L408 555L464 454L256 334L256 127Z"  horiz-adv-x="593" vert-adv-y="1000"  />

      
      <glyph glyph-name="uni4d" unicode="&#x4d;" d="M649 705L770 705L770 0L633 0L633 418L471 116L371 116L209 414L209 0L72 0L72 705L195 705L422 274L649 705Z"  horiz-adv-x="842" vert-adv-y="1000"  />

      
      <glyph glyph-name="uni1E42" unicode="&#x1E42;" d="M649 705L770 705L770 0L633 0L633 418L471 116L371 116L209 414L209 0L72 0L72 705L195 705L422 274L649 705M352-67L490-67L490-199L352-199L352-67Z"  horiz-adv-x="842" vert-adv-y="1000"  />

      
      <glyph glyph-name="uni4e" unicode="&#x4e;" d="M536 705L682 705L682 0L566 0L215 449L215 0L70 0L70 705L185 705L536 258L536 705Z"  horiz-adv-x="752" vert-adv-y="1000"  />

      
      <glyph glyph-name="uni01CA" unicode="&#x01CA;" d="M536 705L682 705L682 0L566 0L215 449L215 0L70 0L70 705L185 705L536 258L536 705M748 115L824 120Q864 122 883 142.50Q902 163 902 204L902 705L1059 705L1059 206Q1059 7 850-5L757-10L748 115Z"  horiz-adv-x="1129" vert-adv-y="1000"  />

      
      <glyph glyph-name="uni0143" unicode="&#x0143;" d="M536 705L682 705L682 0L566 0L215 449L215 0L70 0L70 705L185 705L536 258L536 705M423 765L329 765L432 921L572 921L423 765Z"  horiz-adv-x="752" vert-adv-y="1000"  />

      
      <glyph glyph-name="uni0147" unicode="&#x0147;" d="M536 705L682 705L682 0L566 0L215 449L215 0L70 0L70 705L185 705L536 258L536 705M438 921L551 921L419 765L333 765L201 921L314 921L376 835L438 921Z"  horiz-adv-x="752" vert-adv-y="1000"  />

      
      <glyph glyph-name="uni0145" unicode="&#x0145;" d="M536 705L682 705L682 0L566 0L215 449L215 0L70 0L70 705L185 705L536 258L536 705M451-65L451-130Q451-176 437.50-211Q424-246 391-275L337-238Q366-211 372-179L302-179L302-65L451-65Z"  horiz-adv-x="752" vert-adv-y="1000"  />

      
      <glyph glyph-name="uni1E44" unicode="&#x1E44;" d="M536 705L682 705L682 0L566 0L215 449L215 0L70 0L70 705L185 705L536 258L536 705M295 914L457 914L457 773L295 773L295 914Z"  horiz-adv-x="752" vert-adv-y="1000"  />

      
      <glyph glyph-name="uni1E46" unicode="&#x1E46;" d="M536 705L682 705L682 0L566 0L215 449L215 0L70 0L70 705L185 705L536 258L536 705M308-67L446-67L446-199L308-199L308-67Z"  horiz-adv-x="752" vert-adv-y="1000"  />

      
      <glyph glyph-name="uni014A" unicode="&#x014A;" d="M682 705L682 28Q682-171 472-183L380-188L371-71L446-66Q488-63 511.50-40Q535-17 535 22L535 40L215 449L215 0L70 0L70 705L185 705L536 258L536 705L682 705Z"  horiz-adv-x="752" vert-adv-y="1000"  />

      
      <glyph glyph-name="uni01CB" unicode="&#x01CB;" d="M536 705L682 705L682 0L566 0L215 449L215 0L70 0L70 705L185 705L536 258L536 705M961 32Q961-43 939-88Q917-133 868.50-155.50Q820-178 737-183L690-186L679-78L730-74Q773-71 791.50-53Q810-35 810 4L810 491L961 491L961 32M804 727L966 727L966 586L804 586L804 727Z"  horiz-adv-x="1019" vert-adv-y="1000"  />

      
      <glyph glyph-name="uni1E48" unicode="&#x1E48;" d="M536 705L682 705L682 0L566 0L215 449L215 0L70 0L70 705L185 705L536 258L536 705M220-177L220-89L534-89L534-177L220-177Z"  horiz-adv-x="752" vert-adv-y="1000"  />

      
      <glyph glyph-name="unid1" unicode="&#xd1;" d="M536 705L682 705L682 0L566 0L215 449L215 0L70 0L70 705L185 705L536 258L536 705M202 772Q202 844 232.50 881Q263 918 311 918Q329 918 345.50 911Q362 904 387 889Q406 877 418.50 871Q431 865 443 865Q462 865 472.50 878.50Q483 892 485 915L550 915Q550 843 519.50 806Q489 769 441 769Q423 769 406.50 776Q390 783 365 798Q345 810 333 815.50Q321 821 309 821Q290 821 279.50 808Q269 795 267 772L202 772Z"  horiz-adv-x="752" vert-adv-y="1000"  />

      
      <glyph glyph-name="uni4f" unicode="&#x4f;" d="M394-9Q289-9 211.50 35.50Q134 80 92 161.50Q50 243 50 353Q50 463 92 544.50Q134 626 211.50 670Q289 714 394 714Q499 714 576.50 670Q654 626 696 544.50Q738 463 738 353Q738 243 696 161.50Q654 80 576.50 35.50Q499-9 394-9M394 112Q482 112 532.50 174Q583 236 583 353Q583 470 533 531.50Q483 593 394 593Q305 593 255.50 531.50Q206 470 206 353Q206 236 256 174Q306 112 394 112Z"  horiz-adv-x="787" vert-adv-y="1000"  />

      
      <glyph glyph-name="unid3" unicode="&#xd3;" d="M394-9Q289-9 211.50 35.50Q134 80 92 161.50Q50 243 50 353Q50 463 92 544.50Q134 626 211.50 670Q289 714 394 714Q499 714 576.50 670Q654 626 696 544.50Q738 463 738 353Q738 243 696 161.50Q654 80 576.50 35.50Q499-9 394-9M394 112Q482 112 532.50 174Q583 236 583 353Q583 470 533 531.50Q483 593 394 593Q305 593 255.50 531.50Q206 470 206 353Q206 236 256 174Q306 112 394 112M440 765L346 765L449 921L589 921L440 765Z"  horiz-adv-x="787" vert-adv-y="1000"  />

      
      <glyph glyph-name="uni014E" unicode="&#x014E;" d="M394-9Q289-9 211.50 35.50Q134 80 92 161.50Q50 243 50 353Q50 463 92 544.50Q134 626 211.50 670Q289 714 394 714Q499 714 576.50 670Q654 626 696 544.50Q738 463 738 353Q738 243 696 161.50Q654 80 576.50 35.50Q499-9 394-9M394 112Q482 112 532.50 174Q583 236 583 353Q583 470 533 531.50Q483 593 394 593Q305 593 255.50 531.50Q206 470 206 353Q206 236 256 174Q306 112 394 112M393 774Q328 774 281 802Q234 830 215 883L285 912Q315 863 393 863Q471 863 501 912L571 883Q552 830 505 802Q458 774 393 774Z"  horiz-adv-x="787" vert-adv-y="1000"  />

      
      <glyph glyph-name="unid4" unicode="&#xd4;" d="M394-9Q289-9 211.50 35.50Q134 80 92 161.50Q50 243 50 353Q50 463 92 544.50Q134 626 211.50 670Q289 714 394 714Q499 714 576.50 670Q654 626 696 544.50Q738 463 738 353Q738 243 696 161.50Q654 80 576.50 35.50Q499-9 394-9M394 112Q482 112 532.50 174Q583 236 583 353Q583 470 533 531.50Q483 593 394 593Q305 593 255.50 531.50Q206 470 206 353Q206 236 256 174Q306 112 394 112M331 765L218 765L350 921L436 921L568 765L455 765L393 850L331 765Z"  horiz-adv-x="787" vert-adv-y="1000"  />

      
      <glyph glyph-name="uni1ED0" unicode="&#x1ED0;" d="M394-9Q289-9 211.50 35.50Q134 80 92 161.50Q50 243 50 353Q50 463 92 544.50Q134 626 211.50 670Q289 714 394 714Q499 714 576.50 670Q654 626 696 544.50Q738 463 738 353Q738 243 696 161.50Q654 80 576.50 35.50Q499-9 394-9M394 112Q482 112 532.50 174Q583 236 583 353Q583 470 533 531.50Q483 593 394 593Q305 593 255.50 531.50Q206 470 206 353Q206 236 256 174Q306 112 394 112M561 872L487 872L559 1013L684 1013L561 872M329 765L218 765L350 904L436 904L568 765L457 765L393 836L329 765Z"  horiz-adv-x="787" vert-adv-y="1000"  />

      
      <glyph glyph-name="uni1ED8" unicode="&#x1ED8;" d="M394-9Q289-9 211.50 35.50Q134 80 92 161.50Q50 243 50 353Q50 463 92 544.50Q134 626 211.50 670Q289 714 394 714Q499 714 576.50 670Q654 626 696 544.50Q738 463 738 353Q738 243 696 161.50Q654 80 576.50 35.50Q499-9 394-9M394 112Q482 112 532.50 174Q583 236 583 353Q583 470 533 531.50Q483 593 394 593Q305 593 255.50 531.50Q206 470 206 353Q206 236 256 174Q306 112 394 112M325-67L463-67L463-199L325-199L325-67M331 765L218 765L350 921L436 921L568 765L455 765L393 850L331 765Z"  horiz-adv-x="787" vert-adv-y="1000"  />

      
      <glyph glyph-name="uni1ED2" unicode="&#x1ED2;" d="M394-9Q289-9 211.50 35.50Q134 80 92 161.50Q50 243 50 353Q50 463 92 544.50Q134 626 211.50 670Q289 714 394 714Q499 714 576.50 670Q654 626 696 544.50Q738 463 738 353Q738 243 696 161.50Q654 80 576.50 35.50Q499-9 394-9M394 112Q482 112 532.50 174Q583 236 583 353Q583 470 533 531.50Q483 593 394 593Q305 593 255.50 531.50Q206 470 206 353Q206 236 256 174Q306 112 394 112M529 872L407 1013L532 1013L603 872L529 872M329 765L218 765L350 904L436 904L568 765L457 765L393 836L329 765Z"  horiz-adv-x="787" vert-adv-y="1000"  />

      
      <glyph glyph-name="uni1ED4" unicode="&#x1ED4;" d="M394-9Q289-9 211.50 35.50Q134 80 92 161.50Q50 243 50 353Q50 463 92 544.50Q134 626 211.50 670Q289 714 394 714Q499 714 576.50 670Q654 626 696 544.50Q738 463 738 353Q738 243 696 161.50Q654 80 576.50 35.50Q499-9 394-9M394 112Q482 112 532.50 174Q583 236 583 353Q583 470 533 531.50Q483 593 394 593Q305 593 255.50 531.50Q206 470 206 353Q206 236 256 174Q306 112 394 112M561 873L486 873L486 892Q486 911 499 920.50Q512 930 533 938Q551 943 551 948Q551 953 543 957Q535 961 519 961Q494 961 462 950L442 1001Q487 1019 537 1019Q586 1019 614.50 1002.50Q643 986 643 959Q643 940 631 930Q619 920 596 911Q578 903 569.50 897Q561 891 561 881L561 873M329 765L218 765L350 904L436 904L568 765L457 765L393 836L329 765Z"  horiz-adv-x="787" vert-adv-y="1000"  />

      
      <glyph glyph-name="uni1ED6" unicode="&#x1ED6;" d="M394-9Q289-9 211.50 35.50Q134 80 92 161.50Q50 243 50 353Q50 463 92 544.50Q134 626 211.50 670Q289 714 394 714Q499 714 576.50 670Q654 626 696 544.50Q738 463 738 353Q738 243 696 161.50Q654 80 576.50 35.50Q499-9 394-9M394 112Q482 112 532.50 174Q583 236 583 353Q583 470 533 531.50Q483 593 394 593Q305 593 255.50 531.50Q206 470 206 353Q206 236 256 174Q306 112 394 112M219 921Q219 966 251 996Q283 1026 328 1026Q344 1026 358.50 1022.50Q373 1019 386 1014.50Q399 1010 404 1008Q419 1002 433.50 997.50Q448 993 460 993Q499 993 502 1023L567 1023Q567 978 535.50 948.50Q504 919 458 919Q440 919 422.50 923.50Q405 928 382 937Q367 942 352.50 946.50Q338 951 326 951Q287 951 284 921L219 921M329 765L218 765L350 904L436 904L568 765L457 765L393 836L329 765Z"  horiz-adv-x="787" vert-adv-y="1000"  />

      
      <glyph glyph-name="uni020C" unicode="&#x020C;" d="M394-9Q289-9 211.50 35.50Q134 80 92 161.50Q50 243 50 353Q50 463 92 544.50Q134 626 211.50 670Q289 714 394 714Q499 714 576.50 670Q654 626 696 544.50Q738 463 738 353Q738 243 696 161.50Q654 80 576.50 35.50Q499-9 394-9M394 112Q482 112 532.50 174Q583 236 583 353Q583 470 533 531.50Q483 593 394 593Q305 593 255.50 531.50Q206 470 206 353Q206 236 256 174Q306 112 394 112M287 765L187 921L288 921L361 765L287 765M425 765L326 921L426 921L499 765L425 765Z"  horiz-adv-x="787" vert-adv-y="1000"  />

      
      <glyph glyph-name="unid6" unicode="&#xd6;" d="M394-9Q289-9 211.50 35.50Q134 80 92 161.50Q50 243 50 353Q50 463 92 544.50Q134 626 211.50 670Q289 714 394 714Q499 714 576.50 670Q654 626 696 544.50Q738 463 738 353Q738 243 696 161.50Q654 80 576.50 35.50Q499-9 394-9M394 112Q482 112 532.50 174Q583 236 583 353Q583 470 533 531.50Q483 593 394 593Q305 593 255.50 531.50Q206 470 206 353Q206 236 256 174Q306 112 394 112M228 909L367 909L367 778L228 778L228 909M419 909L558 909L558 778L419 778L419 909Z"  horiz-adv-x="787" vert-adv-y="1000"  />

      
      <glyph glyph-name="uni022A" unicode="&#x022A;" d="M394-9Q289-9 211.50 35.50Q134 80 92 161.50Q50 243 50 353Q50 463 92 544.50Q134 626 211.50 670Q289 714 394 714Q499 714 576.50 670Q654 626 696 544.50Q738 463 738 353Q738 243 696 161.50Q654 80 576.50 35.50Q499-9 394-9M394 112Q482 112 532.50 174Q583 236 583 353Q583 470 533 531.50Q483 593 394 593Q305 593 255.50 531.50Q206 470 206 353Q206 236 256 174Q306 112 394 112M228 909L367 909L367 778L228 778L228 909M419 909L558 909L558 778L419 778L419 909M236 956L236 1050L550 1050L550 956L236 956Z"  horiz-adv-x="787" vert-adv-y="1000"  />

      
      <glyph glyph-name="uni0230" unicode="&#x0230;" d="M394-9Q289-9 211.50 35.50Q134 80 92 161.50Q50 243 50 353Q50 463 92 544.50Q134 626 211.50 670Q289 714 394 714Q499 714 576.50 670Q654 626 696 544.50Q738 463 738 353Q738 243 696 161.50Q654 80 576.50 35.50Q499-9 394-9M394 112Q482 112 532.50 174Q583 236 583 353Q583 470 533 531.50Q483 593 394 593Q305 593 255.50 531.50Q206 470 206 353Q206 236 256 174Q306 112 394 112M312 914L474 914L474 773L312 773L312 914M236 956L236 1050L550 1050L550 956L236 956Z"  horiz-adv-x="787" vert-adv-y="1000"  />

      
      <glyph glyph-name="uni1ECC" unicode="&#x1ECC;" d="M394-9Q289-9 211.50 35.50Q134 80 92 161.50Q50 243 50 353Q50 463 92 544.50Q134 626 211.50 670Q289 714 394 714Q499 714 576.50 670Q654 626 696 544.50Q738 463 738 353Q738 243 696 161.50Q654 80 576.50 35.50Q499-9 394-9M394 112Q482 112 532.50 174Q583 236 583 353Q583 470 533 531.50Q483 593 394 593Q305 593 255.50 531.50Q206 470 206 353Q206 236 256 174Q306 112 394 112M325-67L463-67L463-199L325-199L325-67Z"  horiz-adv-x="787" vert-adv-y="1000"  />

      
      <glyph glyph-name="unid2" unicode="&#xd2;" d="M394-9Q289-9 211.50 35.50Q134 80 92 161.50Q50 243 50 353Q50 463 92 544.50Q134 626 211.50 670Q289 714 394 714Q499 714 576.50 670Q654 626 696 544.50Q738 463 738 353Q738 243 696 161.50Q654 80 576.50 35.50Q499-9 394-9M394 112Q482 112 532.50 174Q583 236 583 353Q583 470 533 531.50Q483 593 394 593Q305 593 255.50 531.50Q206 470 206 353Q206 236 256 174Q306 112 394 112M346 765L197 921L337 921L440 765L346 765Z"  horiz-adv-x="787" vert-adv-y="1000"  />

      
      <glyph glyph-name="uni1ECE" unicode="&#x1ECE;" d="M394-9Q289-9 211.50 35.50Q134 80 92 161.50Q50 243 50 353Q50 463 92 544.50Q134 626 211.50 670Q289 714 394 714Q499 714 576.50 670Q654 626 696 544.50Q738 463 738 353Q738 243 696 161.50Q654 80 576.50 35.50Q499-9 394-9M394 112Q482 112 532.50 174Q583 236 583 353Q583 470 533 531.50Q483 593 394 593Q305 593 255.50 531.50Q206 470 206 353Q206 236 256 174Q306 112 394 112M430 765L356 765L356 787Q356 805 367.50 814Q379 823 399 832Q401 833 408 836.50Q415 840 418 843Q421 846 421 849Q421 866 388 866Q362 866 331 854L311 907Q356 925 406 925Q454 925 483.50 906.50Q513 888 513 861Q513 842 500.50 831Q488 820 465 810Q447 801 438.50 794.50Q430 788 430 778L430 765Z"  horiz-adv-x="787" vert-adv-y="1000"  />

      
      <glyph glyph-name="uni01A0" unicode="&#x01A0;" d="M738 788Q738 729 706.50 688Q675 647 622 636Q680 590 709 518Q738 446 738 353Q738 243 696 161.50Q654 80 576.50 35.50Q499-9 394-9Q289-9 211.50 35.50Q134 80 92 161.50Q50 243 50 353Q50 463 92 544.50Q134 626 212 670Q290 714 396 714Q428 714 461 709Q499 705 520 705Q568 705 588 728Q608 751 608 807L608 826L738 826L738 788M394 112Q482 112 532.50 174Q583 236 583 353Q583 470 533 531.50Q483 593 394 593Q305 593 255.50 531.50Q206 470 206 353Q206 236 256 174Q306 112 394 112Z"  horiz-adv-x="787" vert-adv-y="1000"  />

      
      <glyph glyph-name="uni1EDA" unicode="&#x1EDA;" d="M738 788Q738 729 706.50 688Q675 647 622 636Q680 590 709 518Q738 446 738 353Q738 243 696 161.50Q654 80 576.50 35.50Q499-9 394-9Q289-9 211.50 35.50Q134 80 92 161.50Q50 243 50 353Q50 463 92 544.50Q134 626 212 670Q290 714 396 714Q428 714 461 709Q499 705 520 705Q568 705 588 728Q608 751 608 807L608 826L738 826L738 788M394 112Q482 112 532.50 174Q583 236 583 353Q583 470 533 531.50Q483 593 394 593Q305 593 255.50 531.50Q206 470 206 353Q206 236 256 174Q306 112 394 112M440 765L346 765L449 921L589 921L440 765Z"  horiz-adv-x="787" vert-adv-y="1000"  />

      
      <glyph glyph-name="uni1EE2" unicode="&#x1EE2;" d="M738 788Q738 729 706.50 688Q675 647 622 636Q680 590 709 518Q738 446 738 353Q738 243 696 161.50Q654 80 576.50 35.50Q499-9 394-9Q289-9 211.50 35.50Q134 80 92 161.50Q50 243 50 353Q50 463 92 544.50Q134 626 212 670Q290 714 396 714Q428 714 461 709Q499 705 520 705Q568 705 588 728Q608 751 608 807L608 826L738 826L738 788M394 112Q482 112 532.50 174Q583 236 583 353Q583 470 533 531.50Q483 593 394 593Q305 593 255.50 531.50Q206 470 206 353Q206 236 256 174Q306 112 394 112M325-67L463-67L463-199L325-199L325-67Z"  horiz-adv-x="787" vert-adv-y="1000"  />

      
      <glyph glyph-name="uni1EDC" unicode="&#x1EDC;" d="M738 788Q738 729 706.50 688Q675 647 622 636Q680 590 709 518Q738 446 738 353Q738 243 696 161.50Q654 80 576.50 35.50Q499-9 394-9Q289-9 211.50 35.50Q134 80 92 161.50Q50 243 50 353Q50 463 92 544.50Q134 626 212 670Q290 714 396 714Q428 714 461 709Q499 705 520 705Q568 705 588 728Q608 751 608 807L608 826L738 826L738 788M394 112Q482 112 532.50 174Q583 236 583 353Q583 470 533 531.50Q483 593 394 593Q305 593 255.50 531.50Q206 470 206 353Q206 236 256 174Q306 112 394 112M346 765L197 921L337 921L440 765L346 765Z"  horiz-adv-x="787" vert-adv-y="1000"  />

      
      <glyph glyph-name="uni1EDE" unicode="&#x1EDE;" d="M738 788Q738 729 706.50 688Q675 647 622 636Q680 590 709 518Q738 446 738 353Q738 243 696 161.50Q654 80 576.50 35.50Q499-9 394-9Q289-9 211.50 35.50Q134 80 92 161.50Q50 243 50 353Q50 463 92 544.50Q134 626 212 670Q290 714 396 714Q428 714 461 709Q499 705 520 705Q568 705 588 728Q608 751 608 807L608 826L738 826L738 788M394 112Q482 112 532.50 174Q583 236 583 353Q583 470 533 531.50Q483 593 394 593Q305 593 255.50 531.50Q206 470 206 353Q206 236 256 174Q306 112 394 112M430 765L356 765L356 787Q356 805 367.50 814Q379 823 399 832Q401 833 408 836.50Q415 840 418 843Q421 846 421 849Q421 866 388 866Q362 866 331 854L311 907Q356 925 406 925Q454 925 483.50 906.50Q513 888 513 861Q513 842 500.50 831Q488 820 465 810Q447 801 438.50 794.50Q430 788 430 778L430 765Z"  horiz-adv-x="787" vert-adv-y="1000"  />

      
      <glyph glyph-name="uni1EE0" unicode="&#x1EE0;" d="M738 788Q738 729 706.50 688Q675 647 622 636Q680 590 709 518Q738 446 738 353Q738 243 696 161.50Q654 80 576.50 35.50Q499-9 394-9Q289-9 211.50 35.50Q134 80 92 161.50Q50 243 50 353Q50 463 92 544.50Q134 626 212 670Q290 714 396 714Q428 714 461 709Q499 705 520 705Q568 705 588 728Q608 751 608 807L608 826L738 826L738 788M394 112Q482 112 532.50 174Q583 236 583 353Q583 470 533 531.50Q483 593 394 593Q305 593 255.50 531.50Q206 470 206 353Q206 236 256 174Q306 112 394 112M219 772Q219 844 249.50 881Q280 918 328 918Q346 918 362.50 911Q379 904 404 889Q423 877 435.50 871Q448 865 460 865Q479 865 489.50 878.50Q500 892 502 915L567 915Q567 843 536.50 806Q506 769 458 769Q440 769 423.50 776Q407 783 382 798Q362 810 350 815.50Q338 821 326 821Q307 821 296.50 808Q286 795 284 772L219 772Z"  horiz-adv-x="787" vert-adv-y="1000"  />

      
      <glyph glyph-name="uni0150" unicode="&#x0150;" d="M394-9Q289-9 211.50 35.50Q134 80 92 161.50Q50 243 50 353Q50 463 92 544.50Q134 626 211.50 670Q289 714 394 714Q499 714 576.50 670Q654 626 696 544.50Q738 463 738 353Q738 243 696 161.50Q654 80 576.50 35.50Q499-9 394-9M394 112Q482 112 532.50 174Q583 236 583 353Q583 470 533 531.50Q483 593 394 593Q305 593 255.50 531.50Q206 470 206 353Q206 236 256 174Q306 112 394 112M366 765L292 765L365 921L466 921L366 765M494 765L420 765L493 921L594 921L494 765Z"  horiz-adv-x="787" vert-adv-y="1000"  />

      
      <glyph glyph-name="uni020E" unicode="&#x020E;" d="M394-9Q289-9 211.50 35.50Q134 80 92 161.50Q50 243 50 353Q50 463 92 544.50Q134 626 211.50 670Q289 714 394 714Q499 714 576.50 670Q654 626 696 544.50Q738 463 738 353Q738 243 696 161.50Q654 80 576.50 35.50Q499-9 394-9M394 112Q482 112 532.50 174Q583 236 583 353Q583 470 533 531.50Q483 593 394 593Q305 593 255.50 531.50Q206 470 206 353Q206 236 256 174Q306 112 394 112M393 913Q458 913 505 885Q552 857 571 804L501 774Q471 824 393 824Q315 824 285 774L215 804Q234 857 281 885Q328 913 393 913Z"  horiz-adv-x="787" vert-adv-y="1000"  />

      
      <glyph glyph-name="uni014C" unicode="&#x014C;" d="M394-9Q289-9 211.50 35.50Q134 80 92 161.50Q50 243 50 353Q50 463 92 544.50Q134 626 211.50 670Q289 714 394 714Q499 714 576.50 670Q654 626 696 544.50Q738 463 738 353Q738 243 696 161.50Q654 80 576.50 35.50Q499-9 394-9M394 112Q482 112 532.50 174Q583 236 583 353Q583 470 533 531.50Q483 593 394 593Q305 593 255.50 531.50Q206 470 206 353Q206 236 256 174Q306 112 394 112M236 796L236 890L550 890L550 796L236 796Z"  horiz-adv-x="787" vert-adv-y="1000"  />

      
      <glyph glyph-name="uni1E52" unicode="&#x1E52;" d="M394-9Q289-9 211.50 35.50Q134 80 92 161.50Q50 243 50 353Q50 463 92 544.50Q134 626 211.50 670Q289 714 394 714Q499 714 576.50 670Q654 626 696 544.50Q738 463 738 353Q738 243 696 161.50Q654 80 576.50 35.50Q499-9 394-9M394 112Q482 112 532.50 174Q583 236 583 353Q583 470 533 531.50Q483 593 394 593Q305 593 255.50 531.50Q206 470 206 353Q206 236 256 174Q306 112 394 112M236 796L236 890L550 890L550 796L236 796M440 925L346 925L449 1081L589 1081L440 925Z"  horiz-adv-x="787" vert-adv-y="1000"  />

      
      <glyph glyph-name="uni1E50" unicode="&#x1E50;" d="M394-9Q289-9 211.50 35.50Q134 80 92 161.50Q50 243 50 353Q50 463 92 544.50Q134 626 211.50 670Q289 714 394 714Q499 714 576.50 670Q654 626 696 544.50Q738 463 738 353Q738 243 696 161.50Q654 80 576.50 35.50Q499-9 394-9M394 112Q482 112 532.50 174Q583 236 583 353Q583 470 533 531.50Q483 593 394 593Q305 593 255.50 531.50Q206 470 206 353Q206 236 256 174Q306 112 394 112M236 796L236 890L550 890L550 796L236 796M346 925L197 1081L337 1081L440 925L346 925Z"  horiz-adv-x="787" vert-adv-y="1000"  />

      
      <glyph glyph-name="uni01EA" unicode="&#x01EA;" d="M505 5Q441-15 441-65Q441-91 456.50-105Q472-119 501-119Q524-119 555-106L572-177Q526-197 472-197Q416-197 380.50-166Q345-135 345-87Q345-43 374-9Q275-5 202 40.50Q129 86 89.50 166Q50 246 50 353Q50 463 92 544.50Q134 626 211.50 670Q289 714 394 714Q499 714 576.50 670Q654 626 696 544.50Q738 463 738 353Q738 220 677 129Q616 38 505 5M394 112Q482 112 532.50 174Q583 236 583 353Q583 470 533 531.50Q483 593 394 593Q305 593 255.50 531.50Q206 470 206 353Q206 236 256 174Q306 112 394 112Z"  horiz-adv-x="787" vert-adv-y="1000"  />

      
      <glyph glyph-name="unid8" unicode="&#xd8;" d="M625 636Q680 588 709 516Q738 444 738 353Q738 243 696 161.50Q654 80 576.50 35.50Q499-9 394-9Q322-9 263 12L216-68L117-8L162 70Q108 118 79 190Q50 262 50 353Q50 463 92 544.50Q134 626 211.50 670Q289 714 394 714Q467 714 525 693L571 773L670 713L625 636M206 353Q206 259 238 201L460 583Q431 593 394 593Q305 593 255.50 531.50Q206 470 206 353M394 112Q482 112 532.50 174Q583 236 583 353Q583 446 550 506L327 123Q358 112 394 112Z"  horiz-adv-x="787" vert-adv-y="1000"  />

      
      <glyph glyph-name="uni01FE" unicode="&#x01FE;" d="M625 636Q680 588 709 516Q738 444 738 353Q738 243 696 161.50Q654 80 576.50 35.50Q499-9 394-9Q322-9 263 12L216-68L117-8L162 70Q108 118 79 190Q50 262 50 353Q50 463 92 544.50Q134 626 211.50 670Q289 714 394 714Q467 714 525 693L571 773L670 713L625 636M206 353Q206 259 238 201L460 583Q431 593 394 593Q305 593 255.50 531.50Q206 470 206 353M394 112Q482 112 532.50 174Q583 236 583 353Q583 446 550 506L327 123Q358 112 394 112M440 765L346 765L449 921L589 921L440 765Z"  horiz-adv-x="787" vert-adv-y="1000"  />

      
      <glyph glyph-name="unid5" unicode="&#xd5;" d="M394-9Q289-9 211.50 35.50Q134 80 92 161.50Q50 243 50 353Q50 463 92 544.50Q134 626 211.50 670Q289 714 394 714Q499 714 576.50 670Q654 626 696 544.50Q738 463 738 353Q738 243 696 161.50Q654 80 576.50 35.50Q499-9 394-9M394 112Q482 112 532.50 174Q583 236 583 353Q583 470 533 531.50Q483 593 394 593Q305 593 255.50 531.50Q206 470 206 353Q206 236 256 174Q306 112 394 112M219 772Q219 844 249.50 881Q280 918 328 918Q346 918 362.50 911Q379 904 404 889Q423 877 435.50 871Q448 865 460 865Q479 865 489.50 878.50Q500 892 502 915L567 915Q567 843 536.50 806Q506 769 458 769Q440 769 423.50 776Q407 783 382 798Q362 810 350 815.50Q338 821 326 821Q307 821 296.50 808Q286 795 284 772L219 772Z"  horiz-adv-x="787" vert-adv-y="1000"  />

      
      <glyph glyph-name="uni1E4C" unicode="&#x1E4C;" d="M394-9Q289-9 211.50 35.50Q134 80 92 161.50Q50 243 50 353Q50 463 92 544.50Q134 626 211.50 670Q289 714 394 714Q499 714 576.50 670Q654 626 696 544.50Q738 463 738 353Q738 243 696 161.50Q654 80 576.50 35.50Q499-9 394-9M394 112Q482 112 532.50 174Q583 236 583 353Q583 470 533 531.50Q483 593 394 593Q305 593 255.50 531.50Q206 470 206 353Q206 236 256 174Q306 112 394 112M219 772Q219 844 249.50 881Q280 918 328 918Q346 918 362.50 911Q379 904 404 889Q423 877 435.50 871Q448 865 460 865Q479 865 489.50 878.50Q500 892 502 915L567 915Q567 843 536.50 806Q506 769 458 769Q440 769 423.50 776Q407 783 382 798Q362 810 350 815.50Q338 821 326 821Q307 821 296.50 808Q286 795 284 772L219 772M440 925L346 925L449 1081L589 1081L440 925Z"  horiz-adv-x="787" vert-adv-y="1000"  />

      
      <glyph glyph-name="uni1E4E" unicode="&#x1E4E;" d="M394-9Q289-9 211.50 35.50Q134 80 92 161.50Q50 243 50 353Q50 463 92 544.50Q134 626 211.50 670Q289 714 394 714Q499 714 576.50 670Q654 626 696 544.50Q738 463 738 353Q738 243 696 161.50Q654 80 576.50 35.50Q499-9 394-9M394 112Q482 112 532.50 174Q583 236 583 353Q583 470 533 531.50Q483 593 394 593Q305 593 255.50 531.50Q206 470 206 353Q206 236 256 174Q306 112 394 112M219 772Q219 844 249.50 881Q280 918 328 918Q346 918 362.50 911Q379 904 404 889Q423 877 435.50 871Q448 865 460 865Q479 865 489.50 878.50Q500 892 502 915L567 915Q567 843 536.50 806Q506 769 458 769Q440 769 423.50 776Q407 783 382 798Q362 810 350 815.50Q338 821 326 821Q307 821 296.50 808Q286 795 284 772L219 772M228 1069L367 1069L367 938L228 938L228 1069M419 1069L558 1069L558 938L419 938L419 1069Z"  horiz-adv-x="787" vert-adv-y="1000"  />

      
      <glyph glyph-name="uni022C" unicode="&#x022C;" d="M394-9Q289-9 211.50 35.50Q134 80 92 161.50Q50 243 50 353Q50 463 92 544.50Q134 626 211.50 670Q289 714 394 714Q499 714 576.50 670Q654 626 696 544.50Q738 463 738 353Q738 243 696 161.50Q654 80 576.50 35.50Q499-9 394-9M394 112Q482 112 532.50 174Q583 236 583 353Q583 470 533 531.50Q483 593 394 593Q305 593 255.50 531.50Q206 470 206 353Q206 236 256 174Q306 112 394 112M219 772Q219 844 249.50 881Q280 918 328 918Q346 918 362.50 911Q379 904 404 889Q423 877 435.50 871Q448 865 460 865Q479 865 489.50 878.50Q500 892 502 915L567 915Q567 843 536.50 806Q506 769 458 769Q440 769 423.50 776Q407 783 382 798Q362 810 350 815.50Q338 821 326 821Q307 821 296.50 808Q286 795 284 772L219 772M236 956L236 1050L550 1050L550 956L236 956Z"  horiz-adv-x="787" vert-adv-y="1000"  />

      
      <glyph glyph-name="uni0152" unicode="&#x0152;" d="M420 0Q304 0 220.50 42Q137 84 93.50 163.50Q50 243 50 353Q50 463 94 542Q138 621 221 663Q304 705 420 705L1007 705L1007 584L672 584L672 419L986 419L986 298L672 298L672 121L1006 121L1006 0L420 0M520 121L520 584L430 584Q319 584 262.50 526Q206 468 206 353Q206 237 262.50 179Q319 121 430 121L520 121Z"  horiz-adv-x="1044" vert-adv-y="1000"  />

      
      <glyph glyph-name="uni50" unicode="&#x50;" d="M70 705L394 705Q509 705 573 647Q637 589 637 485Q637 381 573 323Q509 265 394 265L226 265L226 0L70 0L70 705M374 383Q491 383 491 484Q491 536 462 561Q433 586 374 586L226 586L226 383L374 383Z"  horiz-adv-x="668" vert-adv-y="1000"  />

      
      <glyph glyph-name="unide" unicode="&#xde;" d="M395 563Q510 563 573.50 509Q637 455 637 358Q637 263 572.50 208Q508 153 395 153L223 153L223 0L70 0L70 705L223 705L223 563L395 563M370 272Q433 272 462 292.50Q491 313 491 358Q491 403 462 423.50Q433 444 370 444L223 444L223 272L370 272Z"  horiz-adv-x="669" vert-adv-y="1000"  />

      
      <glyph glyph-name="uni51" unicode="&#x51;" d="M563 30Q588 23 606.50 7Q625-9 642-35L717-157L584-219L480-49Q456-9 394-9Q289-9 211.50 35.50Q134 80 92 161.50Q50 243 50 353Q50 463 92 544.50Q134 626 211.50 670Q289 714 394 714Q499 714 576.50 670Q654 626 696 544.50Q738 463 738 353Q738 238 692.50 154.50Q647 71 563 30M394 112Q482 112 532.50 174Q583 236 583 353Q583 470 533 531.50Q483 593 394 593Q305 593 255.50 531.50Q206 470 206 353Q206 236 256 174Q306 112 394 112Z"  horiz-adv-x="787" vert-adv-y="1000"  />

      
      <glyph glyph-name="uni52" unicode="&#x52;" d="M682 0L512 0L390 225Q375 251 354 262.50Q333 274 301 274L224 274L224 0L70 0L70 705L394 705Q518 705 581.50 650.50Q645 596 645 493Q645 413 600.50 359Q556 305 475 288Q530 274 568 209L682 0M371 392Q438 392 468 415.50Q498 439 498 489Q498 540 468 563Q438 586 371 586L222 586L222 392L371 392Z"  horiz-adv-x="701" vert-adv-y="1000"  />

      
      <glyph glyph-name="uni0154" unicode="&#x0154;" d="M682 0L512 0L390 225Q375 251 354 262.50Q333 274 301 274L224 274L224 0L70 0L70 705L394 705Q518 705 581.50 650.50Q645 596 645 493Q645 413 600.50 359Q556 305 475 288Q530 274 568 209L682 0M371 392Q438 392 468 415.50Q498 439 498 489Q498 540 468 563Q438 586 371 586L222 586L222 392L371 392M399 765L305 765L408 921L548 921L399 765Z"  horiz-adv-x="701" vert-adv-y="1000"  />

      
      <glyph glyph-name="uni0158" unicode="&#x0158;" d="M682 0L512 0L390 225Q375 251 354 262.50Q333 274 301 274L224 274L224 0L70 0L70 705L394 705Q518 705 581.50 650.50Q645 596 645 493Q645 413 600.50 359Q556 305 475 288Q530 274 568 209L682 0M371 392Q438 392 468 415.50Q498 439 498 489Q498 540 468 563Q438 586 371 586L222 586L222 392L371 392M414 921L527 921L395 765L309 765L177 921L290 921L352 835L414 921Z"  horiz-adv-x="701" vert-adv-y="1000"  />

      
      <glyph glyph-name="uni0156" unicode="&#x0156;" d="M682 0L512 0L390 225Q375 251 354 262.50Q333 274 301 274L224 274L224 0L70 0L70 705L394 705Q518 705 581.50 650.50Q645 596 645 493Q645 413 600.50 359Q556 305 475 288Q530 274 568 209L682 0M371 392Q438 392 468 415.50Q498 439 498 489Q498 540 468 563Q438 586 371 586L222 586L222 392L371 392M427-65L427-130Q427-176 413.50-211Q400-246 367-275L313-238Q342-211 348-179L278-179L278-65L427-65Z"  horiz-adv-x="701" vert-adv-y="1000"  />

      
      <glyph glyph-name="uni0210" unicode="&#x0210;" d="M682 0L512 0L390 225Q375 251 354 262.50Q333 274 301 274L224 274L224 0L70 0L70 705L394 705Q518 705 581.50 650.50Q645 596 645 493Q645 413 600.50 359Q556 305 475 288Q530 274 568 209L682 0M371 392Q438 392 468 415.50Q498 439 498 489Q498 540 468 563Q438 586 371 586L222 586L222 392L371 392M246 765L146 921L247 921L320 765L246 765M384 765L285 921L385 921L458 765L384 765Z"  horiz-adv-x="701" vert-adv-y="1000"  />

      
      <glyph glyph-name="uni1E5A" unicode="&#x1E5A;" d="M682 0L512 0L390 225Q375 251 354 262.50Q333 274 301 274L224 274L224 0L70 0L70 705L394 705Q518 705 581.50 650.50Q645 596 645 493Q645 413 600.50 359Q556 305 475 288Q530 274 568 209L682 0M371 392Q438 392 468 415.50Q498 439 498 489Q498 540 468 563Q438 586 371 586L222 586L222 392L371 392M284-67L422-67L422-199L284-199L284-67Z"  horiz-adv-x="701" vert-adv-y="1000"  />

      
      <glyph glyph-name="uni0212" unicode="&#x0212;" d="M682 0L512 0L390 225Q375 251 354 262.50Q333 274 301 274L224 274L224 0L70 0L70 705L394 705Q518 705 581.50 650.50Q645 596 645 493Q645 413 600.50 359Q556 305 475 288Q530 274 568 209L682 0M371 392Q438 392 468 415.50Q498 439 498 489Q498 540 468 563Q438 586 371 586L222 586L222 392L371 392M352 913Q417 913 464 885Q511 857 530 804L460 774Q430 824 352 824Q274 824 244 774L174 804Q193 857 240 885Q287 913 352 913Z"  horiz-adv-x="701" vert-adv-y="1000"  />

      
      <glyph glyph-name="uni1E5E" unicode="&#x1E5E;" d="M682 0L512 0L390 225Q375 251 354 262.50Q333 274 301 274L224 274L224 0L70 0L70 705L394 705Q518 705 581.50 650.50Q645 596 645 493Q645 413 600.50 359Q556 305 475 288Q530 274 568 209L682 0M371 392Q438 392 468 415.50Q498 439 498 489Q498 540 468 563Q438 586 371 586L222 586L222 392L371 392M196-177L196-89L510-89L510-177L196-177Z"  horiz-adv-x="701" vert-adv-y="1000"  />

      
      <glyph glyph-name="uni53" unicode="&#x53;" d="M317-9Q237-9 163 12.50Q89 34 40 72L90 183Q192 112 319 112Q385 112 420.50 133.50Q456 155 456 193Q456 227 423.50 246Q391 265 308 283Q215 302 159.50 329Q104 356 78.50 395.50Q53 435 53 493Q53 557 88.50 607Q124 657 188 685.50Q252 714 336 714Q411 714 480.50 692Q550 670 591 633L541 522Q444 593 337 593Q276 593 241 569.50Q206 546 206 505Q206 481 219.50 465.50Q233 450 264.50 438Q296 426 354 413Q490 383 549.50 336Q609 289 609 206Q609 106 532 48.50Q455-9 317-9Z"  horiz-adv-x="651" vert-adv-y="1000"  />

      
      <glyph glyph-name="uni015A" unicode="&#x015A;" d="M317-9Q237-9 163 12.50Q89 34 40 72L90 183Q192 112 319 112Q385 112 420.50 133.50Q456 155 456 193Q456 227 423.50 246Q391 265 308 283Q215 302 159.50 329Q104 356 78.50 395.50Q53 435 53 493Q53 557 88.50 607Q124 657 188 685.50Q252 714 336 714Q411 714 480.50 692Q550 670 591 633L541 522Q444 593 337 593Q276 593 241 569.50Q206 546 206 505Q206 481 219.50 465.50Q233 450 264.50 438Q296 426 354 413Q490 383 549.50 336Q609 289 609 206Q609 106 532 48.50Q455-9 317-9M376 765L282 765L385 921L525 921L376 765Z"  horiz-adv-x="651" vert-adv-y="1000"  />

      
      <glyph glyph-name="uni1E64" unicode="&#x1E64;" d="M317-9Q237-9 163 12.50Q89 34 40 72L90 183Q192 112 319 112Q385 112 420.50 133.50Q456 155 456 193Q456 227 423.50 246Q391 265 308 283Q215 302 159.50 329Q104 356 78.50 395.50Q53 435 53 493Q53 557 88.50 607Q124 657 188 685.50Q252 714 336 714Q411 714 480.50 692Q550 670 591 633L541 522Q444 593 337 593Q276 593 241 569.50Q206 546 206 505Q206 481 219.50 465.50Q233 450 264.50 438Q296 426 354 413Q490 383 549.50 336Q609 289 609 206Q609 106 532 48.50Q455-9 317-9M401 765L307 765L410 921L550 921L401 765M125 920L287 920L287 779L125 779L125 920Z"  horiz-adv-x="651" vert-adv-y="1000"  />

      
      <glyph glyph-name="uni0160" unicode="&#x0160;" d="M317-9Q237-9 163 12.50Q89 34 40 72L90 183Q192 112 319 112Q385 112 420.50 133.50Q456 155 456 193Q456 227 423.50 246Q391 265 308 283Q215 302 159.50 329Q104 356 78.50 395.50Q53 435 53 493Q53 557 88.50 607Q124 657 188 685.50Q252 714 336 714Q411 714 480.50 692Q550 670 591 633L541 522Q444 593 337 593Q276 593 241 569.50Q206 546 206 505Q206 481 219.50 465.50Q233 450 264.50 438Q296 426 354 413Q490 383 549.50 336Q609 289 609 206Q609 106 532 48.50Q455-9 317-9M391 921L504 921L372 765L286 765L154 921L267 921L329 835L391 921Z"  horiz-adv-x="651" vert-adv-y="1000"  />

      
      <glyph glyph-name="uni1E66" unicode="&#x1E66;" d="M317-9Q237-9 163 12.50Q89 34 40 72L90 183Q192 112 319 112Q385 112 420.50 133.50Q456 155 456 193Q456 227 423.50 246Q391 265 308 283Q215 302 159.50 329Q104 356 78.50 395.50Q53 435 53 493Q53 557 88.50 607Q124 657 188 685.50Q252 714 336 714Q411 714 480.50 692Q550 670 591 633L541 522Q444 593 337 593Q276 593 241 569.50Q206 546 206 505Q206 481 219.50 465.50Q233 450 264.50 438Q296 426 354 413Q490 383 549.50 336Q609 289 609 206Q609 106 532 48.50Q455-9 317-9M391 921L504 921L372 765L286 765L154 921L267 921L329 835L391 921M248 1074L410 1074L410 933L248 933L248 1074Z"  horiz-adv-x="651" vert-adv-y="1000"  />

      
      <glyph glyph-name="uni015E" unicode="&#x015E;" d="M609 206Q609 113 541.50 56Q474-1 353-8L349-41Q353-40 361-40Q399-40 422-58.50Q445-77 445-109Q445-148 410-172.50Q375-197 310-197Q288-197 262-192.50Q236-188 216-179L228-121Q273-135 306-135Q352-135 352-109Q352-90 320-90Q302-90 284-96L264-75L273-7Q204-2 143 18.50Q82 39 40 72L90 183Q192 112 319 112Q385 112 420.50 133.50Q456 155 456 193Q456 227 423.50 246Q391 265 308 283Q215 302 159.50 329Q104 356 78.50 395.50Q53 435 53 493Q53 557 88.50 607Q124 657 188 685.50Q252 714 336 714Q411 714 480.50 692Q550 670 591 633L541 522Q444 593 337 593Q276 593 241 569.50Q206 546 206 505Q206 481 219.50 465.50Q233 450 264.50 438Q296 426 354 413Q490 383 549.50 336Q609 289 609 206Z"  horiz-adv-x="651" vert-adv-y="1000"  />

      
      <glyph glyph-name="uni015C" unicode="&#x015C;" d="M317-9Q237-9 163 12.50Q89 34 40 72L90 183Q192 112 319 112Q385 112 420.50 133.50Q456 155 456 193Q456 227 423.50 246Q391 265 308 283Q215 302 159.50 329Q104 356 78.50 395.50Q53 435 53 493Q53 557 88.50 607Q124 657 188 685.50Q252 714 336 714Q411 714 480.50 692Q550 670 591 633L541 522Q444 593 337 593Q276 593 241 569.50Q206 546 206 505Q206 481 219.50 465.50Q233 450 264.50 438Q296 426 354 413Q490 383 549.50 336Q609 289 609 206Q609 106 532 48.50Q455-9 317-9M267 765L154 765L286 921L372 921L504 765L391 765L329 850L267 765Z"  horiz-adv-x="651" vert-adv-y="1000"  />

      
      <glyph glyph-name="uni0218" unicode="&#x0218;" d="M317-9Q237-9 163 12.50Q89 34 40 72L90 183Q192 112 319 112Q385 112 420.50 133.50Q456 155 456 193Q456 227 423.50 246Q391 265 308 283Q215 302 159.50 329Q104 356 78.50 395.50Q53 435 53 493Q53 557 88.50 607Q124 657 188 685.50Q252 714 336 714Q411 714 480.50 692Q550 670 591 633L541 522Q444 593 337 593Q276 593 241 569.50Q206 546 206 505Q206 481 219.50 465.50Q233 450 264.50 438Q296 426 354 413Q490 383 549.50 336Q609 289 609 206Q609 106 532 48.50Q455-9 317-9M398-65L398-130Q398-176 384.50-211Q371-246 338-275L284-238Q313-211 319-179L249-179L249-65L398-65Z"  horiz-adv-x="651" vert-adv-y="1000"  />

      
      <glyph glyph-name="uni1E60" unicode="&#x1E60;" d="M317-9Q237-9 163 12.50Q89 34 40 72L90 183Q192 112 319 112Q385 112 420.50 133.50Q456 155 456 193Q456 227 423.50 246Q391 265 308 283Q215 302 159.50 329Q104 356 78.50 395.50Q53 435 53 493Q53 557 88.50 607Q124 657 188 685.50Q252 714 336 714Q411 714 480.50 692Q550 670 591 633L541 522Q444 593 337 593Q276 593 241 569.50Q206 546 206 505Q206 481 219.50 465.50Q233 450 264.50 438Q296 426 354 413Q490 383 549.50 336Q609 289 609 206Q609 106 532 48.50Q455-9 317-9M248 914L410 914L410 773L248 773L248 914Z"  horiz-adv-x="651" vert-adv-y="1000"  />

      
      <glyph glyph-name="uni1E62" unicode="&#x1E62;" d="M317-9Q237-9 163 12.50Q89 34 40 72L90 183Q192 112 319 112Q385 112 420.50 133.50Q456 155 456 193Q456 227 423.50 246Q391 265 308 283Q215 302 159.50 329Q104 356 78.50 395.50Q53 435 53 493Q53 557 88.50 607Q124 657 188 685.50Q252 714 336 714Q411 714 480.50 692Q550 670 591 633L541 522Q444 593 337 593Q276 593 241 569.50Q206 546 206 505Q206 481 219.50 465.50Q233 450 264.50 438Q296 426 354 413Q490 383 549.50 336Q609 289 609 206Q609 106 532 48.50Q455-9 317-9M255-67L393-67L393-199L255-199L255-67Z"  horiz-adv-x="651" vert-adv-y="1000"  />

      
      <glyph glyph-name="uni1E68" unicode="&#x1E68;" d="M317-9Q237-9 163 12.50Q89 34 40 72L90 183Q192 112 319 112Q385 112 420.50 133.50Q456 155 456 193Q456 227 423.50 246Q391 265 308 283Q215 302 159.50 329Q104 356 78.50 395.50Q53 435 53 493Q53 557 88.50 607Q124 657 188 685.50Q252 714 336 714Q411 714 480.50 692Q550 670 591 633L541 522Q444 593 337 593Q276 593 241 569.50Q206 546 206 505Q206 481 219.50 465.50Q233 450 264.50 438Q296 426 354 413Q490 383 549.50 336Q609 289 609 206Q609 106 532 48.50Q455-9 317-9M255-67L393-67L393-199L255-199L255-67M248 914L410 914L410 773L248 773L248 914Z"  horiz-adv-x="651" vert-adv-y="1000"  />

      
      <glyph glyph-name="uni1E9E" unicode="&#x1E9E;" d="M527 368Q596 354 634.50 308.50Q673 263 673 197Q673 139 644 93Q615 47 564 20.50Q513-6 449-6Q392-6 346.50 7.50Q301 21 262 50L303 160Q381 110 441 110Q480 110 503 135Q526 160 526 203Q526 252 495 274Q464 296 392 296L292 296L292 417L373 417Q423 417 449 438.50Q475 460 475 501Q475 543 445 567Q415 591 364 591Q296 591 259.50 553.50Q223 516 223 445L223 0L70 0L70 442Q70 571 148 641.50Q226 712 368 712Q444 712 501 688Q558 664 589 619.50Q620 575 620 515Q620 465 595.50 426.50Q571 388 527 368Z"  horiz-adv-x="710" vert-adv-y="1000"  />

      
      <glyph glyph-name="uni018F" unicode="&#x018F;" d="M360 714Q468 714 549 670Q630 626 673.50 544.50Q717 463 717 353Q717 247 676.50 165Q636 83 562.50 37Q489-9 394-9Q287-9 209.50 33.50Q132 76 91 158Q50 240 50 356L50 416L558 416Q545 502 493 546Q441 590 355 590Q240 590 148 522L99 633Q145 670 216 692Q287 714 360 714M389 112Q464 112 507 158.50Q550 205 560 297L208 297Q216 206 263 159Q310 112 389 112Z"  horiz-adv-x="767" vert-adv-y="1000"  />

      
      <glyph glyph-name="uni54" unicode="&#x54;" d="M233 0L233 578L12 578L12 705L610 705L610 578L389 578L389 0L233 0Z"  horiz-adv-x="622" vert-adv-y="1000"  />

      
      <glyph glyph-name="uni0166" unicode="&#x0166;" d="M610 578L389 578L389 415L525 415L525 297L389 297L389 0L233 0L233 297L97 297L97 415L233 415L233 578L12 578L12 705L610 705L610 578Z"  horiz-adv-x="622" vert-adv-y="1000"  />

      
      <glyph glyph-name="uni0164" unicode="&#x0164;" d="M233 0L233 578L12 578L12 705L610 705L610 578L389 578L389 0L233 0M373 921L486 921L354 765L268 765L136 921L249 921L311 835L373 921Z"  horiz-adv-x="622" vert-adv-y="1000"  />

      
      <glyph glyph-name="uni0162" unicode="&#x0162;" d="M341 0L336-41Q340-40 348-40Q386-40 409-58.50Q432-77 432-109Q432-148 397-172.50Q362-197 297-197Q275-197 249-192.50Q223-188 203-179L215-121Q260-135 293-135Q339-135 339-109Q339-90 307-90Q289-90 271-96L251-75L260 0L233 0L233 578L12 578L12 705L610 705L610 578L389 578L389 0L341 0Z"  horiz-adv-x="622" vert-adv-y="1000"  />

      
      <glyph glyph-name="uni021A" unicode="&#x021A;" d="M233 0L233 578L12 578L12 705L610 705L610 578L389 578L389 0L233 0M385-65L385-130Q385-176 371.50-211Q358-246 325-275L271-238Q300-211 306-179L236-179L236-65L385-65Z"  horiz-adv-x="622" vert-adv-y="1000"  />

      
      <glyph glyph-name="uni1E6C" unicode="&#x1E6C;" d="M233 0L233 578L12 578L12 705L610 705L610 578L389 578L389 0L233 0M242-67L380-67L380-199L242-199L242-67Z"  horiz-adv-x="622" vert-adv-y="1000"  />

      
      <glyph glyph-name="uni1E6E" unicode="&#x1E6E;" d="M233 0L233 578L12 578L12 705L610 705L610 578L389 578L389 0L233 0M154-177L154-89L468-89L468-177L154-177Z"  horiz-adv-x="622" vert-adv-y="1000"  />

      
      <glyph glyph-name="uni55" unicode="&#x55;" d="M369-9Q221-9 143.50 67.50Q66 144 66 291L66 705L219 705L219 284Q219 200 257.50 156Q296 112 369 112Q442 112 481 156.50Q520 201 520 284L520 705L673 705L673 291Q673 145 595 68Q517-9 369-9Z"  horiz-adv-x="739" vert-adv-y="1000"  />

      
      <glyph glyph-name="unida" unicode="&#xda;" d="M369-9Q221-9 143.50 67.50Q66 144 66 291L66 705L219 705L219 284Q219 200 257.50 156Q296 112 369 112Q442 112 481 156.50Q520 201 520 284L520 705L673 705L673 291Q673 145 595 68Q517-9 369-9M416 765L322 765L425 921L565 921L416 765Z"  horiz-adv-x="739" vert-adv-y="1000"  />

      
      <glyph glyph-name="uni016C" unicode="&#x016C;" d="M369-9Q221-9 143.50 67.50Q66 144 66 291L66 705L219 705L219 284Q219 200 257.50 156Q296 112 369 112Q442 112 481 156.50Q520 201 520 284L520 705L673 705L673 291Q673 145 595 68Q517-9 369-9M369 774Q304 774 257 802Q210 830 191 883L261 912Q291 863 369 863Q447 863 477 912L547 883Q528 830 481 802Q434 774 369 774Z"  horiz-adv-x="739" vert-adv-y="1000"  />

      
      <glyph glyph-name="unidb" unicode="&#xdb;" d="M369-9Q221-9 143.50 67.50Q66 144 66 291L66 705L219 705L219 284Q219 200 257.50 156Q296 112 369 112Q442 112 481 156.50Q520 201 520 284L520 705L673 705L673 291Q673 145 595 68Q517-9 369-9M307 765L194 765L326 921L412 921L544 765L431 765L369 850L307 765Z"  horiz-adv-x="739" vert-adv-y="1000"  />

      
      <glyph glyph-name="uni0214" unicode="&#x0214;" d="M369-9Q221-9 143.50 67.50Q66 144 66 291L66 705L219 705L219 284Q219 200 257.50 156Q296 112 369 112Q442 112 481 156.50Q520 201 520 284L520 705L673 705L673 291Q673 145 595 68Q517-9 369-9M263 765L163 921L264 921L337 765L263 765M401 765L302 921L402 921L475 765L401 765Z"  horiz-adv-x="739" vert-adv-y="1000"  />

      
      <glyph glyph-name="unidc" unicode="&#xdc;" d="M369-9Q221-9 143.50 67.50Q66 144 66 291L66 705L219 705L219 284Q219 200 257.50 156Q296 112 369 112Q442 112 481 156.50Q520 201 520 284L520 705L673 705L673 291Q673 145 595 68Q517-9 369-9M204 909L343 909L343 778L204 778L204 909M395 909L534 909L534 778L395 778L395 909Z"  horiz-adv-x="739" vert-adv-y="1000"  />

      
      <glyph glyph-name="uni1EE4" unicode="&#x1EE4;" d="M369-9Q221-9 143.50 67.50Q66 144 66 291L66 705L219 705L219 284Q219 200 257.50 156Q296 112 369 112Q442 112 481 156.50Q520 201 520 284L520 705L673 705L673 291Q673 145 595 68Q517-9 369-9M300-67L438-67L438-199L300-199L300-67Z"  horiz-adv-x="739" vert-adv-y="1000"  />

      
      <glyph glyph-name="unid9" unicode="&#xd9;" d="M369-9Q221-9 143.50 67.50Q66 144 66 291L66 705L219 705L219 284Q219 200 257.50 156Q296 112 369 112Q442 112 481 156.50Q520 201 520 284L520 705L673 705L673 291Q673 145 595 68Q517-9 369-9M322 765L173 921L313 921L416 765L322 765Z"  horiz-adv-x="739" vert-adv-y="1000"  />

      
      <glyph glyph-name="uni1EE6" unicode="&#x1EE6;" d="M369-9Q221-9 143.50 67.50Q66 144 66 291L66 705L219 705L219 284Q219 200 257.50 156Q296 112 369 112Q442 112 481 156.50Q520 201 520 284L520 705L673 705L673 291Q673 145 595 68Q517-9 369-9M406 765L332 765L332 787Q332 805 343.50 814Q355 823 375 832Q377 833 384 836.50Q391 840 394 843Q397 846 397 849Q397 866 364 866Q338 866 307 854L287 907Q332 925 382 925Q430 925 459.50 906.50Q489 888 489 861Q489 842 476.50 831Q464 820 441 810Q423 801 414.50 794.50Q406 788 406 778L406 765Z"  horiz-adv-x="739" vert-adv-y="1000"  />

      
      <glyph glyph-name="uni01AF" unicode="&#x01AF;" d="M785 826L785 788Q785 731 754.50 690.50Q724 650 673 637L673 291Q673 145 595 68Q517-9 369-9Q221-9 143.50 67.50Q66 144 66 291L66 705L219 705L219 284Q219 200 257.50 156Q296 112 369 112Q442 112 481 156.50Q520 201 520 284L520 705L564 705Q615 705 635 727.50Q655 750 655 807L655 826L785 826Z"  horiz-adv-x="739" vert-adv-y="1000"  />

      
      <glyph glyph-name="uni1EE8" unicode="&#x1EE8;" d="M785 826L785 788Q785 731 754.50 690.50Q724 650 673 637L673 291Q673 145 595 68Q517-9 369-9Q221-9 143.50 67.50Q66 144 66 291L66 705L219 705L219 284Q219 200 257.50 156Q296 112 369 112Q442 112 481 156.50Q520 201 520 284L520 705L564 705Q615 705 635 727.50Q655 750 655 807L655 826L785 826M416 765L322 765L425 921L565 921L416 765Z"  horiz-adv-x="739" vert-adv-y="1000"  />

      
      <glyph glyph-name="uni1EF0" unicode="&#x1EF0;" d="M785 826L785 788Q785 731 754.50 690.50Q724 650 673 637L673 291Q673 145 595 68Q517-9 369-9Q221-9 143.50 67.50Q66 144 66 291L66 705L219 705L219 284Q219 200 257.50 156Q296 112 369 112Q442 112 481 156.50Q520 201 520 284L520 705L564 705Q615 705 635 727.50Q655 750 655 807L655 826L785 826M300-67L438-67L438-199L300-199L300-67Z"  horiz-adv-x="739" vert-adv-y="1000"  />

      
      <glyph glyph-name="uni1EEA" unicode="&#x1EEA;" d="M785 826L785 788Q785 731 754.50 690.50Q724 650 673 637L673 291Q673 145 595 68Q517-9 369-9Q221-9 143.50 67.50Q66 144 66 291L66 705L219 705L219 284Q219 200 257.50 156Q296 112 369 112Q442 112 481 156.50Q520 201 520 284L520 705L564 705Q615 705 635 727.50Q655 750 655 807L655 826L785 826M322 765L173 921L313 921L416 765L322 765Z"  horiz-adv-x="739" vert-adv-y="1000"  />

      
      <glyph glyph-name="uni1EEC" unicode="&#x1EEC;" d="M785 826L785 788Q785 731 754.50 690.50Q724 650 673 637L673 291Q673 145 595 68Q517-9 369-9Q221-9 143.50 67.50Q66 144 66 291L66 705L219 705L219 284Q219 200 257.50 156Q296 112 369 112Q442 112 481 156.50Q520 201 520 284L520 705L564 705Q615 705 635 727.50Q655 750 655 807L655 826L785 826M406 765L332 765L332 787Q332 805 343.50 814Q355 823 375 832Q377 833 384 836.50Q391 840 394 843Q397 846 397 849Q397 866 364 866Q338 866 307 854L287 907Q332 925 382 925Q430 925 459.50 906.50Q489 888 489 861Q489 842 476.50 831Q464 820 441 810Q423 801 414.50 794.50Q406 788 406 778L406 765Z"  horiz-adv-x="739" vert-adv-y="1000"  />

      
      <glyph glyph-name="uni1EEE" unicode="&#x1EEE;" d="M785 826L785 788Q785 731 754.50 690.50Q724 650 673 637L673 291Q673 145 595 68Q517-9 369-9Q221-9 143.50 67.50Q66 144 66 291L66 705L219 705L219 284Q219 200 257.50 156Q296 112 369 112Q442 112 481 156.50Q520 201 520 284L520 705L564 705Q615 705 635 727.50Q655 750 655 807L655 826L785 826M195 772Q195 844 225.50 881Q256 918 304 918Q322 918 338.50 911Q355 904 380 889Q399 877 411.50 871Q424 865 436 865Q455 865 465.50 878.50Q476 892 478 915L543 915Q543 843 512.50 806Q482 769 434 769Q416 769 399.50 776Q383 783 358 798Q338 810 326 815.50Q314 821 302 821Q283 821 272.50 808Q262 795 260 772L195 772Z"  horiz-adv-x="739" vert-adv-y="1000"  />

      
      <glyph glyph-name="uni0170" unicode="&#x0170;" d="M369-9Q221-9 143.50 67.50Q66 144 66 291L66 705L219 705L219 284Q219 200 257.50 156Q296 112 369 112Q442 112 481 156.50Q520 201 520 284L520 705L673 705L673 291Q673 145 595 68Q517-9 369-9M342 765L268 765L341 921L442 921L342 765M470 765L396 765L469 921L570 921L470 765Z"  horiz-adv-x="739" vert-adv-y="1000"  />

      
      <glyph glyph-name="uni0216" unicode="&#x0216;" d="M369-9Q221-9 143.50 67.50Q66 144 66 291L66 705L219 705L219 284Q219 200 257.50 156Q296 112 369 112Q442 112 481 156.50Q520 201 520 284L520 705L673 705L673 291Q673 145 595 68Q517-9 369-9M369 913Q434 913 481 885Q528 857 547 804L477 774Q447 824 369 824Q291 824 261 774L191 804Q210 857 257 885Q304 913 369 913Z"  horiz-adv-x="739" vert-adv-y="1000"  />

      
      <glyph glyph-name="uni016A" unicode="&#x016A;" d="M369-9Q221-9 143.50 67.50Q66 144 66 291L66 705L219 705L219 284Q219 200 257.50 156Q296 112 369 112Q442 112 481 156.50Q520 201 520 284L520 705L673 705L673 291Q673 145 595 68Q517-9 369-9M212 796L212 890L526 890L526 796L212 796Z"  horiz-adv-x="739" vert-adv-y="1000"  />

      
      <glyph glyph-name="uni1E7A" unicode="&#x1E7A;" d="M369-9Q221-9 143.50 67.50Q66 144 66 291L66 705L219 705L219 284Q219 200 257.50 156Q296 112 369 112Q442 112 481 156.50Q520 201 520 284L520 705L673 705L673 291Q673 145 595 68Q517-9 369-9M212 796L212 890L526 890L526 796L212 796M204 1069L343 1069L343 938L204 938L204 1069M395 1069L534 1069L534 938L395 938L395 1069Z"  horiz-adv-x="739" vert-adv-y="1000"  />

      
      <glyph glyph-name="uni0172" unicode="&#x0172;" d="M673 705L673 291Q673 176 624.50 103.50Q576 31 482 5Q452-3 436.50-21.50Q421-40 421-65Q421-91 436-105Q451-119 480-119Q503-119 535-106L551-177Q506-197 452-197Q396-197 360-166Q324-135 324-87Q324-42 357-9Q214-5 140 71Q66 147 66 291L66 705L219 705L219 284Q219 200 257.50 156Q296 112 369 112Q442 112 481 156.50Q520 201 520 284L520 705L673 705Z"  horiz-adv-x="739" vert-adv-y="1000"  />

      
      <glyph glyph-name="uni016E" unicode="&#x016E;" d="M369-9Q221-9 143.50 67.50Q66 144 66 291L66 705L219 705L219 284Q219 200 257.50 156Q296 112 369 112Q442 112 481 156.50Q520 201 520 284L520 705L673 705L673 291Q673 145 595 68Q517-9 369-9M369 760Q323 760 291.50 791Q260 822 260 867Q260 913 291.50 944Q323 975 369 975Q415 975 446.50 944Q478 913 478 867Q478 822 446.50 791Q415 760 369 760M369 822Q388 822 400 835Q412 848 412 867Q412 887 400 900Q388 913 369 913Q350 913 338 900Q326 887 326 867Q326 848 338 835Q350 822 369 822Z"  horiz-adv-x="739" vert-adv-y="1000"  />

      
      <glyph glyph-name="uni0168" unicode="&#x0168;" d="M369-9Q221-9 143.50 67.50Q66 144 66 291L66 705L219 705L219 284Q219 200 257.50 156Q296 112 369 112Q442 112 481 156.50Q520 201 520 284L520 705L673 705L673 291Q673 145 595 68Q517-9 369-9M195 772Q195 844 225.50 881Q256 918 304 918Q322 918 338.50 911Q355 904 380 889Q399 877 411.50 871Q424 865 436 865Q455 865 465.50 878.50Q476 892 478 915L543 915Q543 843 512.50 806Q482 769 434 769Q416 769 399.50 776Q383 783 358 798Q338 810 326 815.50Q314 821 302 821Q283 821 272.50 808Q262 795 260 772L195 772Z"  horiz-adv-x="739" vert-adv-y="1000"  />

      
      <glyph glyph-name="uni1E78" unicode="&#x1E78;" d="M369-9Q221-9 143.50 67.50Q66 144 66 291L66 705L219 705L219 284Q219 200 257.50 156Q296 112 369 112Q442 112 481 156.50Q520 201 520 284L520 705L673 705L673 291Q673 145 595 68Q517-9 369-9M195 772Q195 844 225.50 881Q256 918 304 918Q322 918 338.50 911Q355 904 380 889Q399 877 411.50 871Q424 865 436 865Q455 865 465.50 878.50Q476 892 478 915L543 915Q543 843 512.50 806Q482 769 434 769Q416 769 399.50 776Q383 783 358 798Q338 810 326 815.50Q314 821 302 821Q283 821 272.50 808Q262 795 260 772L195 772M416 925L322 925L425 1081L565 1081L416 925Z"  horiz-adv-x="739" vert-adv-y="1000"  />

      
      <glyph glyph-name="uni56" unicode="&#x56;" d="M586 705L744 705L427 0L302 0L-16 705L146 705L366 194L586 705Z"  horiz-adv-x="728" vert-adv-y="1000"  />

      
      <glyph glyph-name="uni57" unicode="&#x57;" d="M949 705L1097 705L846 0L721 0L558 467L393 0L268 0L18 705L176 705L337 218L508 705L617 705L782 213L949 705Z"  horiz-adv-x="1115" vert-adv-y="1000"  />

      
      <glyph glyph-name="uni1E82" unicode="&#x1E82;" d="M949 705L1097 705L846 0L721 0L558 467L393 0L268 0L18 705L176 705L337 218L508 705L617 705L782 213L949 705M604 765L510 765L613 921L753 921L604 765Z"  horiz-adv-x="1115" vert-adv-y="1000"  />

      
      <glyph glyph-name="uni0174" unicode="&#x0174;" d="M949 705L1097 705L846 0L721 0L558 467L393 0L268 0L18 705L176 705L337 218L508 705L617 705L782 213L949 705M495 765L382 765L514 921L600 921L732 765L619 765L557 850L495 765Z"  horiz-adv-x="1115" vert-adv-y="1000"  />

      
      <glyph glyph-name="uni1E84" unicode="&#x1E84;" d="M949 705L1097 705L846 0L721 0L558 467L393 0L268 0L18 705L176 705L337 218L508 705L617 705L782 213L949 705M392 909L531 909L531 778L392 778L392 909M583 909L722 909L722 778L583 778L583 909Z"  horiz-adv-x="1115" vert-adv-y="1000"  />

      
      <glyph glyph-name="uni1E80" unicode="&#x1E80;" d="M949 705L1097 705L846 0L721 0L558 467L393 0L268 0L18 705L176 705L337 218L508 705L617 705L782 213L949 705M510 765L361 921L501 921L604 765L510 765Z"  horiz-adv-x="1115" vert-adv-y="1000"  />

      
      <glyph glyph-name="uni58" unicode="&#x58;" d="M425 357L694 0L512 0L337 243L161 0L-20 0L249 357L-13 705L168 705L337 471L507 705L688 705L425 357Z"  horiz-adv-x="675" vert-adv-y="1000"  />

      
      <glyph glyph-name="uni59" unicode="&#x59;" d="M688 705L396 319L396 0L240 0L240 319L-51 705L126 705L317 444L511 705L688 705Z"  horiz-adv-x="636" vert-adv-y="1000"  />

      
      <glyph glyph-name="unidd" unicode="&#xdd;" d="M688 705L396 319L396 0L240 0L240 319L-51 705L126 705L317 444L511 705L688 705M365 765L271 765L374 921L514 921L365 765Z"  horiz-adv-x="636" vert-adv-y="1000"  />

      
      <glyph glyph-name="uni0176" unicode="&#x0176;" d="M688 705L396 319L396 0L240 0L240 319L-51 705L126 705L317 444L511 705L688 705M256 765L143 765L275 921L361 921L493 765L380 765L318 850L256 765Z"  horiz-adv-x="636" vert-adv-y="1000"  />

      
      <glyph glyph-name="uni0178" unicode="&#x0178;" d="M688 705L396 319L396 0L240 0L240 319L-51 705L126 705L317 444L511 705L688 705M153 909L292 909L292 778L153 778L153 909M344 909L483 909L483 778L344 778L344 909Z"  horiz-adv-x="636" vert-adv-y="1000"  />

      
      <glyph glyph-name="uni1E8E" unicode="&#x1E8E;" d="M688 705L396 319L396 0L240 0L240 319L-51 705L126 705L317 444L511 705L688 705M237 914L399 914L399 773L237 773L237 914Z"  horiz-adv-x="636" vert-adv-y="1000"  />

      
      <glyph glyph-name="uni1EF4" unicode="&#x1EF4;" d="M688 705L396 319L396 0L240 0L240 319L-51 705L126 705L317 444L511 705L688 705M250-67L388-67L388-199L250-199L250-67Z"  horiz-adv-x="636" vert-adv-y="1000"  />

      
      <glyph glyph-name="uni1EF2" unicode="&#x1EF2;" d="M688 705L396 319L396 0L240 0L240 319L-51 705L126 705L317 444L511 705L688 705M271 765L122 921L262 921L365 765L271 765Z"  horiz-adv-x="636" vert-adv-y="1000"  />

      
      <glyph glyph-name="uni1EF6" unicode="&#x1EF6;" d="M688 705L396 319L396 0L240 0L240 319L-51 705L126 705L317 444L511 705L688 705M355 765L281 765L281 787Q281 805 292.50 814Q304 823 324 832Q326 833 333 836.50Q340 840 343 843Q346 846 346 849Q346 866 313 866Q287 866 256 854L236 907Q281 925 331 925Q379 925 408.50 906.50Q438 888 438 861Q438 842 425.50 831Q413 820 390 810Q372 801 363.50 794.50Q355 788 355 778L355 765Z"  horiz-adv-x="636" vert-adv-y="1000"  />

      
      <glyph glyph-name="uni0232" unicode="&#x0232;" d="M688 705L396 319L396 0L240 0L240 319L-51 705L126 705L317 444L511 705L688 705M161 796L161 890L475 890L475 796L161 796Z"  horiz-adv-x="636" vert-adv-y="1000"  />

      
      <glyph glyph-name="uni1EF8" unicode="&#x1EF8;" d="M688 705L396 319L396 0L240 0L240 319L-51 705L126 705L317 444L511 705L688 705M144 772Q144 844 174.50 881Q205 918 253 918Q271 918 287.50 911Q304 904 329 889Q348 877 360.50 871Q373 865 385 865Q404 865 414.50 878.50Q425 892 427 915L492 915Q492 843 461.50 806Q431 769 383 769Q365 769 348.50 776Q332 783 307 798Q287 810 275 815.50Q263 821 251 821Q232 821 221.50 808Q211 795 209 772L144 772Z"  horiz-adv-x="636" vert-adv-y="1000"  />

      
      <glyph glyph-name="uni5a" unicode="&#x5a;" d="M223 123L574 123L574 0L50 0L50 114L388 582L50 582L50 705L564 705L564 593L223 123Z"  horiz-adv-x="610" vert-adv-y="1000"  />

      
      <glyph glyph-name="uni0179" unicode="&#x0179;" d="M223 123L574 123L574 0L50 0L50 114L388 582L50 582L50 705L564 705L564 593L223 123M353 765L259 765L362 921L502 921L353 765Z"  horiz-adv-x="610" vert-adv-y="1000"  />

      
      <glyph glyph-name="uni017D" unicode="&#x017D;" d="M223 123L574 123L574 0L50 0L50 114L388 582L50 582L50 705L564 705L564 593L223 123M368 921L481 921L349 765L263 765L131 921L244 921L306 835L368 921Z"  horiz-adv-x="610" vert-adv-y="1000"  />

      
      <glyph glyph-name="uni017B" unicode="&#x017B;" d="M223 123L574 123L574 0L50 0L50 114L388 582L50 582L50 705L564 705L564 593L223 123M225 914L387 914L387 773L225 773L225 914Z"  horiz-adv-x="610" vert-adv-y="1000"  />

      
      <glyph glyph-name="uni1E92" unicode="&#x1E92;" d="M223 123L574 123L574 0L50 0L50 114L388 582L50 582L50 705L564 705L564 593L223 123M234-67L372-67L372-199L234-199L234-67Z"  horiz-adv-x="610" vert-adv-y="1000"  />

      
      <glyph glyph-name="uni61" unicode="&#x61;" d="M276 503Q386 503 438.50 451Q491 399 491 290L491 0L348 0L348 73Q333 35 298 13.50Q263-8 216-8Q166-8 125.50 12Q85 32 61.50 68Q38 104 38 148Q38 202 65.50 233Q93 264 154 278Q215 292 321 292L347 292L347 310Q347 354 328 372Q309 390 262 390Q226 390 182 377Q138 364 98 341L58 442Q100 468 161.50 485.50Q223 503 276 503M249 96Q293 96 320 125.50Q347 155 347 202L347 219L330 219Q249 219 216.50 206Q184 193 184 159Q184 132 202.50 114Q221 96 249 96Z"  horiz-adv-x="546" vert-adv-y="1000"  />

      
      <glyph glyph-name="unie1" unicode="&#xe1;" d="M276 503Q386 503 438.50 451Q491 399 491 290L491 0L348 0L348 73Q333 35 298 13.50Q263-8 216-8Q166-8 125.50 12Q85 32 61.50 68Q38 104 38 148Q38 202 65.50 233Q93 264 154 278Q215 292 321 292L347 292L347 310Q347 354 328 372Q309 390 262 390Q226 390 182 377Q138 364 98 341L58 442Q100 468 161.50 485.50Q223 503 276 503M249 96Q293 96 320 125.50Q347 155 347 202L347 219L330 219Q249 219 216.50 206Q184 193 184 159Q184 132 202.50 114Q221 96 249 96M326 555L232 555L330 760L478 760L326 555Z"  horiz-adv-x="546" vert-adv-y="1000"  />

      
      <glyph glyph-name="uni0103" unicode="&#x0103;" d="M276 503Q386 503 438.50 451Q491 399 491 290L491 0L348 0L348 73Q333 35 298 13.50Q263-8 216-8Q166-8 125.50 12Q85 32 61.50 68Q38 104 38 148Q38 202 65.50 233Q93 264 154 278Q215 292 321 292L347 292L347 310Q347 354 328 372Q309 390 262 390Q226 390 182 377Q138 364 98 341L58 442Q100 468 161.50 485.50Q223 503 276 503M249 96Q293 96 320 125.50Q347 155 347 202L347 219L330 219Q249 219 216.50 206Q184 193 184 159Q184 132 202.50 114Q221 96 249 96M279 577Q214 577 162.50 614.50Q111 652 93 722L163 751Q206 672 279 672Q352 672 395 751L465 722Q447 652 395.50 614.50Q344 577 279 577Z"  horiz-adv-x="546" vert-adv-y="1000"  />

      
      <glyph glyph-name="uni1EAF" unicode="&#x1EAF;" d="M276 503Q386 503 438.50 451Q491 399 491 290L491 0L348 0L348 73Q333 35 298 13.50Q263-8 216-8Q166-8 125.50 12Q85 32 61.50 68Q38 104 38 148Q38 202 65.50 233Q93 264 154 278Q215 292 321 292L347 292L347 310Q347 354 328 372Q309 390 262 390Q226 390 182 377Q138 364 98 341L58 442Q100 468 161.50 485.50Q223 503 276 503M249 96Q293 96 320 125.50Q347 155 347 202L347 219L330 219Q249 219 216.50 206Q184 193 184 159Q184 132 202.50 114Q221 96 249 96M323 661L235 661L335 803L465 803L323 661M279 550Q214 550 167 577.50Q120 605 101 659L156 681Q172 654 206.50 640Q241 626 279 626Q317 626 351.50 640Q386 654 402 681L457 659Q438 605 391 577.50Q344 550 279 550Z"  horiz-adv-x="546" vert-adv-y="1000"  />

      
      <glyph glyph-name="uni1EB7" unicode="&#x1EB7;" d="M276 503Q386 503 438.50 451Q491 399 491 290L491 0L348 0L348 73Q333 35 298 13.50Q263-8 216-8Q166-8 125.50 12Q85 32 61.50 68Q38 104 38 148Q38 202 65.50 233Q93 264 154 278Q215 292 321 292L347 292L347 310Q347 354 328 372Q309 390 262 390Q226 390 182 377Q138 364 98 341L58 442Q100 468 161.50 485.50Q223 503 276 503M249 96Q293 96 320 125.50Q347 155 347 202L347 219L330 219Q249 219 216.50 206Q184 193 184 159Q184 132 202.50 114Q221 96 249 96M206-67L344-67L344-199L206-199L206-67M279 577Q214 577 162.50 614.50Q111 652 93 722L163 751Q206 672 279 672Q352 672 395 751L465 722Q447 652 395.50 614.50Q344 577 279 577Z"  horiz-adv-x="546" vert-adv-y="1000"  />

      
      <glyph glyph-name="uni1EB1" unicode="&#x1EB1;" d="M276 503Q386 503 438.50 451Q491 399 491 290L491 0L348 0L348 73Q333 35 298 13.50Q263-8 216-8Q166-8 125.50 12Q85 32 61.50 68Q38 104 38 148Q38 202 65.50 233Q93 264 154 278Q215 292 321 292L347 292L347 310Q347 354 328 372Q309 390 262 390Q226 390 182 377Q138 364 98 341L58 442Q100 468 161.50 485.50Q223 503 276 503M249 96Q293 96 320 125.50Q347 155 347 202L347 219L330 219Q249 219 216.50 206Q184 193 184 159Q184 132 202.50 114Q221 96 249 96M235 661L93 803L223 803L323 661L235 661M279 550Q214 550 167 577.50Q120 605 101 659L156 681Q172 654 206.50 640Q241 626 279 626Q317 626 351.50 640Q386 654 402 681L457 659Q438 605 391 577.50Q344 550 279 550Z"  horiz-adv-x="546" vert-adv-y="1000"  />

      
      <glyph glyph-name="uni1EB3" unicode="&#x1EB3;" d="M276 503Q386 503 438.50 451Q491 399 491 290L491 0L348 0L348 73Q333 35 298 13.50Q263-8 216-8Q166-8 125.50 12Q85 32 61.50 68Q38 104 38 148Q38 202 65.50 233Q93 264 154 278Q215 292 321 292L347 292L347 310Q347 354 328 372Q309 390 262 390Q226 390 182 377Q138 364 98 341L58 442Q100 468 161.50 485.50Q223 503 276 503M249 96Q293 96 320 125.50Q347 155 347 202L347 219L330 219Q249 219 216.50 206Q184 193 184 159Q184 132 202.50 114Q221 96 249 96M316 662L242 662L242 682Q242 700 255 709.50Q268 719 289 727Q296 730 301.50 732.50Q307 735 307 738Q307 743 299 747Q291 751 274 751Q249 751 217 740L197 791Q240 808 292 808Q341 808 370 791.50Q399 775 399 748Q399 729 386.50 719Q374 709 351 700Q333 692 324.50 686Q316 680 316 670L316 662M279 550Q214 550 167 577.50Q120 605 101 659L156 681Q172 654 206.50 640Q241 626 279 626Q317 626 351.50 640Q386 654 402 681L457 659Q438 605 391 577.50Q344 550 279 550Z"  horiz-adv-x="546" vert-adv-y="1000"  />

      
      <glyph glyph-name="uni1EB5" unicode="&#x1EB5;" d="M276 503Q386 503 438.50 451Q491 399 491 290L491 0L348 0L348 73Q333 35 298 13.50Q263-8 216-8Q166-8 125.50 12Q85 32 61.50 68Q38 104 38 148Q38 202 65.50 233Q93 264 154 278Q215 292 321 292L347 292L347 310Q347 354 328 372Q309 390 262 390Q226 390 182 377Q138 364 98 341L58 442Q100 468 161.50 485.50Q223 503 276 503M249 96Q293 96 320 125.50Q347 155 347 202L347 219L330 219Q249 219 216.50 206Q184 193 184 159Q184 132 202.50 114Q221 96 249 96M105 703Q105 748 137 778Q169 808 214 808Q232 808 248 803.50Q264 799 290 789Q305 783 319.50 778.50Q334 774 346 774Q385 774 388 805L453 805Q453 760 421 730Q389 700 344 700Q328 700 313.50 703.50Q299 707 286 711.50Q273 716 268 718Q253 724 238.50 728.50Q224 733 212 733Q173 733 170 703L105 703M279 550Q214 550 167 577.50Q120 605 101 659L156 681Q172 654 206.50 640Q241 626 279 626Q317 626 351.50 640Q386 654 402 681L457 659Q438 605 391 577.50Q344 550 279 550Z"  horiz-adv-x="546" vert-adv-y="1000"  />

      
      <glyph glyph-name="uni01CE" unicode="&#x01CE;" d="M276 503Q386 503 438.50 451Q491 399 491 290L491 0L348 0L348 73Q333 35 298 13.50Q263-8 216-8Q166-8 125.50 12Q85 32 61.50 68Q38 104 38 148Q38 202 65.50 233Q93 264 154 278Q215 292 321 292L347 292L347 310Q347 354 328 372Q309 390 262 390Q226 390 182 377Q138 364 98 341L58 442Q100 468 161.50 485.50Q223 503 276 503M249 96Q293 96 320 125.50Q347 155 347 202L347 219L330 219Q249 219 216.50 206Q184 193 184 159Q184 132 202.50 114Q221 96 249 96M337 760L454 760L324 555L234 555L104 760L221 760L279 644L337 760Z"  horiz-adv-x="546" vert-adv-y="1000"  />

      
      <glyph glyph-name="unie2" unicode="&#xe2;" d="M276 503Q386 503 438.50 451Q491 399 491 290L491 0L348 0L348 73Q333 35 298 13.50Q263-8 216-8Q166-8 125.50 12Q85 32 61.50 68Q38 104 38 148Q38 202 65.50 233Q93 264 154 278Q215 292 321 292L347 292L347 310Q347 354 328 372Q309 390 262 390Q226 390 182 377Q138 364 98 341L58 442Q100 468 161.50 485.50Q223 503 276 503M249 96Q293 96 320 125.50Q347 155 347 202L347 219L330 219Q249 219 216.50 206Q184 193 184 159Q184 132 202.50 114Q221 96 249 96M221 555L104 555L234 760L324 760L454 555L337 555L279 671L221 555Z"  horiz-adv-x="546" vert-adv-y="1000"  />

      
      </font>
</defs>
</svg>
